<svg width="28" height="30" viewBox="0 0 28 30" fill="none" xmlns="http://www.w3.org/2000/svg">
<path d="M26.5265 16.735C25.4934 15.7191 24.1779 15.0579 22.8159 14.5258C24.3484 13.3084 25.5141 11.8276 25.8619 9.63739C26.2717 7.05458 25.6329 3.69348 23.6923 1.7977C22.0772 0.220462 19.6563 -0.163517 17.5728 0.630267C16.4763 1.0439 15.4962 1.7168 14.7162 2.59148C14.287 3.09372 13.9199 3.64583 13.6228 4.23587C13.0649 3.20275 12.4347 2.20578 11.3585 1.63412C9.7882 0.797289 7.58764 0.847223 6.05001 1.73054C3.14865 3.3956 3.36044 6.35378 4.43317 8.9848C3.6305 8.96683 2.85343 9.26775 2.27221 9.82163C1.13922 10.8909 0.626102 12.7815 1.0118 14.2813C1.3975 15.781 2.61315 16.9123 4.05263 17.5529C3.65019 18.0073 3.32661 18.5258 3.09527 19.087C2.38758 20.8244 2.83182 22.8958 4.03197 24.3129C5.5145 26.0589 7.57042 25.9969 9.21998 25.0017C9.2372 25.0706 9.25097 25.1394 9.27336 25.2066C9.49989 25.8895 9.8392 26.5298 10.2772 27.1006C11.1244 28.2233 12.5759 29.3253 14.0498 29.3546C15.6236 29.3838 16.6809 28.1165 17.3765 26.8492C17.7733 26.0956 18.0411 25.2808 18.1686 24.4386C18.4999 24.6317 18.8453 24.7998 19.2017 24.9414C20.4208 25.4235 21.7156 25.7869 23.038 25.6405C25.0078 25.4218 26.8864 24.1476 27.5149 22.2277C28.1124 20.4232 27.9471 18.128 26.5265 16.735ZM14.1428 14.76C13.3559 15.1784 12.1764 14.834 11.7477 14.0626C11.2725 13.212 11.8458 12.0738 12.7688 11.893C13.0693 11.7639 13.401 11.7258 13.723 11.7833C14.045 11.8408 14.343 11.9915 14.5802 12.2168C15.3585 12.9417 15.0434 14.2847 14.148 14.76H14.1428Z" fill="#22333B"/>
</svg>
