<svg xmlns="http://www.w3.org/2000/svg" viewBox="0 0 316.22 343.6"><defs><style>.cls-1{fill:#1d1d1b;}</style></defs><title>Asset 4</title><g id="Layer_2" data-name="Layer 2"><g id="Layer_1-2" data-name="Layer 1"><path class="cls-1" d="M142.74,181.49a29.76,29.76,0,0,0-14.34-2.86,19.8,19.8,0,0,0-6.82,1.9c-3.08-3.61-7.1-6.28-12.17-6-6.51.33-12.31,5.31-14.81,11.12-2.62,6.07-2.39,13.07.62,18.19a17.18,17.18,0,0,0-1.89,7.36c-.37,7.45,4.72,13.57,11.28,16.42,6.11,2.64,13.91,3.32,19.87-.18a14.76,14.76,0,0,0,6.29-7.53c9.52-.25,20.88-7.8,23.56-15.9C157.54,194.3,151.47,185.42,142.74,181.49Z"/><path class="cls-1" d="M187.56,103.71c-4.81-4.73-10.93-7.8-17.27-10.28,7.14-5.66,12.56-12.56,14.17-22.75C186.38,58.62,183.4,43,174.37,34.2c-7.54-7.36-18.8-9.13-28.53-5.43a33.66,33.66,0,0,0-13.28,9.13,37.77,37.77,0,0,0-5.1,7.65c-2.59-4.83-5.52-9.45-10.53-12.11a26.92,26.92,0,0,0-24.7.45C78.73,41.64,79.71,55.4,84.7,67.65a14.13,14.13,0,0,0-10,3.89c-5.27,5-7.66,13.77-5.86,20.75s7.44,12.24,14.14,15.21a25.38,25.38,0,0,0-4.45,7.14c-3.29,8.08-1.23,17.72,4.36,24.31,6.89,8.13,16.46,7.84,24.14,3.22.08.32.14.64.25,1A29.53,29.53,0,0,0,111.9,152c3.94,5.23,10.7,10.36,17.55,10.49,7.32.13,12.25-5.76,15.48-11.66a35.29,35.29,0,0,0,3.69-11.2,35.88,35.88,0,0,0,4.81,2.34c5.67,2.24,11.69,3.94,17.84,3.25,9.18-1,17.92-7,20.86-15.88C194.91,120.87,194.14,110.18,187.56,103.71Zm-57.63-9.19c-3.66,2-9.15.34-11.15-3.24a7.11,7.11,0,0,1,4.76-10.1A7.77,7.77,0,0,1,132,82.69C135.57,86.06,134.1,92.31,129.93,94.52Z"/><path class="cls-1" d="M43.19,176.51q-.84,0-1.71-.06a24.81,24.81,0,0,1-20.91-13.91,7.15,7.15,0,0,1-2.5-4.39l-.12-.82c-2.62-17.59-5.32-35.78-9.6-53.31a285.13,285.13,0,0,1-8-51.21c-.4-6.87-.66-14.18.83-21.44,1.29-6.26,4.59-12.32,10.08-18.53C20.43,2.45,32-1.76,44.8.67c13.57,2.58,22.78,13,22.91,25.84.08,8.83-3.28,16.28-6.54,23.48a101.92,101.92,0,0,0-4.72,11.76c-2,6.64-.55,13.2,1.45,20.47C59.42,87.77,60.71,93.45,62,99l1.17,5.13h0c3.51,15.15,6.68,31.28,3.63,47.21C65.6,157.33,60.53,176.51,43.19,176.51ZM37.94,3C28.75,3,20.39,7,13.47,14.83,8.33,20.63,5.26,26.24,4.08,32c-1.42,6.9-1.16,14-.77,20.67a281.08,281.08,0,0,0,8,50.67c4.31,17.66,7,35.92,9.65,53.58l.12.82a4.38,4.38,0,0,0,1.68,2.72l.27.21.15.32a21.84,21.84,0,0,0,18.54,12.5c16.27,1.13,21-17.11,22.13-22.73,3-15.37,0-30.52-3.6-46q-.6-2.56-1.18-5.14C57.79,94.15,56.51,88.5,55,83c-2.11-7.73-3.68-14.73-1.42-22.13a102.08,102.08,0,0,1,4.86-12.12c3.26-7.23,6.35-14.06,6.27-22.22-.12-11.4-8.34-20.62-20.47-22.92A33.42,33.42,0,0,0,37.94,3ZM29,52a11,11,0,0,1-7.92-3.48c-2.89-3-3.4-7-3.84-10.54a6.77,6.77,0,0,1-.05-1,10.53,10.53,0,0,1,2.43-6.85c4.73-5.94,10.08-11.44,17.14-11.46h0a11.15,11.15,0,0,1,9.92,5.93c1.83,3.36,1.81,7.62-.06,12a30.65,30.65,0,0,1-5.93,8.58c-2.44,2.65-5.14,5.33-8.8,6.43A10.41,10.41,0,0,1,29,52Zm7.79-30.35h0c-5.8,0-10.54,5-14.8,10.33a7.58,7.58,0,0,0-1.78,4.91V37a4,4,0,0,0,0,.6c.4,3.21.82,6.53,3,8.84a7.74,7.74,0,0,0,7.81,2.26c2.93-.88,5.2-3.14,7.46-5.58a27.9,27.9,0,0,0,5.37-7.73h0c.87-2,2-5.95.18-9.38A8.19,8.19,0,0,0,36.82,21.65Z"/><path class="cls-1" d="M191.92,221.05l.34-.08c6.52-2,4.94-11.94-2-10.62-.35.07-.71.16-1.08.25s-.67.11-1,.14c-.06-2.82-.26-6-1.5-8.38-2.3-4.4-7.95-4.74-11.29-1.45-3.17,3.12-3.81,7.74-2.56,11.85.31,1,.72,2,1.06,3a13.55,13.55,0,0,0-1.7.72c-7.65,3.93-5.25,12.29,1.19,15.82,5.29,2.89,14,5.43,19.07.88C196.34,229.63,194.7,224.62,191.92,221.05Z"/><path class="cls-1" d="M224.56,161.12a11,11,0,0,1-1.46-.1c-4.32-.55-8.52-3.61-11-8-7.41-13.31-7.13-29.13-6.87-44.42.11-5.92.2-11.52-.13-16.93-.37-6.15-.82-12.39-1.25-18.42-1.12-15.91-2.29-32.35-2.34-48.6a10.09,10.09,0,0,1,3.65-8.17,11.79,11.79,0,0,1,9.44-2.31C222,12.42,229.5,18,235.81,30.05c2,3.78,3.95,7.58,5.91,11.37,3.09,6,6.28,12.13,9.53,18.15,5.32,9.86,10.23,19.82,15,29.51-1-8.29-1.94-16.84-2.87-25.26q-.32-2.88-.65-5.76c-.71-6.26-1.45-12.73-1.9-19.13-.5-6.93-.54-15.84,3.52-23.2,2.84-5.16,8.75-9.46,15.56-7.49,6,1.76,8.85,7.32,10.63,12,3.63,9.44,4.49,20.07,5.25,29.45,1,11.86,1.12,23.92,1.27,35.59.07,4.64.13,9.44.24,14.15h0c.06,2.54.16,5.11.27,7.71.42,10.73.86,21.83-1.48,32.3-1.62,7.25-7.15,12.1-13.77,12.1h-.12c-5.76,0-11.18-3.62-15.69-10.32-2.86-4.26-4.74-9.13-6.56-13.83l-.64-1.66c-1.88-4.83-3.72-8.56-6.26-13.72l-.4-.82-3.87-7.88c-4.69-9.6-9.52-19.48-14.62-29.11,1,4.15,2,8.33,3,12.51,3.68,16.72,3.19,33.16,1.32,52.68l-.12,1.31c-.5,5.45-1.12,12.24-5.3,16.62A11.38,11.38,0,0,1,224.56,161.12ZM212.51,17a8.62,8.62,0,0,0-5.41,1.81,7.24,7.24,0,0,0-2.55,5.84c0,16.15,1.21,32.54,2.34,48.39.43,6,.87,12.3,1.25,18.45.34,5.54.23,11.45.13,17.17-.26,14.9-.53,30.31,6.49,42.92,2,3.55,5.33,6,8.72,6.47a8.42,8.42,0,0,0,7.34-2.83c3.46-3.62,4-9.57,4.48-14.82l.12-1.32c1.84-19.25,2.33-35.41-1.26-51.75-1.81-8.21-3.86-16.4-6.08-24.36l-3.4-12.16L230.94,62c1,1.81,2,3.63,3,5.45,6.18,11.33,11.94,23.1,17.51,34.49,1.28,2.63,2.57,5.25,3.86,7.88l.4.81c2.58,5.23,4.43,9,6.37,14l.64,1.67c1.76,4.55,3.58,9.26,6.25,13.23,4,5.93,8.44,9,13.23,9h.09c6,0,9.75-4.89,10.84-9.76,2.26-10.09,1.83-21,1.41-31.52-.1-2.62-.21-5.21-.27-7.76h0c-.11-4.73-.17-9.54-.24-14.18-.15-11.62-.31-23.63-1.26-35.39-.74-9.18-1.59-19.58-5.06-28.61-1.53-4-3.9-8.77-8.67-10.16-5.56-1.63-10,2.24-12.09,6-3.69,6.68-3.63,15-3.16,21.55.45,6.33,1.18,12.77,1.89,19q.33,2.89.65,5.77,1.44,13,3,26.08l.12,1.05c.27,2.29.57,4.59.87,6.9l1.18,9-4-8.09q-1.32-2.66-2.62-5.31C259.7,82.57,254.39,71.71,248.61,61c-3.27-6-6.46-12.23-9.55-18.21q-2.94-5.67-5.9-11.34c-3.3-6.27-10-16.46-18.08-14.28l-.35.09-.35-.07A9,9,0,0,0,212.51,17Z"/><path class="cls-1" d="M38.64,342.32a23,23,0,0,1-12-3.05C19.15,334.83,15,326.18,15.87,316.7c.15-1.64.31-3.09.51-4.44A272.91,272.91,0,0,1,15.79,279a123.11,123.11,0,0,1,.63-29c.06-.4.12-.8.19-1.2l0-.15c0-1.88,0-3.77,0-5.65,0-3.68,0-7.37.07-11.05,0-1.46,0-3,0-4.54-.07-7.75-.15-16.54,3.79-23.36a17.34,17.34,0,0,1,11.06-8.49c6.35-1.61,14.31,0,21.3,4.33,13.21,8.15,22.68,22.25,30.52,34.82h0c12.58,20.19,38.76,62.2,10.56,87.1-13,11.45-30,16.14-43.47,19A58,58,0,0,1,38.64,342.32ZM36.69,198a18.54,18.54,0,0,0-4.4.51,14.43,14.43,0,0,0-9.19,7.1c-3.54,6.11-3.46,14.45-3.39,21.82,0,1.58,0,3.12,0,4.61-.05,3.67-.06,7.35-.07,11,0,1.93,0,3.85,0,5.78l-.07.52c-.06.37-.13.74-.18,1.11a119.49,119.49,0,0,0-.6,28.37V279a271.46,271.46,0,0,0,.59,33.16l0,.18,0,.18c-.19,1.33-.36,2.78-.51,4.43-.73,8.33,2.83,15.89,9.29,19.73s14,2.78,21.71,1.17c13.06-2.74,29.64-7.28,42.09-18.27,26.3-23.22,1-63.77-11.12-83.26h0C73.17,224,63.94,210.28,51.29,202.47A28.5,28.5,0,0,0,36.69,198Zm12.2,77.41a3.69,3.69,0,0,1-2-.36c-1.82-1.56-2.1-4.72-2.3-7,0-.42-.07-.81-.11-1.14-.28-2.24-.43-4.51-.58-6.71-.09-1.29-.18-2.59-.29-3.88a78.32,78.32,0,0,1-.11-8.67c0-1.05.05-2.06.06-3l-.05,0v-2.68l-.06-1.83.42.15a1.4,1.4,0,0,1,.93-.59l1.19-.25.53,1.16a2.16,2.16,0,0,1,.15.73l.72.24a22.92,22.92,0,0,1,4.29,1.75,58.18,58.18,0,0,1,12.65,9.86h0c.53.52,1.07,1.08,1.62,1.67l.2.26a12,12,0,0,1,1.77,5c.55,5.69-4.46,10.4-9.33,12.92a22.08,22.08,0,0,1-9.75,2.41Zm-2.29-31c0,1.05,0,2.13-.06,3.26a77,77,0,0,0,.1,8.34c.11,1.31.2,2.62.29,3.93.15,2.16.3,4.39.57,6.55,0,.36.08.79.12,1.25.11,1.3.31,3.56.93,4.6.76,0,2-.05,2.58-.12a18.76,18.76,0,0,0,6.14-1.92c3.81-2,8.12-5.76,7.71-10a8.65,8.65,0,0,0-1.27-3.59c-.49-.52-1-1-1.45-1.49a55.2,55.2,0,0,0-12-9.37A21.06,21.06,0,0,0,46.6,244.42Z"/><path class="cls-1" d="M167.91,343.39c-1.39,0-2.82,0-4.29-.1-11.49-.52-25.74-2.37-34.12-12.08s-9.07-23.58-9.64-35.77c-.14-2.85-.26-5.54-.48-8.16-.13-1.64-.19-3.32-.19-5a12.08,12.08,0,0,1-.26-1.82c-.05-.86-.11-1.73-.17-2.61-.56-7.84-1.19-16.74,5.79-23,6.69-6,15.24-5.45,23.49-4.9a71,71,0,0,0,9.24.24,114.76,114.76,0,0,0,11.38-1.54c6-1,12.15-2.07,18.43-1.55,4.79.4,10.85,1.45,15.15,6.12a14.89,14.89,0,0,1,2.2,16.52c-4.75,9.76-14.67,10.36-23.43,10.89-1.3.08-2.6.16-3.87.26-2.65.22-5.33.31-7.91.39-1.92.06-3.9.13-5.83.25-1,.06-2.05.17-3.18.3h0c-.76.11-1.46.23-2.15.35l-1.19.22c.4-.06.81-.1,1.23-.15,9.79-1.14,16.67.67,21,5.53,3.62,4,4.43,11.08-.11,15.18-6.42,5.79-14.23,6.51-21.92,6.82,5,.8,10.34.51,15.52.23,9.94-.56,20.21-1.12,29,5.79h0c3.51,2.76,4.41,9.71,1.71,13.28C196.05,338.68,184.43,343.39,167.91,343.39Zm-27.16-90.81c-5.3,0-10.18.85-14.19,4.46-5.89,5.3-5.34,13.07-4.81,20.58l.18,2.64a8.36,8.36,0,0,0,.22,1.5l0,.17v.17c0,1.67,0,3.33.18,4.94.22,2.67.35,5.38.48,8.26.58,12.27,1.17,25,8.92,33.95,7.58,8.79,20.43,10.52,32,11.05,17.76.81,29.93-3.46,37.19-13.07,1.74-2.3,1.09-7.33-1.18-9.11-7.89-6.21-17.16-5.7-27-5.16-7.75.43-15.77.87-23.23-2.2-.29-.12-.56-.26-.84-.4l-3.61-1.9,3.95-.91a25.49,25.49,0,0,1,3.42-.64l2.5-.09c8.16-.29,15.87-.56,22-6.13,3.21-2.9,2.54-8-.11-10.95-3.72-4.14-9.59-5.59-18.46-4.55-1.66.19-3.09.39-4.45.58-1.62.23-3.15.45-4.88.62a34.82,34.82,0,0,1-5.92.22l-5.1-.37,4.5-2.44c3.67-2,8.42-3.46,14.94-4.62q1.11-.19,2.25-.36l.14,0c1.13-.13,2.19-.24,3.28-.31,2-.12,4-.18,5.92-.25,2.55-.08,5.18-.16,7.76-.38,1.29-.11,2.61-.19,3.94-.27,8.71-.52,16.93-1,20.91-9.2a11.89,11.89,0,0,0-1.7-13.18c-3.58-3.88-8.68-4.79-13.2-5.16-5.9-.49-11.89.53-17.68,1.52a117.79,117.79,0,0,1-11.69,1.57,76,76,0,0,1-9.63-.23C145.43,252.74,143.05,252.58,140.75,252.58Z"/><path class="cls-1" d="M238.42,343.6a12.53,12.53,0,0,1-6.4-1.8c-3.8-2.22-6.21-5.86-7.16-10.82a13.53,13.53,0,0,1-.44-2.54c-.65-9.38-.67-18.84-.68-27.19,0-7.69-.2-15.55-.57-24-.23-2.82-.35-5.37-.38-7.72-.41-7.5-.95-15.22-1.61-22.88-.75-8.76-.85-17.21-.78-27.2,0-1.25,0-2.49,0-3.75,0-7.39,0-15,2.08-22.36,1.66-5.84,5.43-13.65,13.94-17.68,6-2.85,12.54-3.35,19.81-3.67,13.1-.56,30.19,4.4,38.9,16.81,8.33,11.89,7.59,31.54-1.66,43.81-6.72,8.91-17.93,15-33.31,18-.46.09-1,.21-1.63.35.65.91,1.32,1.79,2,2.67,2.05,2.51,4.29,4.94,6.46,7.3l.95,1a182,182,0,0,0,17.2,17,138.92,138.92,0,0,1,13.51,12.61l1.52,1.64c5.65,6.09,11.49,12.39,14.63,20.12h0c2.45,6.06,2,14-4.61,18.07-6.09,3.76-13.76,2.72-20-2.7a51.46,51.46,0,0,1-7.84-9.35c-1.39-1.94-2.82-4-4.35-5.74-2.36-2.76-5-5.52-7.71-8.21a46.84,46.84,0,0,0-4.88-4c-1.48-1.11-3-2.25-4.44-3.55a26.9,26.9,0,0,1-3.5-4,113.28,113.28,0,0,1,.34,17.53c-.31,7.2-.7,16.15-5,22.91C249.66,339.37,244.26,343.6,238.42,343.6Zm19.9-168.68c-.66,0-1.31,0-1.95,0-6.94.31-13.14.77-18.65,3.38-7.5,3.55-10.85,10.55-12.34,15.79-2,6.93-2,14.36-2,21.54,0,1.26,0,2.52,0,3.77-.07,9.91,0,18.28.77,26.93.66,7.68,1.2,15.43,1.62,23,0,2.35.15,4.83.37,7.64.37,8.57.56,16.47.58,24.2,0,8.31,0,17.72.67,27a10.22,10.22,0,0,0,.36,2l0,.14c.78,4.16,2.66,7.05,5.73,8.85,6.36,3.72,13.18-.78,16.82-6.54,3.84-6.08,4.21-14.6,4.5-21.44a101,101,0,0,0-.7-19.92c-.16-1-.35-2-.53-3l-1.06-5.64,3.68,4.4c.93,1.11,1.77,2.29,2.58,3.43a31.57,31.57,0,0,0,4.21,5.1c1.32,1.2,2.73,2.26,4.21,3.37a50.71,50.71,0,0,1,5.18,4.25c2.82,2.76,5.48,5.58,7.9,8.41,1.62,1.88,3.09,4,4.51,6a49.24,49.24,0,0,0,7.36,8.81c4.1,3.55,10.59,6.06,16.48,2.42,5.11-3.16,5.39-9.51,3.41-14.4h0c-2.93-7.22-8.58-13.31-14.05-19.21l-1.53-1.64a136.52,136.52,0,0,0-13.22-12.35A185.73,185.73,0,0,1,265.79,264l-1-1c-2.19-2.39-4.47-4.86-6.57-7.42a51.12,51.12,0,0,1-3.2-4.35c-.1-.15-.2-.32-.29-.49l-.93-1.72,1.89-.46c1.27-.3,2.82-.65,3.84-.85,14.64-2.91,25.24-8.6,31.5-16.9,8.53-11.31,9.24-29.38,1.6-40.28S270.29,174.92,258.32,174.92Zm-6.08,48a14.76,14.76,0,0,1-7.82-1.77,10.4,10.4,0,0,1-5-7c-.7-3.62.44-7.77,3.12-11.37h0a11.3,11.3,0,0,1,.8-1,7.66,7.66,0,0,1,5.59-4.21l.39-.06c7-1,16.47-2.25,22.31,3.94a11.27,11.27,0,0,1,1.51,13.09c-1.58,2.92-4.5,5.17-8.7,6.68a34.5,34.5,0,0,1-10.21,1.6C253.6,222.88,252.93,222.9,252.24,222.9Zm6.21-23.16a66.19,66.19,0,0,0-8.71.78l-.39.06a4.87,4.87,0,0,0-3.42,2.8l-.1.19-.14.15a8.81,8.81,0,0,0-.72.85h0c-2.15,2.89-3.12,6.26-2.59,9a7.39,7.39,0,0,0,3.61,5c2.29,1.4,5.4,1.41,8.13,1.29a31.91,31.91,0,0,0,9.32-1.42c3.48-1.26,5.86-3,7.07-5.29a8.24,8.24,0,0,0-1.05-9.6C266.66,200.57,262.64,199.74,258.45,199.74Z"/></g></g></svg>