<svg xmlns="http://www.w3.org/2000/svg" viewBox="0 0 707.19 285"><defs><style>.cls-1{fill:#1d1d1b;}</style></defs><title>Asset 3</title><g id="Layer_2" data-name="Layer 2"><g id="Layer_1-2" data-name="Layer 1"><path class="cls-1" d="M129.72,268.55a32.44,32.44,0,0,1-12.62-2.66c-8.88-3.85-14.34-11.86-13.91-20.4a21.82,21.82,0,0,1,1.93-8.28c-3.27-6.23-3.43-14.37-.35-21.51,3.37-7.83,10.77-13.35,18.4-13.73,5.33-.27,10.18,1.92,14.45,6.51a23.66,23.66,0,0,1,7.19-1.8c6.7-.56,13.07,1.54,17.23,3.41h0c9.79,4.41,18.41,15,14.16,27.8-3.15,9.51-16,18.45-27.38,19.28a18.36,18.36,0,0,1-7.48,8.43A22.78,22.78,0,0,1,129.72,268.55ZM124,205.37l-.67,0c-6.27.32-12.61,5.11-15.43,11.66s-2.56,13.86.61,19.25l.49.83-.45.85a17.72,17.72,0,0,0-2,7.68c-.35,7.1,4.3,13.81,11.85,17.09,5.83,2.52,14.45,3.82,21.14-.11a15,15,0,0,0,6.46-7.76l.42-1,1.13,0c10.22-.27,22.53-8.52,25.34-17,3.58-10.8-3.88-19.81-12.32-23.6-3.79-1.7-9.55-3.64-15.54-3.13a20.54,20.54,0,0,0-7.2,2l-1.18.55-.84-1C132.3,207.49,128.32,205.37,124,205.37Z"/><path class="cls-1" d="M146.45,191.61h-.33c-8.86-.17-17.06-6.92-21.38-12.65a36.3,36.3,0,0,1-5.29-9.69c-8.3,4.18-19.43,4.83-27.85-5.1-7.09-8.36-9.16-20-5.26-29.53a30.13,30.13,0,0,1,4-6.9c-7.79-4-13.25-10.32-15.11-17.55C73,101.52,76,90.84,82.38,84.81A17.61,17.61,0,0,1,92.59,80c-6.5-17.63-3-30.91,10.19-38.48,8.75-5,21-5.24,29.88-.54,5.28,2.81,8.63,7.35,11.22,11.81a41.61,41.61,0,0,1,4.54-6.34A40.15,40.15,0,0,1,164.27,35.6c12.09-4.6,25.59-2,34.4,6.58,11.28,11,14.17,29.62,12,43.16-1.56,9.86-6.22,17.93-14.58,25.2,5.66,2.38,12.25,5.76,17.63,11h0c8.27,8.14,8.8,21.43,5.64,31-3.38,10.25-13.53,18-25.26,19.31-8,.88-15.52-1.58-21.21-3.83-1.23-.49-2.44-1-3.62-1.63a39.94,39.94,0,0,1-3.95,11C160.17,186.84,153.82,191.61,146.45,191.61Zm-24.86-27.53.63,2.55c.06.23.11.46.18.68a32.52,32.52,0,0,0,5.07,9.58c3.87,5.12,11.09,11.15,18.72,11.29,6.08.14,11.56-4.06,16.15-12.42a38.07,38.07,0,0,0,4-12.26l.43-2.43,2.12,1.24a39.2,39.2,0,0,0,5.26,2.56c5.32,2.1,12.35,4.4,19.57,3.61,10.42-1.16,19.42-8,22.39-17,2.82-8.55,2.43-20.37-4.8-27.48h0c-4.52-4.45-10.43-8-19.14-11.37l-2.78-1.08,2.33-1.86c9.19-7.29,14-15,15.57-24.9,1.94-12.27-.69-30.07-11-40.18-7.85-7.67-19.93-10-30.78-5.83a36.74,36.74,0,0,0-14.5,10,41.49,41.49,0,0,0-5.59,8.4L143.9,60l-1.52-2.85C139.79,52.36,136.57,47,131.05,44c-7.73-4.11-18.9-3.9-26.56.49C92.28,51.54,89.63,63.8,96.63,81l1,2.35H95a14.41,14.41,0,0,0-10.31,4c-5.45,5.15-8.12,14.62-6.21,22,1.75,6.82,7.29,12.74,15.19,16.23l2.12.94-1.52,1.75a27.79,27.79,0,0,0-4.8,7.68c-3.36,8.28-1.47,18.73,4.71,26,6.54,7.71,16,9,25.38,3.32ZM142.65,115c-4.05,0-8.25-2.08-10.18-5.54a9.33,9.33,0,0,1-.17-8.55,9.64,9.64,0,0,1,6.58-5.45,10.63,10.63,0,0,1,11.32,2.11,9.36,9.36,0,0,1,2.78,8.2,10.84,10.84,0,0,1-5.47,8.08h0A10.3,10.3,0,0,1,142.65,115Zm.2-16.92a6.72,6.72,0,0,0-2.75.58l-.37.12a6.21,6.21,0,0,0-4.33,3.58,6,6,0,0,0,.07,5.44c1.82,3.27,7.09,4.8,10.43,3a7.34,7.34,0,0,0,3.68-5.5,6,6,0,0,0-1.72-5.25A7.38,7.38,0,0,0,142.85,98.05Z"/><path class="cls-1" d="M68.73,123.61c-1.93-8.32-3.71-16.66-6-24.9-2.21-8.07-4.16-16.11-1.64-24.33,4.18-13.63,12.93-24.84,12.78-39.75C73.77,20.08,63.13,9.44,49.14,6.78,34.55,4,22.07,9.21,12.39,20.14,7.2,26,2.86,32.75,1.26,40.51c-1.63,7.93-1.38,16-.91,24.05a322.34,322.34,0,0,0,9.14,58.19c5,20.41,8,41.23,11.13,62a6.64,6.64,0,0,0,2.55,4.19,26.67,26.67,0,0,0,22.61,15.25c16.18,1.13,24.41-13.43,27.08-27.35C76.29,158.94,72.78,141.08,68.73,123.61ZM50,45.43a33.1,33.1,0,0,1-6.45,9.32c-2.63,2.84-5.49,5.72-9.29,6.86a10.58,10.58,0,0,1-10.65-3c-2.89-3-3.43-7.13-3.93-11.07a6.09,6.09,0,0,1,0-1,10.36,10.36,0,0,1,2.4-6.75c4.44-5.58,10.46-12.43,18.24-12.45a11.12,11.12,0,0,1,9.86,5.88C52.26,37.07,51.68,41.57,50,45.43Z"/><path class="cls-1" d="M209.74,285a31.18,31.18,0,0,1-14.28-4c-4.74-2.6-7.77-7.22-7.71-11.78.05-3.92,2.32-7.23,6.39-9.31a5.6,5.6,0,0,1,.55-.27c-.24-.64-.47-1.28-.67-1.93-1.73-5.67-.45-11.51,3.36-15.26a10.3,10.3,0,0,1,8.76-2.88,9.34,9.34,0,0,1,6.85,5,20.55,20.55,0,0,1,1.84,8.33,3,3,0,0,1,.41-.09,7.24,7.24,0,0,1,8.85,5.49,8.3,8.3,0,0,1-3.93,9.22c2.75,4.49,3.7,10.14-.95,14.3A13.84,13.84,0,0,1,209.74,285Zm-5.13-42.16a6.93,6.93,0,0,0-4.83,2c-2.89,2.84-3.84,7.37-2.49,11.81.2.63.43,1.25.66,1.87s.37,1,.54,1.48l.54,1.62-1.61.55a13.22,13.22,0,0,0-1.72.72c-2.92,1.51-4.49,3.69-4.52,6.31,0,3.26,2.34,6.77,5.92,8.73,6.07,3.32,14.9,5.64,19.82,1.24,4.48-4,.56-9.81-.75-11.5l-1.6-2.05,2.75-.71a4.82,4.82,0,0,0,3.44-5.88,3.87,3.87,0,0,0-4.88-2.94c-.37.07-.74.16-1.13.26l-.12,0c-.44.08-.87.14-1.3.18l-1.82.16,0-1.83c-.07-3.2-.3-6.48-1.52-8.81a5.86,5.86,0,0,0-4.35-3.18A6.59,6.59,0,0,0,204.61,242.84Z"/><path class="cls-1" d="M336.16,117.92C335.7,99,336,80.07,334.43,61.2c-.89-11-1.87-22.72-5.88-33.16-2.06-5.38-5.06-10.9-11-12.64-6.66-1.94-12.67,2-15.8,7.73-4.22,7.64-4.42,17.07-3.82,25.56.68,9.47,1.88,18.92,2.92,28.36,1.13,10.34,2.33,20.67,3.52,31,.3,2.63.64,5.26,1,7.9q-1.5-3-3-6.06c-6-12.31-12.06-24.62-18.57-36.69-6-11.19-11.73-22.49-17.64-33.74-4.25-8.08-12.39-19.94-22.62-17.17-6.11-1.24-13.31,2.15-13.29,10.21.07,25.55,2.54,51,4.1,76.45,1.37,22.44-3.65,48.83,7.78,69.36,4.33,7.78,14.09,11.84,21.08,4.52,4.73-5,5.11-13.06,5.72-19.46,1.93-20.12,2.91-39.74-1.48-59.65q-3.09-14-7-27.91Q262.26,79,264,82.23c8.63,15.84,16.4,32.14,24.37,48.33,3.18,6.47,5.38,10.87,7.67,16.74s4.51,12.09,8.05,17.36c3.77,5.61,9.28,11,16.52,11,7.41.06,12.64-5.61,14.17-12.48C338.08,148.59,336.51,132.71,336.16,117.92Z"/><path class="cls-1" d="M427.53,63c-8.92-14.31-19.66-30.19-34.3-39.23-11.08-6.83-27.05-8.87-34.58,4.16-5.15,8.9-4,21.15-4.09,31-.08,6.4-.06,12.8-.1,19.2-.09.55-.19,1.09-.27,1.64a138.07,138.07,0,0,0-.69,32.81,306.2,306.2,0,0,0,.68,38.08c-.26,1.77-.45,3.51-.6,5.18-.83,9.45,3,19.15,11.45,24.15,8.12,4.83,17.25,3.37,26,1.54,17.54-3.67,35.19-9.19,48.86-21.26C469.83,133.85,444.11,89.56,427.53,63ZM406.07,84.28c.59.59,1.21,1.22,1.82,1.87a12,12,0,0,1,1.79,5c.56,5.81-5.11,10.68-9.73,13.07a22.85,22.85,0,0,1-7.58,2.36c-1.19.15-3.94.18-3.95.17-1.83-1.57-1.85-6-2.12-8.2-.49-4-.64-8-1-12-.45-5.26.07-11.1-.08-15.82A49.33,49.33,0,0,1,392,73.3,64.8,64.8,0,0,1,406.07,84.28ZM385.22,70c0-1.29.39-.28,0,0Z"/><path class="cls-1" d="M555.66,136.27c-17-21.41-39.15-1.56-57.77-13.87a10.24,10.24,0,0,1-.85-.66,22.39,22.39,0,0,1,3.61-1.1c10.45-.71,20.84-.16,29.1-12.12,4.4-6.36,3.66-17.43,0-24-5.69-10.16-14.7-10.71-22.56-9.25-4.16.78-7,1.63-10.63,2.21a24.94,24.94,0,0,1-6.46.4c4.46-3.89,10.18-6.36,16.55-8.17.84-.24,1.68-.46,2.53-.67h0c1.24-.22,2.47-.44,3.72-.56,5.22-.52,10.44-.46,15.66-1.16,11.17-1.5,24,0,29.79-18.91,2.7-8.9,2-19.83-2.23-27.23S546,11.67,540,10.87c-11.42-1.51-22.51,4.48-33.81,5.66-11.94,1.25-26.37-6.57-36.34,7.85-8.18,11.83-6.44,29.14-5.86,44.79a28.49,28.49,0,0,0,.3,3.21c0,3.13.06,6.24.22,9.28,1.32,26.1-.21,57.87,11.14,79,9.12,17,24.63,20.24,37.76,21.21,16.23,1.19,33.59-3.1,43.93-25.05C559.83,151.46,559,140.48,555.66,136.27Z"/><path class="cls-1" d="M676.68,160.45c-3.78-9.32-11.38-17-18.11-24.33a160.86,160.86,0,0,0-15.27-14.26,207.81,207.81,0,0,1-19.82-19.55c-2.89-3.15-5.81-6.27-8.52-9.58a55.86,55.86,0,0,1-3.55-4.82,3.65,3.65,0,0,1-.26-.44c1.49-.36,3.22-.74,4.31-1,13.84-2.75,28.25-8.32,37-20,9.77-13,11.33-34.51,1.86-48-9.2-13.14-27.42-19.16-43-18.48-7.45.33-15.13.79-22,4-7.84,3.71-12.68,10.92-15,19.12-2.7,9.53-2.24,19.57-2.32,29.36-.08,10.41,0,20.52.88,30.91q1.13,13.11,1.85,26.26c0,2.94.2,5.86.43,8.77q.6,13.77.65,27.52c0,10.32.06,20.64.78,30.95a12.72,12.72,0,0,0,.46,2.62c.86,4.57,3,8.71,7.37,11.27,8.33,4.87,17-.91,21.52-8,4.6-7.28,5.05-17,5.41-25.34.33-7.65.39-15.51-.83-23.09-.18-1.15-.39-2.3-.61-3.45,2.72,3.24,4.75,7,7.92,9.91,3.42,3.11,7.37,5.42,10.68,8.67q4.67,4.54,8.92,9.49c4.7,5.47,8.28,12.32,13.74,17,5.83,5.05,13.93,7.2,20.84,2.92C678.65,175,679.34,167,676.68,160.45ZM597.07,34.56a12.94,12.94,0,0,1,.94-1.12,7.23,7.23,0,0,1,5.2-4.11c8-1.09,18.28-2.63,24.46,3.91a11.13,11.13,0,0,1,1.46,13c-1.86,3.45-5.46,5.56-9,6.84A37.51,37.51,0,0,1,609,54.76c-3.42.14-7.23.13-10.26-1.72C591.64,48.69,592.73,40.39,597.07,34.56Z"/><path class="cls-1" d="M198.31,228.55c16.94-.05,33.86-1,50.79-1.3,16.1-.27,32,.85,48.1,1.66s32.27,1.19,48.41,1c16.37-.15,32.5-1,48.86.08,16.2,1.12,31.94-1.41,48.11-1.4,15.69,0,31.37.58,47.07.55,16.11,0,32.23-.05,48.33-.63,8-.29,16-1.23,24.09-1.69,8.95-.51,17.77.47,26.7.41,18-.11,36.22-3.32,54.06-5.45,18.63-2.23,37.3-4.18,56.08-4.28,11-.07,11.05-17.2,0-17.14-33.24.19-66,6.26-99,9.07a194.61,194.61,0,0,1-24.51.12,199.87,199.87,0,0,0-24.22,1c-16.42,1.34-32.93,1.35-49.39,1.44-16.18.09-32.34,0-48.51-.36-7.43-.18-14.87-.27-22.3.11-8.24.42-16.34,1.82-24.61,1.72-7.91-.1-15.78-1-23.68-1.35s-15.92.22-23.89.44c-16.86.47-33.74.33-50.6-.31-17.86-.67-35.64-2.34-53.52-2.21-18.78.14-37.53,1.31-56.32,1.36-11,0-11,17.16,0,17.14Z"/><path class="cls-1" d="M24.54,232.65c5.6,0,11.07,1.25,16.64,1.32,4.93.06,9.77-1.21,14.7-1.34,9.37-.23,18.8,1.29,27.93-1.58,10.48-3.3,6-19.85-4.56-16.53-8,2.53-16.68.58-25,1-4.38.24-8.7,1.34-13.11,1.29-5.57-.08-11-1.34-16.64-1.33-11,0-11,17.16,0,17.14Z"/></g></g></svg>