<svg xmlns="http://www.w3.org/2000/svg" viewBox="0 0 337.52 414.36"><title>Asset 46</title><g id="Layer_2" data-name="Layer 2"><g id="Layer_3" data-name="Layer 3"><path d="M10.79,221.56c-1.91.32-2.6,1.43-3.49,2.28-1.31,1.25-2.67.7-4,.12s-2.56-1.83-1.92-3.31c1.25-2.91-.27-5.44-.61-8.16C.06,207-1.42,201.14,3.59,196.42a2.79,2.79,0,0,0,.34-2.22C1.8,183.49,3.87,172.92,5,162.33c.44-4.23-2.89-7.59-2-12.13C5.3,139,6,127.52,9.56,116.53a8.47,8.47,0,0,0-1.08-7.84c-2.76-4.24-1.87-9.1-.1-13.53C16.22,75.6,27.26,57.94,42.55,42.87a103.15,103.15,0,0,1,59.1-29.2c7.15-1,14.44-.92,21.42-3.24,3.16-1,6.39.59,9.48,1.25s4.6.7,4.88-2.77c.2-2.62,2.19-3.55,4.51-2.42,1.88.92,3,.2,4.31-.73,12-8.54,24.21-6.67,36.32-.31A27.65,27.65,0,0,0,193.35,9c11.56,1,20.6,7.66,30.38,12.69,3.9,2,7.65,5.68,12.75,2.22,1.11-.75,2.13.14,2.74,1.17.7,1.19.17,2.06-.8,2.83-1.83,1.45-4.18,1.55-6.8,2.34L251.5,51.56c.84-2.5-.72-4.21-.86-6.1-.07-1-1.31-2,0-3s2.5-.61,3.69-.18a5.38,5.38,0,0,1,3.64,3.52c3.94,14.62,13,27.19,17.86,41.47A103.53,103.53,0,0,1,281,112.55c1.25,15.08-.4,30.12.22,45.19.31,7.44-.89,15-.56,22.59a12.82,12.82,0,0,1-1.92,7.16c-1.14,1.84-1.34,3.41,1.29,4.4,1.52.58,1.61,1.85,1.41,3.49a71.83,71.83,0,0,1-3.64,13.86c-1.84,5.52-.81,11.4-.9,17.1-.07,4.5-2.82,9.63,2.14,13.51.21.16-.12,1.23-.46,1.7-1.72,2.41-1.25,4.65.33,6.9.87,1.23,1.23,2.56.29,3.91s-2.51,1-3.53.59c-4.6-1.84-6.12.83-8,4.12-2.25,3.88-3.17,9.08-8.92,10.22-.29.06-.57.54-.78.5-8-1.43-7.54,5.13-8.93,9.28-2.73,8.16-7,14.72-15.31,18.7A64.78,64.78,0,0,0,220.86,304a9.75,9.75,0,0,0-3.63,5.77,95.84,95.84,0,0,0-2.44,27.7c.33,4.71,2.07,9.34,3.28,14,.33,1.25,1.14,2.34,2.82,1.44,1.48-.8,3.67-1.12,3.29-3.4a12.07,12.07,0,0,0-1.51-3.91c-.87-1.52-3.21-3-.53-4.57a4.93,4.93,0,0,1,6.22.69,14.86,14.86,0,0,1,5,11.55c-.12,6.41.5,7.11,6.95,7.89,2.22.27,3.78.7,3.84,3.64.08,3.36,3.49,5.06,6,6.77,8.22,5.68,17.6,9,27.32,11.52,11.35,3,22.81,5.72,34.23,8.16,6.28,1.35,12.48,4.17,19.2,3.84a6.62,6.62,0,0,1,5.59,2.23c1,1.13,1.53,2.4.51,3.83s-2,2.4-4,1.55c-4.38-1.87-9.53-1.51-13.61-4.43-1.19-.85-2.93-1.45-4.36.18a2.61,2.61,0,0,1-3.91,0c-6-5.56-14.15-5.51-21.5-7.38-14.8-3.78-29.87-6.77-42.69-15.62-1.94-1.34-3.5-3-6.32-5.11,1.84,4.4,5,6.31,7.61,8.62,1.67,1.48,4.31,3.05,2,5.17s-5.33,1.06-7.23-1.11c-6.85-7.81-13.95-15.51-16.22-25.95-5.63,1.73-5.58,1.72-4.94,6.41.21,1.51.5,3.25-1.47,4s-4.15.73-5.06-1.27c-1.5-3.31-3.48-2.34-5.73-1.14-9.09,4.89-19.38,6.67-29,10.32-2.14.81-2.48,1.79-2.42,3.73.27,8.38.38,16.77.53,25.16a11.39,11.39,0,0,0,1.23,4.41c1,2.31.89,4.77-2.26,5.51-2.66.62-4.18-.72-4.73-3.35-1.57-7.52-1.46-15.13-1.43-22.74,0-2.95.07-5.91,0-8.86-.26-7-1.17-8.16-8.37-8.53-14.81-.75-28-4.74-38.29-17.51.56,4.71-.41,8-1.1,11.27-.51,2.45-1.52,3.89-4.1,3.31s-2.9-2.52-2.51-4.75c.72-4.1,2-8.15,1.46-12.37a32.13,32.13,0,0,0-.66-3.63c-.21-.95-.79-1.92-1.78-2-1.35-.09-1.1,1.27-1.39,2.06a120.94,120.94,0,0,1-7.43,16.72q-5.92,10.62-11.08,21.55c-1.38,2.92-3.12,6.06-1.87,9.67.66,1.9-1,2.72-2.48,2.52-2.39-.34-4.92-1.08-4.56-4.25.7-6.07,3.43-11.54,6-17.57-3.85.21-5.54,2.85-7.54,4.82A66.46,66.46,0,0,1,66.18,394c-1.72.77-3.89,2.22-5.49,1-5.3-4-9.32-.15-13.27,1.94-3.66,1.94-7.62,2.48-11.39,3.76a5.26,5.26,0,0,1-5.38-1.34c-.83-.78-1.67-1.65-1.27-2.83a2.37,2.37,0,0,1,2.34-1.39c11.41-.13,19.88-6.51,28.84-12.09,4.06-2.53,8.6-5.52,13.82-1.79,1.2.86,2.09-.12,3-.78,8.57-6.39,16-14,23.84-21.14,4.87-4.39,6-11.79,8.41-18,.66-1.73-.78-4.25,2.15-5.16s3.62,1.86,5.9,3.67c-.9-7.78-1.41-14.78-3.21-21.62-.87-3.3-3-4.86-6.74-5.64-11.32-2.36-22.92-4.08-33-10.09a123.67,123.67,0,0,1-10.93-6.84,14.8,14.8,0,0,1-6.22-10.53c-.21-1.8-.41-3.53-3.08-4-10.35-2-17.46-8.79-24.4-15.71-3.33-3.32-6.46-6.84-9.51-10.39-1.1-1.29-1.45-.69-2.57,0-3.19,1.93-6.55.18-6.62-3.41-.1-5.1.46-10.28-3.73-14.39a1.44,1.44,0,0,1,.14-2.43c4.54-2.45,4.2-6.12,3.07-10.12A12.71,12.71,0,0,1,10.79,221.56ZM72,35.49c1.11.37,1.8-.42,2.59-.89,3.31-1.93,6.27-5.23,10.68-1.78,1,.83,2.49-.27,3.39-1.16,1.55-1.53,3-3.19,5.09-5.52-8.42,2.15-16.27,3.12-21.66,9.45C66.44,37.2,60.94,39,57.21,44.36,63.91,43.09,67.68,40.78,72,35.49Zm66.87,175.36c-3.61,1.79-6.5,3.72-9.81,5-11.24,4.27-22.89,4.35-34.42,2.4-15.17-2.57-28.3-8.77-35.51-23-3.19-6.27-5.22-13-7.17-19.65-1.79-6.19-4.31-8.05-11-7.91-3.05.06-5.72,1.09-4.61,4.77,1.8,6,2.21,12.23,3.45,18.32,1.74,8.61,2.75,17.38,5,25.85C49,232.09,54,247.34,57.73,262.94c1.63,6.76,4.32,13.26,5.64,20.18,1,5.09,4.54,8.92,9,12.17,9.91,7.17,21.56,9.5,33.18,12.15,2.12.49,3.52,1.05,5.28-1.27,2.06-2.7,5.31-1.8,5.79,1.52.37,2.55,2.08,2.5,3.65,2.87a133,133,0,0,1,30.93,11.76c4.37,2.26,9.39,4.13,14.45,3.15,13.08-2.53,25.32-7,36.34-14.64,8.74-6,16.58-13.25,26.34-18,4.52-2.2,9.3-4.59,11.38-9.66a138.8,138.8,0,0,0,5-13.58,216.1,216.1,0,0,0,8.74-51.77c.3-7,1.22-13.95.33-21.93-9.76,11.07-22.38,14.54-35.51,15.9a51.12,51.12,0,0,1-37.78-10.71c2.79,10.14,5.57,19.15,7.66,28.32a13.07,13.07,0,0,0,6.3,8.86c3.95,2.4,6.15,5.57,4.72,10.12-1,3.06-6.76,5.28-11.18,4.84-2.13-.22-4.11-.57-4-3,.11-2.67,2.5-1.87,4.12-1.85,2.55.05,4.77-.5,4.64-3.34-.11-2.64-2-3.74-4.77-3.21-4.28.83-5.71-2.51-5.09-4.89,1.2-4.61-.76-8.46-1.53-12.61-3.16-17.06-9.48-33.37-13-50.35-.54-2.61-3.22-2.21-5-2.94-.92-.38-2.39-.3-2.63,1.23-.43,2.75-1.7,5.73-1,8.22,3.35,12.27,2.43,24.56,1.14,36.92-.3,2.88-.94,5.8,0,8.79.67,2.09.88,4.5-2.39,5-3.69.53-3.35-2.32-3.33-4.27.06-4.65.44-9.3.81-13.94.55-6.84.84-13.67-.6-20.62-3,6-8.43,10.57-9.9,17.39-1.56,7.3-2.6,14.66-3.84,22-.45,2.64,0,4,3,4.52,2.16.36,4.37,1.92,3.52,4.12s-3.26,4.74-6,3.26c-5-2.68-6.17,1.44-9,3.58,3.72,1.25,5.63-2,8.52-2.17,3.74-.27,7.08.49,9.68,3.08,1.21,1.2,2.18,3,1,4.69a8.37,8.37,0,0,1-8.55,3.3c-3.77-.69-6.85.58-10.21,1.35-4.45,1-6.81-.5-7.77-4.68-1.13-4.94.77-8.81,4.6-12,2.07-1.72,4.41-3.25,4.85-6.13C136.47,226.89,137.62,219.11,138.86,210.85Zm81.47-100.41c-1.8,7.21-1.3,7.82,4.64,7.22a3.22,3.22,0,0,1,2.22.48c.78.7.4,1.7-.11,2.54-1.06,1.75-3.14,3.5-4.65,2.48-4.66-3.15-9.21-3.89-14.31-1.43a1.17,1.17,0,0,1-.94-.12c-2.59-1.6-3.11,0-3.81,2-1.56,4.5-4.58,5-9,3-4.81-2.2-6.18-6.48-8.5-10.9-.55,2.36.53,4.92-1.84,5.53s-4.25-1.14-5.64-2.9a15.21,15.21,0,0,1-2.74-4.86c-.44-1.39-.44-3.27-2.75-4.51,1.21,3.65.38,7.6,1.64,9.87s1.72,3.77,0,4.79c-2.18,1.32-3.79-.71-5-2.4s-1.4-4.43-4.09-3.85-.32,3.65-1.83,5.11a1.07,1.07,0,0,0-.14.87c.67,3.24-.56,3.72-3.22,2s-5.75-1.73-7.62.29c-3.71,4-5.85,1.11-8.2-1.1-1.37-1.28-2.22-2.87-4.52-3.13a13.18,13.18,0,0,1-10.35-6.85c-2.15-3.76-4.45-3.85-7.17-.63-.71.84-1.42,1.68-2.16,2.5-2.56,2.78-5.08,5.6-7.7,8.32a3.37,3.37,0,0,1-4.81.43c-1.84-1.54-.09-2.7.93-3.83l5.23-5.73c-3.73,2.22-7.1,4.74-10.49,7.24-2,1.49-4.15,1.72-5-.87-.8-2.33-1.6-.7-2.19-.26-5.67,4.26-10.33,9.48-16.76,13.16-5.07,2.9-11.39,3.45-15.53,7.85a1.14,1.14,0,0,1-.94.1c-3.71-1.17-5.06,1.42-6.87,3.67-2.87,3.56-5.65,7.34-9.21,10.15-2.42,1.9-6.23,2.17-6.73,6.11.95,1.09,2.4.53,3.57.94,4.14,1.44,6.95,1,9-3.68,2.17-5,6.39-8.83,11.62-11.42,13-6.44,27.51-7.5,41.53-10.24a8.19,8.19,0,0,1,3.35.31c5.63,1.36,11.22,2.88,16.86,4.18,13.31,3.06,24.94,8.36,32.08,20.45,2,3.42,6.33,3,9.7,3.21,2.5.18,2.07-3.06,3.15-4.66,1.48-2.21,2.58-4.7,4.25-6.76,7.09-8.7,15-16.3,27.21-17.95a16.48,16.48,0,0,1,10.26,1.54,2.43,2.43,0,0,1,1.11,3.6c-.81,1.32-2,1.24-3.18.1-2-1.86-4.39-1.5-6.86-1.17-5.7.79-10.3,3.66-14.47,7.14-7.54,6.3-13.81,13.21-14.8,23.57-.46,4.84,1.75,8.55,2.88,12.78,2.67,10,9,17,18.85,20.07,20.08,6.32,40.91,1.1,54.77-14.07,4.18-4.58,5.73-9.59,4.33-15.49-1.18-5-2.39-10-3.47-15-2.53-11.77-8.67-17.74-20.85-20.06-4-.75-7.93-1.34-11.9-2-2-.32-4.87.11-4.31-3s3.28-2.33,5.52-1.88c4.26.84,8.5,1.85,12.79,2.56a28.42,28.42,0,0,1,15.55,7.92c2.45,2.4,4.94,4.75,7.42,7.12a23.45,23.45,0,0,1-1.77-12.18c.21-2.33-.8-6.21-2.83-6.14-3.9.15-5.05-2.28-6.79-4.28-2.67-3.09-4.89-6.48-9.76-6.75-1.81-.1-3-1.73-4-3.15-.66-.91-1.29-2-2.53-2C224.56,116.51,222.31,114.31,220.33,110.44ZM105.5,214.93c13.49.74,24.95-3.4,34.31-12.58,3.05-3,4.49-6.77,3.1-11s.52-6.36,5.23-5.53c.88.16,1.93,1.73,2.7-.2a72.83,72.83,0,0,0,3.47-13c.47-2.36-1.66-3.13-2.81-4.52-.37-.44-.78-1.3-.58-1.66,2.23-4-1.32-5.88-3.22-8.24-5-6.3-12.46-9.09-20.07-10.2-7-1-13.46-8.08-21.6-1.63-1.44,1.14-7.1.83-10.12.4-8.45-1.18-16,.77-23.52,3.39-13,4.53-18,13-14.55,25.72,4,14.74,9,29,26,35.19A64.34,64.34,0,0,0,105.5,214.93Zm88.9,117.14c-3.91-.15-4.23,2.66-5.14,5-.69,1.8-1.63,3.66-4.19,2.48-2.25-1-3-2.78-1.69-5a32.82,32.82,0,0,1,2.05-3.16c2-2.67,4-5.3,6.06-7.94-6.45,2.66-13.27,3.37-19.54,5.59-8.81,3.13-16.46.51-24.17-3-5.1-2.32-10.07-4.95-15.3-7-4-1.55-8.15-3.2-13.39-3.63a22,22,0,0,1,2.74,9.27c.83,6.75.36,14.25,3.72,20C131.88,355.47,141,363.89,155,365a91.25,91.25,0,0,1,18.55,3.24c4.78,1.42,9.56.8,14.32-.53,7.65-2.14,14.59-5.75,21.68-9.11,3.24-1.54,3.51-3.26,2.51-6.22a68.77,68.77,0,0,1-3.64-23.74c.13-5.6,1.2-11.1,2.08-17.74-4.7,4.25-11,5.37-11.08,12,0,2.38-2.74,5.12,1.43,6.92,1.39.6,1,2.64.22,3.81a66.89,66.89,0,0,1-5.74,7.46,3.47,3.47,0,0,1-4.84.16c-1.51-1.24-.68-2.74.28-4.14C191.87,335.49,194,334.55,194.4,332.07ZM35.4,201.8c1.14-1.25.4-2.28.33-3.29-.51-7.85-4.37-15.06-4.73-22.93-.13-2.82-.45-5.37-3.23-7.3-1.54-1.07-2.28-3.9-.8-5,3.81-2.86,3.72-5.57,1.18-9-.83-1.11-.17-3.11-2.68-3.15s-3.35,1.11-4,3.12a44.13,44.13,0,0,0,1.39,32.7A36.14,36.14,0,0,0,35.4,201.8Zm237.81-32.58c-2.15,1.92-4.26,3.45-7,2.26-3.78-1.66-3.88.51-3.36,3,1,4.67.37,9.28-.71,13.76-1,4.08-.61,8-.62,12.88,5.34-5.19,9-10.2,11.2-16.11.55-1.48,2.07-3.68-1.68-3.83-2.08-.09-3.69-1.27-3.31-3.67.33-2.1.39-4.51,3.64-4.46C274.3,173.09,274,171.54,273.21,169.22ZM93.64,93.86c5.58-5.68,18.29-26.65,20.25-32.9C102,69.18,98.6,81.91,93.64,93.86ZM59.48,69.77c3.83.25,4,.38,5.16-.85,7.4-7.67,11.54-17.2,16.52-26.27C72.06,50.3,66.33,60.32,59.48,69.77ZM197.66,101a30.24,30.24,0,0,0-10.48-18.68c-1.15,5.94,1.69,10.65,2.87,15.59.76,3.18,3.76-.53,5.26,1.16A23.27,23.27,0,0,0,197.66,101ZM71.5,115.08c9-4,15.37-10,16.37-20A142,142,0,0,0,71.5,115.08Zm58.13-36.79c6,0,6.38.07,7.42-2.94,1.8-5.23,3.21-10.58,4.79-15.88C136.45,65.05,132.86,71.49,129.63,78.29Zm-3.95-43c-7.49,4.9-9.75,12-13.7,18.78C120.21,49.89,122.48,42.84,125.68,35.25ZM50.52,98.36c8.39-7.1,11.58-12.13,10.93-17.75C56.34,85.91,52.42,91.25,50.52,98.36ZM21.68,234.19c.41,8.93,4.76,17.46,10.29,20.76C28.29,247.53,25,240.86,21.68,234.19Zm155-186c1,6.27-.64,13.08,3.72,19.28C183.6,59.86,177.8,54.47,176.69,48.2ZM29.23,205.94c-.26,6.87,2.64,12.56,5.54,19.25C35.29,217.58,34,211.44,29.23,205.94ZM232.67,86.75c.16,6.25,3.26,11.76,4.77,17.67A22.84,22.84,0,0,0,232.67,86.75ZM111.05,102.13l-.78-1L95.89,112.59C102.66,111.17,107.12,107,111.05,102.13Zm-59,163.18c-3.5,7.94-3.18,8.85,3.46,10.74A49.15,49.15,0,0,0,52.05,265.31ZM154.45,49.82c2-3.19,4.44-6.11,5.29-9.81.17-.75.56-1.66-.24-2.14-1.09-.66-1.69.34-2.37,1C153.85,41.9,154.79,46,154.45,49.82ZM60.66,130.65c-8.28.44-6.08,7.44-8.67,11.3C55.05,138.48,58.45,135.27,60.66,130.65ZM255.69,94c-1.52-4.47.11-10-4.74-13.52C252.27,85.05,251.09,90.35,255.69,94ZM9.14,177.36c-2.13,5.32-.88,9.36-.33,13.4.1.76.25,1.71,1.31,1.55s1.44-.89,1.22-2.05C10.6,186.38,10,182.48,9.14,177.36Zm20-46.38c-3.35,2.62-3.51,6.4-4.74,9.76-.33.91.55,1.33,1.34,1.61,1.44.51,1.62-.52,1.78-1.43C28.12,137.61,28.63,134.29,29.17,131Zm58.44-11a28.2,28.2,0,0,0-12.93,11.84ZM199.15,34c-1,3.43,0,6.15.43,8.86A1.49,1.49,0,0,0,201.41,44c1.13-.17.88-1.11.74-1.81C201.67,39.68,202,37,199.15,34ZM166,72.2V58.86C163.33,63.37,165,67.78,166,72.2ZM28.36,107.63,23.23,118A11,11,0,0,0,28.36,107.63Zm217,9.62c-.86,3.33,1.74,5.16,3,7.54.38.74,1.15,1.76,2.19.83a1.47,1.47,0,0,0-.14-2.41A15.91,15.91,0,0,1,245.34,117.25ZM192.09,80.69c-.93-2.65-.18-5.71-1.16-9.43C187.27,75.47,190.38,78,192.09,80.69ZM13,155.86c3.35-6.05,3.35-6.05,0-8.28ZM28.5,204.15l-6.38-6.67C22,202.16,23.86,204,28.5,204.15ZM44.09,62.22c4.35-1.57,6.15-5.16,7.82-8.86ZM207.3,87.28c-.06,3.74,1,7.37,4.78,9.78Q209.68,92.17,207.3,87.28Z"/><path d="M204.47,391.32a12.4,12.4,0,0,1-9.63,11.73,8,8,0,0,1-8.48-3.27c-2.73-3.87-2.53-8.35-.5-12.43s6.08-6.06,10.32-6.7C201.12,379.9,204.59,384.77,204.47,391.32Z"/><path d="M158.53,390.05c.46,3.91.2,6.54-2.55,7.69-3.77,1.58-7.12,5.27-11.95,2.79-1.15-.59-6.27-10.31-6-11.47.95-4.49,6.06-9.54,10.13-10,4.59-.5,9.43,3.53,10.25,8.61A13.17,13.17,0,0,1,158.53,390.05Zm-5.81.2a7.86,7.86,0,0,0-2.91-6.59,1.14,1.14,0,0,0-1.67.34c-1.76,2.45-1.36,4.84.23,7.23.73,1.1.67,3.2,2.57,2.82S152.72,391.79,152.72,390.25Z"/><path d="M141.87,268c14.36-.95,28.72,0,43.07.07a81.76,81.76,0,0,1,13.32,1.38c2.53.45,4.86,1.84,5.16,4.84s-1.6,4.46-4,5.76c-5.84,3.12-11.63,6.28-17.75,8.9a16.85,16.85,0,0,1-7.51,1.29c-7.5-.26-14.78,1.41-22.14,2.33A18.35,18.35,0,0,1,136.88,288c-3.09-2.72-6.15-5.47-9.28-8.13-1.84-1.57-3.82-2.87-6.54-2.11a4.9,4.9,0,0,1-4.82-1.5c-1.09-1-2.82-1.89-2.34-3.79.53-2.07,2.51-1.79,4-1.82C126,270.41,133.75,267.73,141.87,268Zm13,17.38-14.54-1.73C145.42,288.9,150.2,286.79,154.89,285.41Z"/><path d="M169.67,254.78c-4.32.08-5.79-2.1-4.1-5.42a8.91,8.91,0,0,1,14.83-1.72c2.45,2.92,1.74,5.37-2.13,6C175.29,254.19,172.18,254,169.67,254.78Z"/><path d="M217.13,272.69c-.75,1.66-1.78,4.25-3.08,6.7a2.63,2.63,0,0,1-3.7,1.21c-1.62-.81-1.73-2.19-1-3.59,1.34-2.58,2.44-5-1.22-6.78a1.28,1.28,0,0,1,0-2.32c1.75-1.27,3.66-2.14,5.83-1.19S217.8,269,217.13,272.69Z"/><path d="M100.31,274.54c.15-6.15,2.7-9,6.24-7.62,2.46.93,3.61,2.46,1.28,4.4a5.05,5.05,0,0,0-1.79,4.93c.17,1.72.31,3.88-1.78,4.28-2.43.48-2.87-2-3.61-3.58A6.17,6.17,0,0,1,100.31,274.54Z"/><path d="M221.72,167.23c9-.31,16.61,3,24,7,3,1.61,3,4.1.08,5.68a64.41,64.41,0,0,1-22.28,7.38c-5.62.75-11.8-.93-17.42-3.1-4.13-1.59-8.1-3.61-12.84-3.49a4.16,4.16,0,0,1-4.46-3.52c-.5-3,2.15-2.8,3.69-3.29C202.07,170.78,211.5,166.87,221.72,167.23Zm1.94,5c1.61,1.93,2.72,3.25,3.81,4.58,2.25,2.75,7.64,2.83,10,.23,1.09-1.22.14-1.66-.71-2C232.74,173.55,228.78,171.79,223.66,172.24ZM201.58,177c2,1.71,4.59,2.26,7,3.11,4.95,1.76,5.11,1.56,4.86-3.37-.12-2.46-1-3.45-3.58-2.59S204.14,175.28,201.58,177Z"/><path d="M243.72,161.58c-.76,1.85-2.17,2.37-4.18,1.64a88.94,88.94,0,0,0-8.58-3,33.37,33.37,0,0,0-23.9,2.48,7.09,7.09,0,0,1-4.62.85c-1.83-.33-2.57-1.92-3-3.32-.38-1.21,1-1.77,2-2.25,12.84-6.11,25.69-6.16,38.54,0C241.53,158.69,243.69,160.84,243.72,161.58Z"/><path d="M103.73,171.85c10.37,0,20,2.5,29.52,5.62,2,.66,3.77,1.67,3.6,3.77-.16,1.84-2,2.64-3.8,3.11-.9.24-2.15.37-2.59,1-4.26,6-10.84,5.58-17,5.4-6.49-.2-12.68-2.28-18.55-5-2.76-1.28-5.48-2.55-8.68-2.7-2.5-.12-4.95-1.12-5.85-3.51-.76-2-2-5,1.9-5.38C89.52,173.47,96.57,171.17,103.73,171.85Zm11.4,6.32c2.8,2.22-.08,7,5.22,6.86,3.23-.07,4-4.36,7.68-4C124.06,179.67,120.34,178,115.13,178.17Zm-13.41,4.18c-1-1.71.44-4.32-1.5-4.83a8.41,8.41,0,0,0-7.49,1.38C96.12,179.64,97.86,182.33,101.72,182.35Z"/><path d="M136.32,166.4c.13.83.06,1.44-.6,1.78A3.37,3.37,0,0,1,132,168c-7.41-6.46-17-6.63-25.94-7.51-6.37-.62-13.42-.13-17.57,6.28-1.2,1.86-2.79,1.5-4.07.4-1.64-1.39-3.54-2.87-1.74-5.45,2.82-4,7.47-4.94,11.76-5.76,12.44-2.36,24.42-.11,35.9,4.75A11.78,11.78,0,0,1,136.32,166.4Z"/></g></g></svg>