<svg xmlns="http://www.w3.org/2000/svg" viewBox="0 0 342.46 408.96"><title>Asset 48</title><g id="Layer_2" data-name="Layer 2"><g id="Layer_3" data-name="Layer 3"><path d="M25.72,398.61c-7-2.52-13.64-3.29-19.35,2.14a3.08,3.08,0,0,1-4,.63C.57,400.26.33,398.31,0,396.47s1.29-2.24,2.66-2.71c2.44-.83,5-1.51,7.28-2.55s6.13-1.14,2.86-5.37c-1.4-1.81.82-3.08,2.79-3.12,10.32-.2,19.6-4.92,29.66-6.23,2.38-.3,4.87-.81,4.19-4.26-.34-1.76.88-2.9,2.69-3.32a83.65,83.65,0,0,1,9.43-2.09c11.16-1.24,19.06-8.72,28.55-13.16,5.25-2.46,8.16-5.83,10.88-10.5,4.15-7.11,10.2-7.4,14.24-1.21-6.52-1.33-7.58,4.26-10.13,7.53-1.84,2.36,1.33,8.51,5,11.32,4.53,3.5,10,4.09,15.47,4.73,18.78,2.22,37.54,4.57,56.54,3.29,7.06-.47,13.52-2.86,19.87-5.63,2.74-1.2,3-3.34,2.89-5.71-.43-.19-.77-.47-.94-.39-23.42,10.09-47.82,10.49-72.65,6.89-4.8-.7-8.4-4.62-13.54-4.42-1,0-1.56-1.3-1.49-2.17a9.52,9.52,0,0,0-1.52-6.19c-.37-.57-.52-1.94-.18-2.18,6.12-4.37,3.2-10.71,3.63-16.15a64.79,64.79,0,0,0-1.85-21.29c-2.29-8.82-7.52-16.35-12.38-24-4.46-7-9.06-13.94-13.73-20.82a18.45,18.45,0,0,0-4.71-5.26c-13.44-8.85-17.18-23.13-22.26-36.58-.92-2.44-1.24-3.65-4.31-3.26-4.6.59-7.37-2.53-8.84-6-3.45-8.19-9.8-14.57-14.18-22.14-5.48-9.46-8.85-19.28-4-30.09,1-2.32-1.86-9.21-4.27-10.19-2.66-1.08-3.57-2.62-3-5.45,2.8-14.76,6.2-29.44,7.57-44.42.16-1.68,2.11-2,2.47-3.28,2.46-8.6,8.16-15.73,11.6-23.87A20.36,20.36,0,0,0,47,73.6c-1.49-.91-1.86.52-2.32,1-1.18,1.22-2.2,1.57-3.75.61-1.82-1.12-1.68-2.45-.78-4,1.26-2.14,2.45-4.32,3.8-6.42C53.25,50.31,63.83,36.92,79.39,28A27.05,27.05,0,0,1,88.8,24.5,39.16,39.16,0,0,0,101.35,20c13.74-7.39,28.13-13.28,44.08-14.78,9.5-.89,18.51-4.44,28.09-5,19-1.11,37.62,2.19,56.26,5.26,12.24,2,22.73,6.72,31.49,15.15a20.92,20.92,0,0,0,5.52,3.74c6.89,3.25,11.85,8.36,14.08,15.21,2.29,7,7.36,11.91,12.2,17a19.28,19.28,0,0,1,4.83,7.95c2.07,7.33,3.94,14.71,5.8,22.09a10.56,10.56,0,0,1-.95,7.74c-2.31,3.91-1.7,7.89-1.26,11.79,1.38,12.13-.1,24-1.69,36-1,7.73-2.76,15.76.6,23.79,2,4.82-.35,10.07-1.69,15-2.77,10.15-9.89,17.57-17.5,24.44-3,2.72-5,7.51-10.74,6.77-1.74-.22-1.52,2.19-1.82,3.38-2.88,11.6-6.64,23-10.2,34.37-1.53,4.91-4.55,8.62-7.92,12.5a276.1,276.1,0,0,1-21.9,22.32c-6,5.51-8.83,13.28-12.76,20.21-5.24,9.24-8.42,19.08-8.2,29.77.05,2.46.08,4.8,3.31,5.21,7.25.9,12.16,4.67,14.21,11.32,1.18,3.8,3.61,4.54,7.2,4.62,3.2.07,6.78,0,9.53,1.25,12.9,6.05,26.75,5.41,40.43,5.82,10.95.33,21.24,3.85,31.92,5.43,2.23.33,4.49.44,6.71.81,5,.86,10.88-.08,13.43,6.23.52,1.3,3.13,2,4.92,2.59a4.08,4.08,0,0,1,3.1,3.68,3.24,3.24,0,0,1-2.55,3.47c-5,.26-8.78,2.94-13,5-2.36,1.13-5.72.37-8.63.36-22.44,0-44.88-1.62-67.3-.76-31.45,1.21-62.88,2.88-94.3,4.49-22.6,1.15-45.21,2.3-67.77,3.94-6.9.5-13.78,1.74-20.71,2.21-12,.82-24,2.3-35.85,4.07a149.6,149.6,0,0,0-16.92,3.9c-2.59.71-4.75,1.39-5.7-1.89-.85-2.89.41-4.15,3.41-4.73C17.36,400.93,21.52,399.68,25.72,398.61ZM194.53,138.5c-.25.62-.44,1.14-.67,1.65-1.74,3.85-6.61,7.68-8.87,6.49a27.38,27.38,0,0,1-7.93-5.83c-1.34-1.52-1.39-1.93-3.34-.76-4.89,3-9.82,2.27-14.41-1.42-.69-.55-1.39-1.93-2.3-1.09-5.49,5-9.14,1-12.94-2.5-3.58,7.45-12.26,5.08-17.58,9A.5.5,0,0,1,126,144c-2.41-3.44-7.06-1.63-9.82-3.74s-3.88-1-5.36,1.31c-2.75,4.3-5.28,4.33-8.52.35-.57-.69-.64-1.83-1.91-1.85a61.6,61.6,0,0,1-2.06,6.6,4.35,4.35,0,0,1-7.4,1.3c-3.64-3.89-5.08-3.82-8.82.4-4.42,5-10.15,6.1-16.7,3.11-1.24,3.69-2.63,7.32-7.95,5.21,0,3.33-.24,6.44,0,9.51,1,10.72,4.88,20.93,6.06,31.64.86,7.84,3.63,15.41,5,23.11,1.84,10.57,7.34,19.39,11.86,28.73a12.74,12.74,0,0,0,4.68,5.26c10.58,6.7,15.62,17.5,22,27.31,9.93,15.39,21.78,28.83,39.35,36.55,14,6.15,27.56,5.06,39.67-4.13,18.52-14.06,35.37-29.91,51.8-46.15,7.33-7.24,13.63-15.38,16.5-25.4q4.8-16.81,9.38-33.69c2.38-8.73,2.66-17.69,3.5-27-1.11.51-1.68.76-2.24,1-13.9,6.69-28.38,10.05-44,7.32-4.2-.73-7.34-3-10.29-5.71-1-.89-1.68-3.1-1.35-3.18,3.16-.74,3-4.6,6.08-5.46,2.61-.74,5-2.16,7.54-3.15,7.62-2.93,15-6.56,23.44-7.12,7.1-.46,12.26,3.27,16.22,7.88,1.58,1.84,2.24,4,5.38,4.21.62-3.77,1-7.63,1.94-11.39s-1.2-4.69-4.31-4.9a44.56,44.56,0,0,0-12,.79c-10.45,2.1-21.31,1.19-31.66,4a2.75,2.75,0,0,1-3.35-1.11,5.16,5.16,0,0,0-3.58-2.81c-1.2-.24-2.15-.92-2.18-2.18,0-1.45,1.36-1.53,2.36-1.9a89.33,89.33,0,0,1,24.44-5.54c9.44-.75,18.42,2.58,27.79,2.92,3.47.12,5-.28,5.72-3.48.35-1.57,1.24-3,.91-5.22a4.6,4.6,0,0,1-5.64,0c-2.83-1.8-2.08-4.9-2.81-8.25-3.67,4.65-9.18,0-12.85,3.53-.23.23-2-.44-2.47-1.08-2.54-3.4-4.54-4.93-9.22-1.82s-10.53,2.25-15-2.78c-.72,2.36-1.27,3.93-1.68,5.55-.34,1.36-1,2.52-2.56,2.25a33.93,33.93,0,0,0-18,1.36c-3.1,1.12-5.3-1.52-7-3.87C196,141.12,196.15,139.5,194.53,138.5Zm15.31,164.23-.59-.43c-3.45,2.9-6.85,5.87-10.38,8.69-6.93,5.55-13.83,11.12-22.57,14.09-14.53,4.95-27.54.42-40.41-5.54-5.36-2.48-9.24-6.81-14.42-10.77a108.55,108.55,0,0,1,1.67,37.74c-1.07,8.75,1.92,11.39,10.67,13.28,13.5,2.9,27,1.82,40.5.47,8.21-.82,16.33-2,23.75-5.87,4.14-2.15,6.65-4.56,5.26-9.88-2.43-9.34-1.73-18.85,1.07-28.07C205.81,311.76,208,307.29,209.84,302.73ZM61,215.67c-.73-3.31-1.41-6.17-2-9a82.16,82.16,0,0,1-1.59-9.17c-.18-2.28-1.27-3.06-3.38-3.71-7.44-2.32-9.46-10.38-3.55-15.64,3.52-3.14,3.48-5-.34-7.3-.75-.46-1.14-1.46-1.69-2.21-1.79-2.45-3.81-5.19-7.22-4.44-3.76.83-4.26,4.4-4.48,7.5a34.31,34.31,0,0,0,7.38,23.93A107,107,0,0,1,53.83,210C55.22,212.6,56.78,215.62,61,215.67Zm224-23.08c5.93-6,8.15-13.55,9.79-21.25.69-3.23,1.73-6.49-4.85-6.39-8.39.14-14.29,3-14.93,11-.53,6.46-1.91,12.83-2.07,19.28-.08,3.14-1.3,6.28-.46,9.52a7.94,7.94,0,0,0,5.25-2.51c1.52-1.37,5.16-2.77.23-4.77-1.89-.77-.34-2.34.28-3.56,1.25-2.44,4.87-4.9-.15-7.4-1.24-.61-.52-1.92.59-2.6,1.84-1.12,3.76-1.95,5.87-.65,1.9,1.19,2.18,3,1.71,4.94C285.93,189.66,285.45,191.12,285,192.59ZM225.19,88.18c.74,3.38-1.92,8,.89,9.69,3.61,2.13,2.7,4.39,2.65,6.93-.06,3.09-.53,6.17-.52,9.25,0,5.49-1.56,11.08.95,16.54a19.9,19.9,0,0,0,2-6.08c1.6-9.36.16-18.85,1.19-28.24C233,90.62,231.78,89.16,225.19,88.18Zm-12.61-3.54c-.69,2.41-1.71,3.88-4,3.48-2.68-.46-2.88,1.1-3.5,3.15-1.25,4.14.29,8.63-1.34,12.41-2.56,5.95-2.37,12-2.1,18.15,2.39-7.6,4.58-15.24,6.21-23a5.73,5.73,0,0,1,2.93-4.37C217.47,90.82,216.64,90.05,212.58,84.64ZM242.37,74c2.81-14-.89-27.12-5.11-40.21C238.32,47.28,237.63,61,242.37,74ZM220,19.8c.78,3.05-.93,6.1,3.81,6.6,2.28.24,2.9,2.33,3.09,4.61.6,7.5,1.49,15,2.29,22.47.11,1.1-.51,2.75,1.66,2.6s1.77-1.46,1.54-3c-1.12-7.65-2.4-15.3-3-23C229,24.44,225.49,22.09,220,19.8Zm-2.49,80.67c-5.78,11.17-2.74,23-3.27,34.64C219.49,123.94,217.32,112.1,217.5,100.47Zm34-21.55c-.76,4.11-2,7.89-.36,9.63,3.24,3.44,2.12,7.11,2.49,10.74s-.06,7.49,1.35,11.39C258.74,104.1,257.63,93.66,251.48,78.92Zm-125.27,34.4c1.62-.44,1.55-1.13,1.64-1.71q2.11-14.44,4.2-28.9a6.75,6.75,0,0,0,.13-1.84c-.23-1.54-1.7-2.18-2.74-3.09a1.15,1.15,0,0,0-1.66.41c-.79,1.3-1,2.65.24,3.81s1,2.78.67,4.33C127,95.17,127,104.14,126.21,113.32Zm33.36-35.65c-1.82,2.36-1.44,6.42-4.41,7.34-3.42,1.06-3.81,3.58-4.39,5.89-.5,2-2.84,5,.08,6,1.63.54,1.43-3.11,1.87-4.93,0-.15,0-.31.08-.46a3,3,0,0,1,3.62-2.3c1.91.3,3.17,1.62,2.49,3.67-.43,1.31-.84,2.5,0,3.83C161.8,88.56,162.1,80.82,159.57,77.67Zm53.77,103.66c4.35,3.93,9,5.3,13.8,4.45,2.59-.46.52-3.8,1.37-5.69.36-.8,1.17-1.78.3-2.55s-2.14-.07-3.12.31C221.91,179.32,218.55,182,213.34,181.33Zm-12.78-114h1.67q-1.53-17-3-33.92l-1.35.11C196.19,45,199.84,56.08,200.56,67.37Zm-5.28-47.79a1.92,1.92,0,0,0-1.13-2.28c-5.68-3-11.87-4.59-18-6.26-1.11-.31-1.8.46-2.15,1.4a2.59,2.59,0,0,0,.5,2.61c.78,1,1.58.82,2.44.11,2-1.63,3.84-.58,5.86.06,3.86,1.22,6.16,5,10.56,5.53C195,21,195.15,20.82,195.28,19.58Zm82.56,142.86c7.28-6.1,4.67-15,6.77-22.54C281.13,147.07,279.38,154.73,277.84,162.44ZM136.45,40.56c2.7-4,7.22-7,7.72-12.33.11-1.15,1.14-2.73-.44-3.24a2.88,2.88,0,0,0-3.61,2.26C139.15,31.73,136.56,35.75,136.45,40.56ZM261.89,179c-2.22-1.64-4.41-2.11-5.56-4.34-.95-1.83-3.27-2.59-6.09-2.64,1.16,2.08,2.72,3.6,2.5,5.67-.51,4.85,2,4.48,5.29,2.9C259.16,180,260.36,179.62,261.89,179ZM137.32,57.23c-1.3,5.82-8.53,10.46-3.91,18.84C135.58,69.09,137.46,63.39,137.32,57.23Zm72.47,289.61c3.67,2.07,6.25,4,1.14,7.23-1.19.75-.89,2.56-.23,3.88a1.25,1.25,0,0,0,2,.34c1.87-1.6,5.27-1.85,5.79-4.44.47-2.35-2.29-3.5-3.88-4.89C213.44,347.9,212.11,346.7,209.79,346.84ZM81.72,50.2c-10.26-.74-12.52,1-11.57,8.21ZM248.29,21.53c-1,3-.52,5.66.07,8.32.42,1.92,1.94,2.34,3.67,2.15s1.61-1.65,1.58-2.85C253.51,25.64,251.67,23.25,248.29,21.53ZM151.54,11c6.13,3.32,11,.42,16-.31C162.54,8.19,157.55,8.53,151.54,11ZM142.48,73.1c-.91,4.68-1.59,8.26-2.32,11.82-.22,1.07,0,1.94,1.17,2.16a1.79,1.79,0,0,0,2.3-1.14C145,82,145.92,78.07,142.48,73.1Zm96.88,51.74c5-6.75.58-12.76.17-18.77C238,112.08,238.52,118.09,239.36,124.84Zm27.17-95c.64,3.83,3,6.42,4.2,9.47.57,1.47,2.18,1,3.39.81a1.11,1.11,0,0,0,.8-1.77C273.1,34.89,271.43,31.24,266.53,29.85ZM140.12,121.08c4.17-4.81,3.08-10.7,4-16.15.11-.65-.67-1-1.35-1-1.11.06-1.1,1-1.17,1.7C141.1,110.79,140.61,115.93,140.12,121.08Zm25-101.46c-6.26,4.93-2.3,10.16-2.3,15C165,30,165.49,25.23,165.09,19.62ZM152.3,124.08c-1.49,2.61-1.25,5-3.09,6.82-1.67,1.64-.08,3.38,1.31,4.22,2.23,1.34,2.44-1,3.17-2.16C155.57,129.91,153.3,127.5,152.3,124.08ZM42.45,148c-1.3,3.47-1.09,6.38-1.09,9.2,0,2.16,2.1,2.5,3.87,2.54,1.3,0,1.51-1.2,1.19-2.05C45.27,154.66,43.94,151.65,42.45,148Zm189-83.83c-.38,7.13,1.17,14,2.91,20.85C235,77.9,233,71.08,231.44,64.21ZM77.17,43.41c2.32.24,4.22.64,6.13.74s2.25-1.51,3-2.66.06-1.66-.76-2.3a2.77,2.77,0,0,0-3.89.21C80.13,40.71,78.66,42.07,77.17,43.41ZM175,104.59c-3.92,4.08-4.7,10.76-1.84,16.48C173.78,115.25,174.33,110.3,175,104.59Zm-69.71,33.15h1.45q-.84-8.86-1.69-17.71C103,126.09,103.45,132,105.26,137.74ZM94.51,112.61c-.46,4.8-.86,9.09-1.33,14.09C97.8,121.05,98.16,117.22,94.51,112.61ZM77.65,89.73l-1.18-.2-2.85,17.18,1.23.2C78,101.56,76.22,95.38,77.65,89.73Zm-17,17.37c-2.23,2.54-1.82,6.16-4.82,8.13-.94.61-1.89,1.24-1.55,2.57s1.39,1.06,2.31,1.06c1.45,0,2.43-.58,2.64-2.11C59.7,113.53,60.19,110.32,60.67,107.1Zm0-45.7c2.69-1.34,5.76,1,6.86-2,.43-1.15-.07-4.62-2-4.48C62.66,55.15,61.81,58.13,60.66,61.4ZM206,128.86c-2.56,3.84-.67,8.37-4.22,11.14-.55.43,0,1.17.52,1.51a1.17,1.17,0,0,0,1.65-.42C206.17,137.53,208,133.89,206,128.86ZM243.44,14.25c-2.64-.77-5.29-2.31-7.22.07-1.1,1.35.55,2.42,1.78,3.23C242.36,20.45,240.57,13.72,243.44,14.25ZM91.66,71.52q-2.41,8.4-4.82,16.8C90.53,83.2,91.75,77.52,91.66,71.52ZM210.08,370.57c-4.26-5.38-7.54-1.88-10.92,0ZM275.18,95.2c-.61,5.26-1.52,10.52-.67,17.1C276.33,105.77,275.16,100.47,275.18,95.2ZM222.54,69.47c2.81-6.51-.65-11.21-.74-16.18C221.7,58.26,220.69,63.29,222.54,69.47Zm-140.07,5c-2.94,2.87-3,6.53-4.4,9.75-.35.83-.89,2.05.29,2.39s2.06-.37,2.28-1.77C81.18,81.37,81.85,77.92,82.47,74.46Zm166.35,47.16c-.86,3.71-2,7.44,1.6,11.71C251.15,128.65,251,125,248.82,121.62Zm-77-71.9c-.73,4.4-2.22,8.8-1.16,13.38C172.55,58.79,172.33,54.29,171.8,49.72ZM123.29,20c.23.31.46.63.68.95a38.09,38.09,0,0,0,4.62-2c1.07-.63,2.13-1.77,1.1-3s-2.1-.18-2.87.48C125.55,17.52,124.46,18.82,123.29,20ZM186,127.23c-.88,4.3-1.47,7.14-2,10-.15.74-.26,1.65.77,1.85s1.28-.69,1.35-1.44A32.2,32.2,0,0,0,186,127.23ZM249.9,55.75c.64-2.13,7-5,0-6.75Z"/><path d="M160.45,284.37c-10.08.33-17.08-4.89-23.31-11.58-1.28-1.39-1.81-2.82-.79-4.63,1.65-2.92.06-3.88-2.76-3.78-2.11.07-4.19.27-6.17-.72a2.65,2.65,0,0,1-1.73-2.57c.1-1.46,1.39-1.51,2.54-1.51,9.94-.05,19.38-3,29-4.75,4.18-.75,7.74-.81,11.32,1.88s7.76,3,12.3,1.29c10.76-4,22.3-2.91,33.5-4.05a2,2,0,0,1,.48.05c1.41.16,3.15,1.16,2.82,2.06-1.73,4.66,5.89,8.22,1.79,12.67-4.63,5-11.25,7.12-17.68,9.15C188.37,282.12,174.37,283.13,160.45,284.37Zm51-24.43c-6.08,0-11.23-.47-16.24.14-4,.49-9-.5-11.36,4.47-.68,1.41-2.85,1.31-4,.64-3.13-1.88-7-1.44-10.06-3-8.05-4-16-1.43-24.06-.2-.88.13-1.9.37-2.16,1.54-.31,1.38.6,2,1.6,2.54,3.61,1.86,7.57,2.56,11.56,3.16,15.78,2.34,30.76-1.48,45.7-5.51C205.27,263,208.37,262.7,211.43,259.94Zm0,7.47c-22.33,5.56-44.57,11.65-68.09,3.37.58,3.26,2.53,4.62,4.51,5.87a19.45,19.45,0,0,0,12,2.86,229,229,0,0,0,30.68-4.08A62.38,62.38,0,0,0,211.48,267.41Z"/><path d="M116.31,197.64c-7.7-.22-13.46-3.45-19.14-6.65-2.16-1.22-3.72-2.91-6.61-3.32-3.43-.5-3.88-4.56-5.23-7.06-.73-1.36,2.63-2.52,4.57-3.33,7.35-3.06,15.22-4,23-5,1.76-.23,3.73.72,5.57,1.24,6,1.71,12,3.42,18,5.25,2,.62,4.63,1.74,3.7,4-1,2.56-3.91,1.67-5.94.77a32.85,32.85,0,0,0-6.83-2.29c-2-.4-3-.95-2.79,2.22.36,4.53,1.58,5.78,6.32,4.62,3.41-.83,7-.88,10.19-2.64,2-1.1,4.33-.93,5,.93.56,1.52-.82,3.41-2.91,4.24a47.06,47.06,0,0,1-11.75,2.64c-4.17.53-8.32.75-11.81,3.54C118.71,197.63,116.94,197.5,116.31,197.64Zm-15.92-10.4c1-2.77,1.75-5,2.77-7.88a34,34,0,0,0-9.62,3.39C96.51,183.69,98.17,185.37,100.39,187.24Z"/><path d="M141.67,164.3c-.1,1.52-8.4,6.25-9.5,5.41-7.71-5.89-16.13-3.49-24.5-2.16-8.91,1.41-17.85,2.59-26.87,3.16-2,.13-4,0-4.91-2.09s.37-3.17,2.49-3.49c.15,0,.42-.14.42-.19-.89-6.31,4.8-4.75,7.94-5.81a28.85,28.85,0,0,1,11.94-1.22c7.53.7,15.11,2,22.61,1.69,5.61-.2,10.82.74,16.16,1.67C139.55,161.64,141,162.45,141.67,164.3Z"/><path d="M144,248c-6.81,0-10.12-2.63-10.77-7.44a9.82,9.82,0,0,1,7.57-10.92,4,4,0,0,1,4.64,2.38c1.06,2.22-1.68,1.87-2.64,2.23-4,1.53-3.47,4.72-3.33,7.7a2.24,2.24,0,0,0,2.27,2.07c1.51,0,.82-1.3,1.08-2.09,1.4-4.37,5.74-4.37,9.23-5.31a7.15,7.15,0,0,1,8.29,3.35,2.87,2.87,0,0,1-2,4.4C152.92,244.89,148,247.17,144,248Z"/><path d="M210.28,237.83c.11,7.55-3.84,10.15-10,7.8-1.6-.61-2.79.34-4.07.71-3.13.91-6.18,1.74-9.47.67-1.89-.62-3.17-1.75-3.2-3.64a4.12,4.12,0,0,1,3.17-4.21c4.08-1.13,8-.85,11.32,2.06,1.35,1.17,2.45,4.18,4.82,1.56,1.95-2.15,3.08-4.71.11-7.28-1.84-1.59-3.73-3.58,0-5.31a2.94,2.94,0,0,1,3.5.72A11.27,11.27,0,0,1,210.28,237.83Z"/></g></g></svg>