<svg xmlns="http://www.w3.org/2000/svg" viewBox="0 0 318.06 426.77"><defs><style>.cls-1{fill:#1d1d1b;}</style></defs><title>Asset 1</title><g id="Layer_2" data-name="Layer 2"><g id="Layer_1-2" data-name="Layer 1"><path class="cls-1" d="M164.09,271c-5.51-2.48-11.81-4.09-17.9-3.58a24.83,24.83,0,0,0-8.5,2.37c-3.84-4.5-8.87-7.83-15.2-7.51-8.12.41-15.36,6.63-18.48,13.87-3.27,7.59-3,16.32.78,22.72a21.35,21.35,0,0,0-2.36,9.18c-.46,9.29,5.88,16.93,14.08,20.49,7.62,3.3,17.35,4.14,24.79-.22a18.33,18.33,0,0,0,7.85-9.41c11.88-.3,26.06-9.73,29.41-19.84C182.56,287,175,275.89,164.09,271Z"/><path class="cls-1" d="M220,173.91c-6-5.9-13.64-9.74-21.55-12.83,8.9-7.07,15.67-15.67,17.69-28.39,2.38-15-1.33-34.52-12.6-45.53C194.16,78,180.1,75.77,168,80.38a42.17,42.17,0,0,0-16.59,11.39,47.78,47.78,0,0,0-6.35,9.55c-3.24-6-6.9-11.79-13.15-15.11-9.12-4.86-21.9-4.57-30.83.56-16.85,9.67-15.62,26.85-9.39,42.13a17.62,17.62,0,0,0-12.55,4.86c-6.58,6.21-9.56,17.19-7.32,25.9s9.3,15.28,17.66,19a31.61,31.61,0,0,0-5.56,8.91c-4.11,10.09-1.53,22.12,5.44,30.35,8.61,10.14,20.55,9.78,30.13,4,.1.4.18.8.31,1.19a37.43,37.43,0,0,0,5.83,11c4.92,6.52,13.35,12.92,21.91,13.09,9.14.17,15.28-7.19,19.32-14.55a44.27,44.27,0,0,0,4.6-14,44.66,44.66,0,0,0,6,2.92c7.08,2.8,14.6,4.91,22.28,4.06,11.44-1.27,22.35-8.67,26-19.82C229.21,195.33,228.25,182,220,173.91Zm-71.92-11.47c-4.57,2.43-11.42.43-13.91-4.05-2.76-4.94.57-11.55,5.93-12.6a9.71,9.71,0,0,1,10.52,1.88C155.14,151.88,153.31,159.68,148.11,162.44Z"/><path class="cls-1" d="M225.48,331.06l.42-.1c8.13-2.48,6.16-14.89-2.56-13.25-.44.09-.89.2-1.34.31s-.85.13-1.26.17c-.08-3.52-.33-7.48-1.87-10.45-2.87-5.5-9.92-5.92-14.09-1.81-3.95,3.89-4.76,9.66-3.19,14.78.38,1.26.9,2.47,1.32,3.72a14.83,14.83,0,0,0-2.12.9c-9.55,4.9-6.56,15.33,1.48,19.73,6.6,3.61,17.45,6.78,23.8,1.11C231,341.77,229,335.52,225.48,331.06Z"/><path class="cls-1" d="M317.64,351.69c-1-15.64-4-32.11-5.7-46.9-2.95-25.72-2.39-51.91-2.29-77.75.05-13.37,1.36-26.69,1.46-40.06.11-13-2.24-24.83-5.07-37.4-6.12-27.32-4.09-55.64-7.26-83.32-2-17.21-3.92-38.35-18.53-50-7.62-6.06-16.75-8.16-26.19-9.55C240.86,4.8,227.62,3,214.33,1.8A360.1,360.1,0,0,0,173.84.05c-13.54.26-27,1.89-40.5,2.83-13.87,1-27.78,1.87-41.68,2.32C80,5.57,68.54,3.31,57,2.13,46.35,1.05,35.25.79,25,4.47A9.77,9.77,0,0,0,21.36,6.8a32.83,32.83,0,0,0-9.87,5.71C3.33,19.49.27,30.16,0,40.57c-.27,11.06,2.6,21.86,4,32.76C5.56,86,5.59,98.93,6.45,111.63c3.9,57.23,2.69,114.21,2.24,171.51-.26,32.94-2.53,68.67,8.45,100.27,5.08,14.62,13.61,28.73,27.57,36.35a56.8,56.8,0,0,0,23.2,6.4c14.43,1.13,29,.48,43.45-.37,28.3-1.66,56.31-3.32,84.67-3.45,11.85,0,23.68-.69,35.52-.43,10.83.23,21.67.71,32.49.07,17.85-1.06,37.1-5,46.4-21.9C318.38,385.62,318.64,367.73,317.64,351.69Zm-18.4,14.68c-.31,11.19-2,26.1-11.91,31.72-7.39,4.18-16.85,4.86-25.14,5.27-9.92.47-19.85.07-29.76-.16-24.15-.54-48.65-.08-72.79.81-26.2,1-52.29,4.27-78.54,3.93-14.62-.19-28.11-1.24-37.55-13.43C35.16,383.69,31.87,369.28,29.84,356c-2.17-14.2-2.45-28.69-2.51-43-.18-48.3,1.81-96.6.7-144.89-.59-26.05-2.71-52-4.26-78A314.43,314.43,0,0,0,20.3,57.57c-1.38-8.46-3.51-19.22.57-27.25C24.58,23,34.11,22.38,41.33,21.8a9.53,9.53,0,0,0,5.18-2c14.94-.12,30.54,4.55,45.15,4.08,25.56-.83,51-3.94,76.49-5,24.84-1,49.78,1.45,74.36,4.91,8.42,1.19,18.8,1.41,25.87,6.78,4.57,3.47,6.59,9.19,8,14.66,5.65,21.77,5.3,44.76,6.5,67.06a270.69,270.69,0,0,0,4.37,38.74c2.45,12.23,5.22,23.3,5.13,35.89-.08,11.87-1.27,23.7-1.44,35.56-.18,13-.12,26.08.08,39.11a458,458,0,0,0,4.25,58.4C297.49,335.38,299.66,350.85,299.24,366.37Z"/></g></g></svg>