<svg width="405" height="433" viewBox="0 0 405 433" fill="none" xmlns="http://www.w3.org/2000/svg">
<g clip-path="url(#clip0_350_153)">
<path d="M137.011 280.863C135.165 282.087 133.883 281.206 132.452 280.051C127.956 276.476 123.767 272.701 121.054 267.605C118.712 263.212 119.06 260.679 122.833 257.253C123.437 256.681 124.155 256.292 123.613 255.274C121.043 250.395 121.288 244.978 120.815 239.774C120.245 233.265 119.556 226.739 119.772 220.173C119.812 218.897 120.108 218.411 121.146 218.617C122.747 218.937 123.237 218.291 123.585 216.941C124.337 213.864 126.366 211.159 126.514 207.87C126.646 206.717 127.072 205.618 127.751 204.678C133.928 195.224 141.069 186.828 151.327 180.885C156.012 178.162 160.97 176.664 165.916 174.954C169.045 173.873 171.547 172.054 174.271 170.447C175.485 169.732 176.551 169.194 178.009 170.315C179.252 171.27 182.728 169.978 183.583 168.262C184.438 166.546 185.657 166.14 187.156 166.855C191.915 169.143 197.152 168.834 202.179 169.657C206.855 170.394 211.338 172.058 215.366 174.553C219.788 177.293 224.33 179.924 228.958 182.309C235.523 185.689 239.786 190.997 243.558 196.797C246.408 201.235 249.941 205.29 252.056 210.232C253.205 212.923 254.191 215.681 255.008 218.491C255.577 220.356 255.657 222.289 257.35 223.685C257.557 223.912 257.7 224.191 257.766 224.492C257.832 224.793 257.818 225.106 257.726 225.4C257.615 226.342 257.7 227.296 257.977 228.203C260.165 237.326 258.621 246.357 257.327 255.4C256.871 258.551 256.455 261.645 256.757 264.888C257.116 268.892 254.888 272.106 251.753 274.446C250.106 275.681 248.727 277.203 246.944 278.284C244.915 279.513 244.202 281.584 243.98 283.746C243.085 292.577 240.589 301.036 237.66 309.392C236.82 311.867 235.252 314.029 233.164 315.592C229.91 318.063 226.741 320.648 223.698 323.359C221.589 325.235 221.88 328.084 221.367 330.52C220.37 335.25 220.409 339.981 222.415 344.573C222.985 345.843 223.282 346.449 224.667 345.323C226.308 343.984 224.564 346.798 224.923 348.474C227.203 350.28 229.967 350.848 233.186 350.013C233.554 349.957 233.929 349.985 234.284 350.095C234.64 350.205 234.966 350.394 235.238 350.648C244.031 357.059 254.398 359.862 264.833 362.31C271.671 363.911 278.008 366.17 283.394 370.592C284.91 371.833 286.813 372.308 288.523 373.125C291.087 374.349 292.826 375.602 293.327 378.782C294.153 383.981 296.541 388.843 297.704 394.048C299.921 403.965 302.713 413.769 305.323 423.601C305.836 425.522 305.101 426.295 303.203 426.266C296.758 426.169 290.318 425.98 283.884 425.511C261.202 423.852 238.521 422.268 215.725 423.383C204.111 423.955 192.502 423.755 180.893 423.572C170.538 423.412 160.303 424.716 150.039 425.637C140.966 426.432 131.917 427.501 122.878 428.6C114.586 429.606 106.351 428.6 98.0479 428.634C94.4234 428.634 90.7647 427.827 87.1345 429.149C85.459 429.766 82.7691 427.759 82.4101 426.003C82.3246 425.602 82.3417 424.859 82.4956 424.79C85.345 423.921 84.6383 421.387 85.0886 419.5C86.6786 412.859 90.0865 406.957 93.1297 400.923C95.1472 396.919 97.0107 392.824 97.8142 388.54C99.3587 380.366 104.083 375.688 112.386 373.949C118.781 372.605 123.784 368.716 128.913 365.141C132.174 362.772 135.913 361.152 139.867 360.394C144.808 359.501 148.882 356.733 153.293 354.605C158.132 352.283 162.184 347.673 168.418 348.474C169.324 348.594 169.461 347.902 169.655 347.33C171.573 341.491 172.133 335.289 171.29 329.199C171.131 327.964 170.458 326.339 169.472 325.722C164.537 322.564 160.782 317.857 155.596 315.215C148.5 311.594 145.047 305.612 142.351 298.903C140.055 293.114 138.693 287.052 137.011 280.863ZM245.359 359.684C244.972 360.628 245.929 361.732 244.664 362.207C243.655 362.584 242.914 361.995 242.185 361.417C241.456 360.84 240.407 359.467 239.78 359.89C237.626 361.326 223.506 350.432 221.768 352.943C219.124 356.77 219.463 324.96 218.745 315.215C214.788 319.906 216.072 307.481 211.639 311.722C208.613 315.331 209.878 312.505 210.761 313.575C211.257 314.175 212.744 314.513 211.422 315.531C211.006 315.837 210.495 315.985 209.981 315.948C209.466 315.912 208.981 315.693 208.613 315.331C206.282 313.243 186.55 310.054 184.163 308.155C177.549 302.916 180.453 322.213 174.664 329.016C174.909 333.151 175.421 355.226 171.29 350.273C170.037 348.769 164.865 355.976 164.318 353.711C162.506 352.55 160.086 355.097 159.437 355.543C154.35 359.164 148.536 361.625 142.403 362.756C138.487 363.431 135.154 365.147 131.865 367.177C128.395 369.316 125.106 371.696 121.539 373.72C117.641 375.945 113.224 376.454 109.206 378.17C106.494 379.314 104.3 380.99 103.359 383.775C100.073 393.376 96.1349 402.74 91.5739 411.801C89.9212 415.141 88.6219 418.693 88.6276 422.537C88.6276 424.67 89.2488 425.78 91.8019 425.631C94.7254 425.459 97.6718 425.751 100.612 425.791C106.232 425.877 111.873 426.249 117.47 425.917C128.577 425.254 139.513 423.006 150.643 422.274C160.098 421.656 169.507 420.289 179.012 420.483C190.154 420.718 201.312 421.164 212.425 420.483C234.48 419.099 256.432 420.638 278.419 421.822C285.257 422.188 292.125 423.458 299.049 422.199C300.833 421.879 301.021 421.376 300.758 419.786C298.701 407.717 294.632 396.112 291.937 384.193C290.871 379.486 288.967 375.259 283.354 373.989C282.763 373.743 282.233 373.368 281.804 372.891C277.791 369.384 272.941 366.98 267.728 365.913C260.142 364.386 252.819 362.121 245.359 359.684ZM210.966 229.85C210.545 231.503 210.282 232.71 209.94 233.854C208.715 238.092 205.997 241.604 203.672 245.253C202.144 247.627 199.682 243.394 197.716 245.459C197.281 245.214 196.894 244.89 196.577 244.504C196.138 243.806 196.77 243.171 196.93 242.502C197.112 241.741 197.933 241.106 197.568 240.254C196.366 237.394 195.118 234.609 193.761 231.503C192.538 234.209 191.117 236.82 189.51 239.316C187.47 242.616 183.811 244.624 182.21 248.279C181.674 249.497 180.266 249.566 179.713 247.821C178.574 244.195 177.764 240.5 174.584 237.709C172.96 236.296 172.818 233.745 171.798 231.692C171.507 235.833 169.216 239.305 168.11 243.131C167.637 244.755 167.05 244.784 165.928 244.081C161.249 241.175 157.134 237.709 154.194 233.065C153.624 232.201 154.091 230.691 152.393 230.371C152.231 234.648 152.686 238.927 153.743 243.074C153.988 244.086 154.587 245.362 153.743 246.122C152.655 247.078 151.43 245.962 150.495 245.476C145.565 242.914 142.716 238.613 140.528 233.831C140.066 232.813 139.827 231.6 138.715 230.777C138.334 236.045 137.963 241.072 139.929 245.911C140.288 246.792 140.778 247.855 139.513 248.479C138.248 249.102 137.524 248.164 136.738 247.386C134.812 245.482 133.843 242.811 131.199 241.095C131.58 242.422 131.956 243.497 132.196 244.595C134.475 255.096 136.544 265.632 138.972 276.099C140.978 284.758 143.263 293.372 146.865 301.579C148.7 305.749 151.173 309.547 155.174 312.052C157.22 313.339 159.459 314.454 161.146 316.09C167.011 321.758 172.778 324.738 179.965 328.462C186.98 332.093 195.687 334.427 203.313 331.109C207.245 329.394 211.422 328.25 215.109 325.922C218.609 323.743 221.127 320.431 224.923 318.549C227.077 317.474 228.713 315.472 230.685 314.019C232.32 312.75 233.561 311.04 234.263 309.089C238.703 298.331 240.84 287.046 241.33 275.595C241.701 267.016 242.795 258.517 243.456 249.995C243.86 244.773 242.436 240.775 239.991 236.634C239.78 236.268 239.763 235.696 239.142 235.827C238.623 235.936 238.526 236.433 238.452 236.874C238.333 237.629 238.669 238.767 237.626 238.916C234.121 239.413 233.79 242.513 232.092 244.635C232.919 244.818 233.551 244.944 234.172 245.099C235.42 245.402 237.204 245.671 236.862 247.158C236.52 248.645 234.925 247.73 233.79 247.587C227.43 246.637 221.145 246.265 215.423 249.972C214.659 250.464 213.839 250.544 213.234 249.72C212.727 249.045 212.91 248.393 213.462 247.787C214.117 247.018 214.987 246.464 215.959 246.197C219.418 245.293 222.831 244.166 226.513 244.401C227.163 244.441 228.029 244.693 228.183 243.583C228.793 239.173 227.704 234.912 226.986 230.622C226.973 230.416 226.917 230.215 226.821 230.033C226.726 229.85 226.594 229.689 226.432 229.561C226.271 229.432 226.085 229.339 225.886 229.288C225.687 229.236 225.479 229.227 225.276 229.261C224.256 229.353 223.436 229.833 223.225 230.777C222.205 235.129 219.11 238.161 216.152 241.272C215.013 242.479 213.616 242.062 213.035 240.483C212.67 239.499 212.915 238.533 213.069 237.589C213.445 234.912 212.756 232.533 210.978 229.856L210.966 229.85ZM218.745 327.123C199.021 336.72 189.256 337.441 174.664 329.016C173.918 330.44 174.938 331.762 174.909 333.151C174.763 341.395 173.815 337.051 170.453 344.575C169.604 346.468 171.033 343.759 172.771 345.515C175.503 348.296 171.527 299.647 174.909 301.579C180.143 304.509 189.953 299.584 194.793 303.131C198.058 305.573 201.062 308.33 204.931 309.994C206.641 310.727 207.912 310.566 209.336 309.154C217.047 301.598 200.394 329.542 206.97 321.072C208.338 319.31 214.112 324.004 211.639 322.809C210.525 322.199 215.083 321.789 214.499 320.658C213.667 319.102 225.966 351.357 223.652 351.54C222.455 351.637 222.085 350.196 221.555 349.281C217.583 342.366 216.477 335.113 218.745 327.123ZM135.216 273.862C134.886 276.448 133.945 276.722 131.797 275.361C128.549 273.256 127.477 269.973 126.793 266.507C126.542 265.237 126.491 263.945 127.973 263.304C129.609 262.6 130.822 263.556 131.882 264.545C132.135 264.742 132.313 265.02 132.384 265.333C132.456 265.645 132.418 265.973 132.276 266.261C131.894 266.976 131.387 266.524 130.902 266.261C130.19 265.872 129.762 266.261 129.865 266.896C130.298 269.184 130.76 271.472 132.902 272.936C133.349 273.237 133.893 273.356 134.424 273.267C135.119 273.073 134.829 272.387 134.738 271.889C134.168 268.657 133.643 265.415 132.971 262.2C132.338 259.163 127.842 257.682 125.226 259.581C124.04 260.41 123.221 261.669 122.943 263.093C122.664 264.516 122.947 265.993 123.733 267.21C125.958 270.824 128.79 274.023 132.105 276.665C133.085 277.443 134.35 278.724 135.444 277.895C136.436 277.157 135.581 275.607 135.216 273.862ZM249.195 272.095C252.135 270.299 253.389 267.891 253.326 265.071C253.286 263.304 253.56 260.833 251.885 259.924C250.095 258.951 248.368 260.713 246.824 261.794C245.382 262.795 244.544 263.636 247.183 264.082C248.146 264.248 248.591 265.123 249.046 265.912C250.124 267.817 249.616 269.801 249.178 272.095H249.195ZM209.872 191.678L209.114 191.775C209.604 194.801 209.274 198.318 210.824 200.692C211.99 202.372 212.529 204.412 212.345 206.451C212.237 208.739 212.157 211.027 212.078 213.349C212.078 213.83 211.776 214.493 212.682 214.493C213.326 214.493 214.015 214.373 214.078 213.532C214.115 213.091 214.115 212.647 214.078 212.205C213.827 209.306 213.354 206.423 213.508 203.494C213.764 199.148 212.055 195.327 209.878 191.678H209.872ZM180.961 182.561C182.626 180.708 181.987 178.557 182.158 176.567C182.192 176.201 181.816 175.995 181.412 175.955C179.628 175.812 177.343 175.92 176.539 177.099C174.829 179.632 174.037 182.675 173.547 185.724C175.2 183.665 175.548 181.011 177.172 178.969C177.593 178.437 177.742 177.505 178.693 177.745C179.48 177.934 179.833 178.563 180.329 179.243C181.093 180.319 179.822 181.503 180.961 182.561ZM222.877 199.21C222.769 196.505 223.099 193.794 223.031 191.083C222.985 189.327 222.78 187.525 221.259 186.244C220.985 186.013 220.635 185.895 220.278 185.912C219.891 185.97 219.834 186.336 219.908 186.742C220.643 190.906 220.854 195.201 222.871 199.188L222.877 199.21ZM162.691 205.96C161.027 208.819 160.554 212.028 159.545 215.111C159.351 215.683 159.499 216.564 158.724 216.627C154.444 216.975 157.157 219.366 156.901 220.928C162.269 217.078 161.551 211.21 162.691 205.96ZM200.235 198.524C198.89 202.133 199.204 205.165 199.665 208.247C199.814 209.22 200.235 209.723 201.255 209.597C202.275 209.471 202.065 208.585 202.15 207.927C202.583 204.793 201.272 202.007 200.235 198.518V198.524ZM246.966 244.138C246.761 248.233 246.545 252.328 246.362 256.423C246.362 256.881 246.226 257.619 247.103 257.476C247.241 257.47 247.376 257.435 247.5 257.374C247.624 257.312 247.734 257.225 247.822 257.118C247.91 257.012 247.975 256.887 248.012 256.754C248.049 256.62 248.058 256.48 248.038 256.343C247.89 252.288 248.585 248.17 246.983 244.132L246.966 244.138ZM179.822 210.667C179.393 212.266 178.858 213.835 178.22 215.363C177.166 217.513 177.371 218.623 179.77 220.31C180.107 217.027 180.54 213.87 179.822 210.667ZM151.749 198.084C149.412 200.944 147.269 203.134 148.683 206.663C150.757 204.295 151.635 201.63 151.755 198.078L151.749 198.084ZM224.507 212.194C224.205 208.087 221.828 204.758 220.352 201.069C221.036 205.033 222.119 208.871 224.507 212.194ZM214.642 177.116C216.414 179.855 218.512 181.434 222.421 181.119C219.572 179.564 217.611 177.751 214.642 177.116ZM233.961 215.294C234.206 211.988 231.682 209.723 230.514 206.903C230.679 210.049 232.297 212.651 233.961 215.294ZM214.842 231.023C214.676 229.307 214.545 228.026 214.42 226.722C214.369 226.201 214.42 225.48 213.799 225.418C213.178 225.404 212.57 225.588 212.061 225.944C211.954 226.028 211.867 226.134 211.804 226.255C211.742 226.376 211.706 226.509 211.699 226.645C211.692 226.781 211.714 226.917 211.764 227.043C211.813 227.17 211.889 227.285 211.986 227.379C212.875 228.443 213.177 229.93 214.842 231.023ZM169.034 225.795C167.666 228.34 166.247 230.943 167.996 234.008C169.296 231.292 168.498 228.466 169.034 225.795ZM170.789 178.506C167.877 180.027 166.338 182.252 164.326 183.956C164.024 184.208 163.796 184.528 164.138 184.803C164.431 184.969 164.777 185.012 165.101 184.923C166.321 182.446 169.655 181.794 170.789 178.506ZM205.25 175.017C206.145 177.756 208.607 179.169 210.693 180.896C209.821 178.145 207.484 176.624 205.25 175.017ZM193.283 198.839V207.847H194.08C194.166 204.827 194.833 201.807 193.305 198.839H193.283ZM245.416 266.97C244.847 269.707 244.676 272.512 244.909 275.298C245.166 272.701 247.354 270.219 245.416 266.97ZM185.714 182.183C186.512 180.582 189.886 179.324 186.467 177.036C185.367 178.7 185.315 180.41 185.714 182.183ZM229.402 219.08C229.625 220.825 229.824 222.363 230.041 224.022C232.081 222.26 232.081 222.26 229.402 219.08ZM130.133 249.034L128.235 240.952C127.813 243.863 128.645 246.517 130.133 249.034ZM201.58 178.197C201.352 176.126 200.121 175.829 198.845 175.772C198.144 175.743 198.018 176.464 198.206 176.944C198.822 178.488 200.304 177.688 201.58 178.197ZM217.264 188.618C218.073 186.942 217.024 185.758 217.03 184.471C217.03 184.334 216.997 184.198 216.934 184.076C216.872 183.953 216.781 183.847 216.67 183.767C216.559 183.686 216.43 183.634 216.294 183.613C216.159 183.592 216.02 183.604 215.89 183.648C215.223 183.848 215.32 184.454 215.548 184.952C216.05 186.05 216.574 187.136 217.264 188.618ZM211.662 221.9C213.149 220.339 213.166 218.617 212.157 216.06C211.947 218.525 211.804 220.213 211.662 221.9Z" fill="#FF6F61"/>
<path d="M311.261 432.546C309.803 432.489 308.8 431.831 308.691 430.39C308.606 429.183 309.7 429.034 310.572 429.068C311.888 429.12 313.193 429.52 313.359 431.03C313.524 432.54 312.139 432.243 311.261 432.546Z" fill="#FF6F61"/>
<path d="M225.983 254.141C228.365 256.635 227.448 258.717 226.678 260.667C226.16 261.954 224.895 263.235 223.31 262.955C221.333 262.623 219.994 261.171 219.321 259.329C219.15 258.731 219.09 258.107 219.144 257.487C219.144 255.897 219.241 254.444 216.865 255.863C216.655 256.01 216.415 256.106 216.162 256.143C215.909 256.181 215.651 256.159 215.408 256.08C215.165 256.001 214.944 255.866 214.762 255.686C214.579 255.507 214.441 255.287 214.357 255.045C213.896 253.77 215.115 253.752 215.89 253.329C222.661 249.72 228.998 251.67 235.312 254.599C236.15 254.982 236.822 255.497 236.418 256.401C236.013 257.304 235.027 257.035 234.235 256.841C232.104 256.315 230.417 254.696 228.154 254.462C227.693 254.45 227.254 254.359 225.983 254.141Z" fill="#FF6F61"/>
<path d="M163.147 252.677C166.355 252.677 168.236 254.113 168.766 256.601C168.891 257.172 169.045 257.893 168.23 258.185C167.937 258.325 167.601 258.344 167.295 258.236C166.989 258.129 166.737 257.905 166.594 257.613C166.326 257.144 166.024 256.709 165.757 256.234C165.135 255.011 164.127 255.708 163.352 255.874C162.451 256.063 162.782 256.812 162.987 257.401C163.044 257.573 163.146 257.727 163.186 257.899C163.756 260.473 162.913 262.698 161.078 263.327C159.368 263.899 156.616 262.577 156.091 260.158C155.481 257.298 153.994 257.596 151.982 258.253C151.549 258.391 151.093 258.482 150.649 258.597C149.361 258.928 149.082 257.905 148.711 257.155C148.238 256.212 148.762 255.502 149.731 255.439C154.496 255.062 158.787 252.471 163.147 252.677Z" fill="#FF6F61"/>
<path d="M163.112 246.082C165.877 245.994 168.578 246.926 170.703 248.702C171.325 249.182 172.128 249.875 171.467 250.71C170.721 251.653 169.871 250.898 169.421 250.332C168.128 248.708 166.805 249.074 165.079 249.697C161.528 250.978 157.67 250.807 153.971 251.487C151.8 251.888 149.606 252.214 147.623 253.152C146.272 253.792 145.463 253.335 144.956 252.265C144.386 251.047 145.281 250.549 146.341 250.172C151.806 248.29 157.277 246.506 163.112 246.082Z" fill="#FF6F61"/>
<path d="M182.232 294.27C180.557 293.698 178.118 293.126 175.964 292.045C174.396 291.25 173.524 289.757 175.662 288.321C176.801 287.566 177.816 286.686 178.91 285.891C179.862 285.199 180.722 285.662 181.332 286.325C181.942 286.989 181.606 287.807 180.899 288.384C180.672 288.533 180.458 288.702 180.261 288.888C179.691 289.545 177.89 289.877 178.733 290.787C178.972 291.059 179.267 291.275 179.598 291.42C179.929 291.565 180.288 291.635 180.649 291.626C181.011 291.616 181.365 291.526 181.688 291.363C182.011 291.201 182.294 290.969 182.517 290.684C182.898 290.293 183.355 289.985 183.86 289.778C184.364 289.572 184.905 289.471 185.45 289.482C185.994 289.493 186.531 289.616 187.026 289.844C187.522 290.071 187.965 290.398 188.33 290.804C189.59 292.377 189.065 293.715 187.019 293.978C185.663 294.15 184.284 294.15 182.232 294.27Z" fill="#FF6F61"/>
<path d="M200.697 289.322C202.743 289.202 203.797 290.855 205.319 291.61C206.037 291.965 206.458 292.474 207.068 291.61C207.587 290.901 207.94 290.186 207.114 289.494C206.384 288.876 204.982 288.218 206.196 287.303C207.336 286.445 208.903 286.766 209.707 288.207C210.596 289.797 211.291 291.513 209.992 293.2C208.767 294.79 207.262 295.053 205.142 294.527C203.022 294.001 200.703 294.298 199.244 292.308C198.799 291.707 197.807 291.164 198.326 290.272C198.845 289.38 199.836 289.391 200.697 289.322Z" fill="#FF6F61"/>
<path d="M239.13 252.912C238.224 252.608 237.312 252.151 237.061 251.104C236.845 250.195 237.546 250.12 238.264 250.172C239.273 250.246 240.082 250.578 240.259 251.648C240.378 252.385 240.048 252.86 239.13 252.912Z" fill="#FF6F61"/>
<path d="M170.536 340.444C170.536 341.334 170.434 342.099 170.038 342.892C169.622 343.722 169.759 344.685 169.426 345.543C169.047 346.517 168.868 347.628 168.655 348.647C168.45 349.634 168.086 350.518 168.451 351.503C168.754 352.32 170.093 352.414 170.819 352.681C172.245 353.205 173.698 353.525 175.17 353.893C176.277 354.17 177.37 354.612 178.581 354.709C182.703 355.039 186.955 355.332 191.101 355.332C194.354 355.332 197.753 355.28 200.969 355.695C203.421 356.011 205.955 355.649 208.425 355.899C209.838 356.042 211.306 355.966 212.707 355.785C215.229 355.46 217.61 354.683 220.027 354.199C221.47 353.911 225.397 353.217 225.397 351.038C225.397 350.294 225.397 349.55 225.397 348.806C225.397 347.971 224.884 347.38 224.627 346.608C224.368 345.831 223.671 345.329 223.358 344.625C223.086 344.013 223.004 343.384 222.633 342.801C221.883 341.622 219.941 340.852 218.463 340.852C215.974 340.852 213.312 340.648 210.759 340.648C202.696 340.648 194.677 341.26 186.614 341.26C183.352 341.26 180.523 340.793 177.402 339.923C175.681 339.443 173.642 339.017 171.873 339.017C169.784 339.017 169.516 339.978 169.516 341.77C169.516 343.238 169.373 344.417 168.95 345.792C168.603 346.921 168.08 348.122 167.896 349.225C167.692 350.448 169.163 351.263 170.139 351.548C172.399 352.207 174.758 352.784 177.108 353.134C181.463 353.784 185.719 353.701 190.115 353.701C192.357 353.701 194.449 354.158 196.63 354.607C199.277 355.152 201.994 355.03 204.663 355.434C208.383 355.998 212.486 355.549 216.118 354.607C218.45 354.002 220.984 353.63 222.995 352.182C224.305 351.24 223.876 347.659 223.755 346.257C223.72 345.857 222.051 342.604 221.568 343.141C221.195 343.555 221.761 344.907 221.885 345.294C222.125 346.044 222.104 346.998 222.384 347.696C222.595 348.225 222.746 348.347 222.746 349.01C222.746 349.686 221.831 350.132 221.205 350.018C219.836 349.769 219.365 347.057 219.064 345.951C218.797 344.973 217.933 344.121 217.466 343.22C217.19 342.688 217.277 342.109 217.036 341.566C216.707 340.826 214.206 341.26 213.478 341.26C212.054 341.26 210.7 341.643 209.286 341.668C207.673 341.696 205.954 341.754 204.346 341.917C199.891 342.368 194.948 342.693 190.477 342.234C187.909 341.971 185.318 341.988 182.739 341.77C180.95 341.618 179.372 341.056 177.595 341.056C176.193 341.056 174.796 341.016 173.437 341.419C171.077 342.118 175.852 342.488 176.382 342.529C187.782 343.418 199.178 344.115 210.623 344.115C211.858 344.115 213.644 343.793 214.838 344.161C215.336 344.314 216.629 344.207 216.99 344.568C218.093 345.671 213.042 345.894 212.843 345.905C210.203 346.057 207.749 344.758 205.093 344.727C198.744 344.652 192.313 344.846 185.968 344.512C181.93 344.299 178.031 343.503 173.992 343.503C173.436 343.503 171.412 344.668 171.578 344.727C172.335 344.996 173.24 344.933 174.026 345.022C175.606 345.199 177.168 345.505 178.739 345.747C180.896 346.079 183.054 346.121 185.22 346.313C191.941 346.911 198.646 346.97 205.399 346.97C210.277 346.97 215.321 347.243 220.163 346.608C221.072 346.489 220.974 346.96 220.253 347.378C219.215 347.981 217.85 348.728 216.65 348.851C213.106 349.216 209.587 348.806 206.045 348.806C203.013 348.806 200.045 349.418 196.992 349.418C193.62 349.418 190.22 349.553 186.852 349.406C183.372 349.255 179.919 348.409 176.462 348.205C174.943 348.116 173.372 347.582 171.873 347.582C171.642 347.582 171.375 347.62 171.148 347.582C170.808 347.526 171.745 347.237 172.054 347.084C172.934 346.648 173.795 346.203 174.751 345.951C177.762 345.156 181.071 344.931 184.178 344.931C185.466 344.931 186.488 345.369 187.713 345.656C188.157 345.76 192.435 346.226 190.727 346.857C189.03 347.484 187.325 348.194 185.537 348.194C183.371 348.194 180.707 347.697 178.671 348.489C177.623 348.896 176.121 349.418 175.023 349.418C173.799 349.418 173.238 349.594 172.168 350.188C171.503 350.558 172.65 350.639 172.87 350.641C174.388 350.66 175.907 350.615 177.425 350.641C180.003 350.686 182.477 351.922 185.016 352.284C187.989 352.709 190.928 352.453 193.899 352.794C197.422 353.199 200.949 353.089 204.493 353.089C208.102 353.089 211.677 353.701 215.291 353.701C217.649 353.701 219.674 352.997 221.726 351.91C222.274 351.621 221.272 351.661 221.115 351.661C219.961 351.661 218.841 351.615 217.693 351.503C215.01 351.241 212.209 351.457 209.512 351.457C204.996 351.457 200.477 351.661 195.939 351.661C191.493 351.661 186.768 352.041 182.467 350.732C182.153 350.637 181.501 350.407 181.39 350.03C181.317 349.78 184.588 349.609 184.926 349.576C187.744 349.301 190.462 349.775 193.265 349.984C200.625 350.535 208.06 350.438 215.438 350.438C216.899 350.438 218.397 350.234 219.891 350.234C220.352 350.234 221.484 350.322 221.522 349.622C221.57 348.773 220.913 348.236 220.299 347.741C219.466 347.07 218.853 345.772 218.509 344.772C217.714 342.468 215.016 341.663 212.889 340.954C211.754 340.576 210.837 341.389 209.796 341.759C207.993 342.398 206.266 343.186 204.482 343.696C199.842 345.022 194.933 345.135 190.069 345.135C187.812 345.135 185.316 344.916 183.181 345.701C181.968 346.147 180.713 346.569 179.51 346.97" stroke="#FF6F61" stroke-width="3" stroke-linecap="round"/>
<path d="M300.937 410.899C300.937 412.326 300.954 413.966 300.512 415.339C299.986 416.977 298.611 418.261 297.506 419.504C296.613 420.508 295.2 421.142 294.032 421.798C291.407 423.275 288.458 423.956 285.491 424.39C283.929 424.619 282.475 425.049 280.817 425.049C279.885 425.049 277.525 425.423 276.843 424.571C276.479 424.116 275.187 424.673 274.623 424.369C273.832 423.943 272.836 424.049 271.989 423.721C271.597 423.57 270.914 423.665 270.682 423.328C270.566 423.16 268.87 422.456 269.62 422.606C271.388 422.959 273.161 423.435 274.91 423.891C275.688 424.094 276.399 424.093 277.194 424.093C278.592 424.093 279.911 424.386 281.295 424.465C282.599 424.539 283.93 424.475 285.236 424.475C288.156 424.475 290.74 424.58 293.522 423.711C295.257 423.168 296.831 422.227 298.536 421.607C299.602 421.22 300.153 419.633 300.65 418.749C300.844 418.406 300.937 417.782 300.937 418.495C300.937 418.654 301.001 421.096 301.511 420.184C302.11 419.111 302.065 417.058 301.851 415.828C301.615 414.472 301.91 412.941 301.405 411.642C300.98 410.55 301.035 409.819 300.268 408.88C299.809 408.32 299.422 407.492 299.259 406.798C298.937 405.431 299.599 405.815 300.13 406.735C300.657 407.647 301.34 408.861 301.702 409.858C302.179 411.168 303.232 411.982 303.232 413.576C303.232 415.37 302.849 417.045 302.849 418.845C302.849 419.16 302.849 419.475 302.849 419.791C302.849 420.124 303.156 420.069 303.221 420.364C303.335 420.875 303.261 421.605 303.572 422.032C303.682 422.183 303.805 423.131 303.805 423.328C303.805 423.917 303.271 424.437 302.754 424.667C302.133 424.942 299.561 425.547 299.216 424.858" stroke="#FF6F61" stroke-width="3" stroke-linecap="round"/>
<path d="M98.0104 396.259C98.0104 397.886 97.5991 399.133 98.3165 400.647C98.8644 401.804 98.8555 402.913 98.8268 404.174C98.8045 405.156 98.2922 406.058 98.2258 407.054C98.1381 408.371 98.238 409.435 98.8155 410.626C99.4907 412.019 100.807 413.521 102.093 414.425C103.869 415.675 105.517 416.677 107.66 417.067C109.136 417.335 110.708 417.806 112.026 418.507C113.123 419.091 114.412 419.321 115.553 419.834C116.279 420.161 116.889 420.828 117.583 421.252C118.96 422.093 120.247 423.202 121.983 423.202C124.058 423.202 126.133 423.202 128.208 423.202C128.974 423.202 129.979 423.021 130.714 423.247C132.698 423.858 130.731 424.369 129.66 424.744C128.494 425.152 127.277 425.235 126.133 425.651C124.56 426.223 122.869 425.651 121.279 425.651C119.088 425.651 116.97 425.087 114.793 425.039C111.833 424.973 108.864 425.039 105.903 425.039C102.198 425.039 98.4942 425.039 94.7899 425.039C94.2307 425.039 91.8244 425.369 91.4787 424.937C91.2918 424.703 90.7689 424.881 90.5035 424.79C89.804 424.547 89.7709 423.408 89.5509 422.839C89.0387 421.513 88.8252 420.484 88.8252 419.018C88.8252 417.1 89.8266 415.483 90.4581 413.722C91.6617 410.365 93.3498 407.104 95.2435 404.129C95.717 403.384 95.9743 402.532 96.4228 401.77C96.8915 400.973 97.3749 404.249 97.4094 404.627C97.6391 407.155 97.166 411.32 99.0309 413.404C100.035 414.526 100.264 416.359 101.48 417.373C102.632 418.333 104.806 419.473 106.334 419.528C107.457 419.568 108.377 419.518 109.418 420.038C110.923 420.791 113.144 421.773 114.85 421.773C116.069 421.773 117.061 422.59 118.218 422.59C119.443 422.59 117.753 423.874 117.605 424.132C116.998 425.195 114.353 424.036 113.432 424.018C111.559 423.983 109.8 423.61 107.91 423.61C106.976 423.61 106.043 423.61 105.109 423.61C102.865 423.61 100.832 423.151 98.6227 422.839C97.3377 422.658 95.9253 422.794 94.6311 422.794C93.8462 422.794 91.3086 423.145 90.7076 422.544C90.3075 422.144 92.7024 419.593 92.9075 419.074C93.4498 417.702 93.9281 416.005 93.9281 414.527C93.9281 412.602 93.8988 410.846 94.427 408.982C94.5311 408.615 95.8397 404.446 95.8672 404.457C96.7853 404.825 94.922 409.137 94.6992 409.64C94.1174 410.951 92.9618 412.186 92.9075 413.654C92.8365 415.572 90.8727 417.283 90.3561 419.12C90.1678 419.789 89.896 424.398 90.9344 422.34C93.0568 418.135 95.6262 413.823 95.9806 409.039C96.0657 407.889 96.7814 407.627 97.1712 408.88C98.0442 411.686 97.2157 415.451 96.3774 418.156C95.8902 419.728 95.599 421.325 94.9033 422.794C94.3394 423.984 92.8689 420.923 92.6694 420.492C92.3265 419.751 91.4362 417.491 91.9209 416.602C92.4333 415.663 94.139 419.267 94.2456 419.528C94.2597 419.562 94.7044 420.818 94.7559 420.775C95.4262 420.217 95.7988 418.214 96.1053 417.419C96.3407 416.808 97.4363 415.379 97.5795 416.954C97.6637 417.881 97.5849 418.825 97.6021 419.755C97.6173 420.575 98.229 419.068 98.2598 419.006C98.9137 417.699 99.4587 416.363 99.7907 414.935C99.8316 414.759 99.8611 412.914 100.437 413.178C102.053 413.918 101.316 418.046 100.959 419.392C100.261 422.02 99.2281 416.974 99.4392 417.249C100.081 418.082 99.4912 419.903 99.4392 420.866C99.4205 421.211 99.2933 421.142 99.4959 420.775C100.059 419.755 100.618 418.731 101.185 417.714C101.805 416.603 102.679 416.69 102.864 418.099C102.991 419.074 102.733 421.685 103.93 419.483C104.014 419.327 104.678 416.878 105.052 417.668C105.179 417.936 105.697 420.434 105.234 420.537C104.49 420.702 104.691 418.74 104.996 419.437C105.447 420.472 105.338 421.065 104.542 421.773C103.524 422.679 101.277 419.809 100.891 420.968C99.9178 423.887 106.161 420.412 106.844 420.061C109.156 418.873 111.552 419.957 113.886 420.503C115.184 420.807 113.295 421.48 112.82 421.762C111.822 422.353 110.569 422.181 109.452 422.181C108.037 422.181 106.633 421.977 105.2 421.977C104.379 421.977 107.561 421.775 107.853 421.773C108.812 421.767 110.428 422.136 111.278 421.569" stroke="#FF6F61" stroke-width="3" stroke-linecap="round"/>
<path d="M238.775 396.692C238.278 396.593 237.419 395.193 237.162 394.731C236.751 393.992 236.038 393.738 235.55 393.25C235.029 392.729 231.519 391.894 231.519 393.065C231.519 393.791 231.378 394.66 231.672 395.32C232.046 396.162 232.71 396.908 233.175 397.771C234.187 399.651 235.732 401.331 237.01 403.065C237.254 403.397 239.813 406.22 240.071 405.876C241.447 404.041 242.395 402.073 243.699 400.211C244.418 399.183 244.535 398.174 245.049 397.084C245.486 396.16 245.411 395.25 245.736 394.339C246.08 393.375 245.302 391.398 244.167 391.398C243.42 391.398 243.144 390.976 242.587 391.692C241.953 392.507 241.502 393.339 241.171 394.296C240.613 395.907 239.307 397.307 238.622 398.849C238.422 399.299 237.987 400.503 237.489 399.721C236.85 398.717 236.337 397.59 235.877 396.496C235.78 396.267 234.201 393.267 233.916 393.838C232.995 395.681 236.453 397.804 236.966 399.285C237.243 400.086 237.959 401.205 238.491 401.889C238.734 402.201 238.961 402.65 239.21 402.924C239.623 403.377 239.934 402.259 240.104 401.987C240.813 400.845 241.507 399.779 242.195 398.653C242.708 397.814 243.374 396.925 243.481 395.908C243.566 395.093 244.076 394.259 244.254 393.457C244.499 392.353 244.854 393.064 244.265 393.359" stroke="#FF6F61" stroke-width="3" stroke-linecap="round"/>
</g>
<path d="M266.022 72.6772C251.585 80.0116 239.925 91.5947 229.441 104.129C222.012 83.5585 210.448 65.9554 188.488 54.5105C162.509 40.9322 124.687 35.7866 97.7655 49.6167C75.2588 61.1556 62.6327 85.4285 63.6232 110.397C64.1048 123.473 67.755 136.236 74.2599 147.59C78.0376 153.934 82.5762 159.793 87.7748 165.037C74.8054 167.243 62.0543 170.383 52.1754 179.753C44.9037 187.072 39.4899 196.024 36.3868 205.863C33.2837 215.702 32.5814 226.141 34.3388 236.307C41.6671 272.947 73.7292 281.224 105.417 279.222C102.424 287.624 102.861 296.867 106.634 304.949C113.988 320.76 132.121 332.896 149.38 334.13C166.639 335.363 182.916 326.545 194.791 313.565C198.178 319.437 202.521 324.702 207.641 329.144C223.517 342.801 247.028 345.474 266.293 337.785C290.056 328.313 296.704 306.313 292.054 285.308C292.843 285.37 293.617 285.478 294.521 285.503C302.552 285.593 310.539 284.318 318.143 281.731C333.054 276.759 349.89 265.292 355.416 249.803C361.302 233.244 351.662 217.527 340.702 205.671C334.149 198.79 326.485 193.06 318.032 188.722C321.255 185.897 324.262 182.835 327.03 179.562C336.457 168.369 344.922 155.968 348.048 141.445C352.782 119.791 345.802 95.3192 327.838 81.848C310.686 69.0539 285.77 62.6434 266.022 72.6772Z" fill="#F5F0E9"/>
<defs>
<clipPath id="clip0_350_153">
<rect width="231" height="266" fill="white" transform="translate(82.3701 166.546)"/>
</clipPath>
</defs>
</svg>
