<svg width="406" height="429" viewBox="0 0 406 429" fill="none" xmlns="http://www.w3.org/2000/svg">
<g clip-path="url(#clip0_299_274)">
<path d="M97.2174 421.997C92.466 420.286 87.959 419.764 84.0832 423.449C83.7587 423.837 83.3049 424.093 82.8058 424.172C82.3066 424.251 81.7959 424.146 81.3681 423.877C80.1463 423.117 79.9834 421.793 79.7594 420.544C79.5354 419.295 80.635 419.024 81.5649 418.705C83.2211 418.141 84.9588 417.68 86.5064 416.974C88.054 416.268 90.6673 416.2 88.4477 413.329C87.4974 412.1 89.0043 411.238 90.3415 411.211C97.3464 411.075 103.645 407.872 110.474 406.982C112.089 406.779 113.779 406.433 113.318 404.091C113.087 402.896 113.915 402.122 115.144 401.837C117.248 401.241 119.386 400.768 121.545 400.419C129.12 399.577 134.482 394.5 140.924 391.486C144.487 389.816 146.462 387.529 148.309 384.359C151.126 379.533 155.232 379.336 157.974 383.538C153.549 382.635 152.829 386.429 151.098 388.649C149.849 390.251 152.001 394.425 154.492 396.332C157.567 398.708 161.28 399.109 164.993 399.543C177.74 401.05 190.474 402.645 203.371 401.776C208.163 401.457 212.548 399.835 216.858 397.955C218.718 397.14 218.894 395.688 218.82 394.079C218.528 393.95 218.297 393.76 218.182 393.814C202.285 400.663 185.723 400.934 168.869 398.491C165.611 398.016 163.167 395.355 159.678 395.491C158.999 395.491 158.619 394.608 158.667 394.018C158.816 392.54 158.451 391.057 157.635 389.816C157.384 389.429 157.282 388.499 157.513 388.336C161.667 385.37 159.685 381.067 159.977 377.374C160.361 372.521 159.937 367.637 158.721 362.923C157.167 356.936 153.617 351.825 150.318 346.633C147.291 341.881 144.168 337.171 140.998 332.501C140.172 331.116 139.087 329.903 137.801 328.93C128.679 322.923 126.14 313.23 122.692 304.101C122.067 302.444 121.85 301.623 119.766 301.888C116.644 302.288 114.764 300.171 113.766 297.815C111.424 292.256 110.718 278.81 107.745 273.671C104.026 267.25 98.1338 269.7 101.426 262.363C102.105 260.788 100.163 256.111 98.5275 255.446C96.7219 254.713 96.1042 253.668 96.4911 251.747C98.3917 241.728 100.7 231.764 101.629 221.596C101.738 220.455 103.062 220.238 103.306 219.369C104.976 213.532 108.845 208.692 111.18 203.167C111.38 202.586 111.541 201.992 111.662 201.389C110.65 200.771 110.399 201.742 110.087 202.068C109.286 202.896 108.594 203.133 107.542 202.482C106.306 201.721 106.401 200.819 107.012 199.766C107.867 198.314 108.675 196.834 109.591 195.409C115.904 185.58 123.085 176.491 133.647 170.437C135.609 169.253 137.776 168.447 140.034 168.061C143.028 167.537 145.909 166.504 148.553 165.007C157.879 159.99 167.647 155.992 178.473 154.974C184.922 154.37 191.037 151.96 197.54 151.58C210.437 150.827 223.076 153.067 235.728 155.151C244.036 156.508 251.156 159.712 257.102 165.434C258.208 166.475 259.473 167.332 260.849 167.973C265.526 170.179 268.893 173.647 270.406 178.297C271.961 183.048 275.402 186.381 278.687 189.836C280.204 191.34 281.33 193.193 281.966 195.232C283.371 200.208 284.64 205.217 285.903 210.226C286.366 211.996 286.135 213.875 285.258 215.48C283.69 218.134 284.104 220.836 284.403 223.483C285.339 231.716 284.335 239.773 283.256 247.919C282.577 253.166 281.382 258.616 283.663 264.067C285.02 267.338 283.425 270.902 282.516 274.248C280.635 281.138 275.803 286.174 270.637 290.837C268.601 292.684 267.243 295.935 263.347 295.433C262.166 295.283 262.315 296.919 262.112 297.727C260.157 305.601 257.605 313.339 255.188 321.056C254.15 324.389 252.1 326.907 249.812 329.541C245.148 334.868 240.185 339.926 234.947 344.691C230.875 348.431 228.954 353.705 226.286 358.409C222.729 364.681 220.571 371.36 220.72 378.616C220.754 380.286 220.774 381.875 222.967 382.153C227.888 382.764 231.221 385.323 232.612 389.837C233.413 392.416 235.063 392.918 237.499 392.972C239.672 393.02 242.102 392.972 243.968 393.821C252.724 397.928 262.125 397.493 271.411 397.771C278.844 397.995 285.828 400.385 293.077 401.457C294.591 401.681 296.125 401.756 297.632 402.007C301.026 402.591 305.017 401.953 306.748 406.236C307.101 407.118 308.872 407.593 310.087 407.994C310.658 408.133 311.169 408.451 311.547 408.899C311.925 409.348 312.151 409.906 312.192 410.492C312.242 411.028 312.093 411.564 311.774 411.998C311.455 412.433 310.988 412.735 310.461 412.847C307.067 413.023 304.501 414.843 301.637 416.241C300.035 417.008 297.754 416.492 295.779 416.485C280.547 416.485 265.316 415.386 250.097 415.969C228.75 416.791 207.416 417.924 186.089 419.017C170.749 419.798 155.402 420.578 140.089 421.691C135.405 422.031 130.735 422.872 126.031 423.191C117.886 423.748 109.741 424.753 101.697 425.954C97.821 426.613 93.9863 427.497 90.2125 428.601C88.4545 429.083 86.9883 429.545 86.3435 427.318C85.7665 425.357 86.6218 424.501 88.6581 424.108C91.5429 423.572 94.3666 422.723 97.2174 421.997ZM211.801 245.441C211.631 245.862 211.502 246.215 211.346 246.561C210.165 249.174 206.86 251.774 205.326 250.966C203.307 249.983 201.483 248.642 199.943 247.009C199.033 245.977 198.999 245.699 197.676 246.493C194.357 248.53 191.01 248.034 187.895 245.529C187.426 245.156 186.951 244.219 186.334 244.79C182.607 248.183 180.13 245.468 177.55 243.093C175.12 248.149 169.228 246.541 165.617 249.202C165.564 249.226 165.506 249.236 165.448 249.232C165.389 249.227 165.333 249.207 165.285 249.174C163.649 246.839 160.493 248.068 158.619 246.636C156.746 245.204 155.986 245.957 154.981 247.525C153.114 250.444 151.397 250.464 149.198 247.763C148.811 247.294 148.763 246.52 147.901 246.507C147.52 248.025 147.053 249.521 146.503 250.987C146.324 251.47 146.021 251.899 145.625 252.229C145.229 252.56 144.753 252.781 144.245 252.87C143.737 252.959 143.214 252.914 142.729 252.738C142.244 252.563 141.813 252.263 141.48 251.869C139.009 249.229 138.032 249.276 135.493 252.141C132.493 255.534 128.604 256.281 124.158 254.252C123.316 256.756 122.373 259.22 118.762 257.788C118.762 260.048 118.599 262.159 118.762 264.243C119.44 271.52 122.074 278.45 122.875 285.72C123.459 291.041 125.339 296.179 126.269 301.406C127.518 308.581 131.251 314.567 134.319 320.907C135.022 322.372 136.123 323.609 137.496 324.477C144.677 329.025 148.098 336.356 152.429 343.015C159.169 353.461 167.213 362.584 179.139 367.824C188.641 371.998 197.846 371.259 206.065 365.021C218.636 355.477 230.074 344.718 241.226 333.695C246.201 328.781 250.478 323.256 252.426 316.454C254.598 308.848 256.72 301.225 258.793 293.587C260.408 287.661 260.598 281.579 261.168 275.26C260.415 275.606 260.028 275.775 259.648 275.938C250.213 280.479 240.384 282.76 229.782 280.907C226.931 280.412 224.8 278.871 222.797 277.031C222.118 276.427 221.657 274.927 221.881 274.873C224.026 274.37 223.917 271.75 226.008 271.167C227.779 270.664 229.402 269.7 231.126 269.028C236.298 267.04 241.307 264.576 247.036 264.196C251.855 263.883 255.358 266.415 258.046 269.544C259.118 270.793 259.566 272.259 261.698 272.402C262.119 269.843 262.377 267.223 263.015 264.671C263.653 262.119 262.2 261.487 260.089 261.345C257.362 261.155 254.622 261.335 251.944 261.881C244.851 263.306 237.479 262.689 230.454 264.596C230.047 264.757 229.596 264.77 229.18 264.632C228.764 264.495 228.41 264.215 228.18 263.843C227.948 263.36 227.608 262.937 227.187 262.607C226.765 262.276 226.274 262.046 225.75 261.935C224.935 261.772 224.291 261.311 224.27 260.456C224.27 259.471 225.193 259.417 225.872 259.166C231.198 257.139 236.782 255.873 242.461 255.406C248.869 254.896 254.964 257.157 261.324 257.388C263.68 257.469 264.718 257.197 265.207 255.025C265.445 253.96 266.049 252.989 265.825 251.482C265.277 251.907 264.604 252.138 263.911 252.138C263.217 252.138 262.544 251.907 261.996 251.482C260.075 250.26 260.585 248.156 260.089 245.882C257.598 249.039 253.858 245.882 251.367 248.278C251.211 248.435 250.009 247.98 249.69 247.545C247.966 245.238 246.609 244.199 243.432 246.31C240.255 248.421 236.284 247.837 233.25 244.423C232.762 246.025 232.388 247.091 232.11 248.19C231.879 249.113 231.431 249.901 230.372 249.717C226.291 248.916 222.069 249.235 218.154 250.641C216.05 251.401 214.557 249.609 213.403 248.014C212.799 247.22 212.901 246.12 211.801 245.441ZM222.193 356.916L221.793 356.624C219.451 358.593 217.143 360.609 214.747 362.523C210.043 366.29 205.36 370.071 199.427 372.087C189.565 375.447 180.734 372.372 171.998 368.326C168.36 366.643 165.726 363.704 162.21 361.016C164.082 369.423 164.466 378.093 163.343 386.633C162.617 392.572 164.647 394.364 170.586 395.647C179.749 397.615 188.913 396.882 198.076 395.966C203.649 395.409 209.161 394.608 214.197 391.981C217.007 390.522 218.711 388.886 217.768 385.275C216.118 378.935 216.593 372.48 218.494 366.222C219.458 363.045 220.944 360.011 222.193 356.916ZM121.165 297.822C120.669 295.575 120.207 293.634 119.807 291.713C119.33 289.66 118.97 287.582 118.728 285.489C118.606 283.941 117.866 283.412 116.433 282.97C111.383 281.396 110.012 275.925 114.024 272.354C116.413 270.223 116.386 268.961 113.793 267.399C113.284 267.087 113.019 266.408 112.646 265.899C111.431 264.236 110.06 262.377 107.745 262.886C105.193 263.449 104.854 265.872 104.704 267.976C104.268 273.828 106.057 279.63 109.714 284.219C112.169 287.287 114.37 290.549 116.298 293.973C117.241 295.738 118.3 297.788 121.165 297.822ZM273.21 282.156C277.235 278.083 278.742 272.959 279.855 267.732C280.323 265.54 281.029 263.327 276.563 263.395C270.868 263.49 266.863 265.431 266.429 270.861C266.069 275.246 265.132 279.57 265.024 283.948C264.969 286.079 264.141 288.211 264.711 290.41C266.072 290.313 267.346 289.705 268.275 288.706C269.307 287.776 271.778 286.826 268.431 285.468C267.148 284.946 268.2 283.88 268.621 283.052C269.47 281.396 271.927 279.726 268.519 278.029C267.678 277.615 268.166 276.726 268.92 276.264C270.169 275.504 271.472 274.941 272.904 275.823C274.194 276.631 274.384 277.859 274.065 279.176C273.841 280.167 273.515 281.158 273.21 282.156ZM232.612 211.285C233.115 213.58 231.309 216.715 233.216 217.863C235.667 219.308 235.049 220.842 235.015 222.566C234.974 224.664 234.655 226.755 234.662 228.845C234.662 232.572 233.603 236.366 235.307 240.072C235.979 238.779 236.438 237.385 236.665 235.945C237.751 229.592 236.773 223.15 237.472 216.777C237.914 212.941 237.085 211.95 232.612 211.285ZM224.053 208.882C223.585 210.518 222.892 211.516 221.338 211.245C219.519 210.932 219.383 211.991 218.962 213.383C218.114 216.193 219.159 219.24 218.053 221.806C216.315 225.845 216.444 229.952 216.627 234.126C218.249 228.967 219.736 223.781 220.842 218.514C220.913 217.897 221.13 217.305 221.476 216.789C221.822 216.273 222.287 215.848 222.831 215.548C227.372 213.077 226.809 212.555 224.053 208.882ZM244.274 201.66C246.181 192.157 243.669 183.252 240.805 174.367C241.525 183.523 241.056 192.836 244.274 201.66ZM229.089 164.871C229.619 166.941 228.458 169.011 231.676 169.351C233.223 169.514 233.644 170.932 233.773 172.48C234.18 177.571 234.784 182.661 235.327 187.732C235.402 188.478 234.981 189.598 236.454 189.497C237.927 189.395 237.656 188.506 237.499 187.46C236.739 182.268 235.87 177.075 235.463 171.849C235.198 168.02 232.816 166.425 229.089 164.871ZM227.399 219.627C223.476 227.209 225.539 235.239 225.18 243.14C228.743 235.558 227.27 227.522 227.393 219.627H227.399ZM250.478 205C249.962 207.79 249.12 210.355 250.233 211.536C252.432 213.871 251.672 216.362 251.923 218.826C252.175 221.29 251.883 223.91 252.84 226.558C255.385 222.091 254.632 215.005 250.457 205H250.478ZM165.448 228.35C166.547 228.051 166.5 227.583 166.561 227.189C167.516 220.655 168.466 214.116 169.412 207.572C169.498 207.162 169.528 206.742 169.5 206.323C169.344 205.278 168.346 204.844 167.64 204.226C167.55 204.165 167.447 204.123 167.339 204.104C167.232 204.084 167.121 204.088 167.015 204.114C166.909 204.14 166.809 204.189 166.723 204.256C166.636 204.323 166.565 204.408 166.513 204.504C165.977 205.387 165.835 206.303 166.676 207.09C167.518 207.878 167.355 208.977 167.131 210.03C165.964 216.03 165.964 222.118 165.427 228.35H165.448ZM188.092 204.151C186.856 205.753 187.114 208.509 185.098 209.134C182.777 209.853 182.512 211.564 182.118 213.132C181.779 214.489 180.191 216.525 182.173 217.204C183.279 217.571 183.143 215.093 183.442 213.858C183.442 213.756 183.442 213.647 183.496 213.546C183.552 213.28 183.661 213.029 183.815 212.806C183.97 212.583 184.168 212.394 184.396 212.248C184.625 212.103 184.881 212.005 185.148 211.959C185.416 211.914 185.689 211.922 185.953 211.984C187.25 212.188 188.105 213.084 187.644 214.476C187.352 215.365 187.073 216.172 187.644 217.075C189.585 211.543 189.789 206.289 188.071 204.151H188.092ZM224.589 274.513C227.542 277.181 230.698 278.11 233.956 277.534C235.714 277.221 234.309 274.954 234.886 273.671C235.131 273.128 235.68 272.463 235.09 271.94C234.499 271.418 233.637 271.893 232.972 272.151C230.386 273.149 228.105 274.968 224.569 274.513H224.589ZM215.914 197.133H217.048C216.356 189.44 215.677 181.765 215.012 174.109L214.095 174.184C212.928 181.976 215.405 189.497 215.894 197.16L215.914 197.133ZM212.331 164.694C212.414 164.387 212.382 164.06 212.24 163.775C212.099 163.49 211.858 163.267 211.564 163.147C207.708 161.11 203.506 160.031 199.346 158.898C198.592 158.687 198.124 159.21 197.886 159.848C197.778 160.146 197.752 160.469 197.811 160.78C197.871 161.092 198.014 161.382 198.226 161.619C198.755 162.298 199.298 162.176 199.882 161.694C201.239 160.588 202.488 161.3 203.859 161.735C206.48 162.563 208.041 165.129 211.027 165.488C212.12 165.685 212.222 165.563 212.31 164.721L212.331 164.694ZM268.37 261.664C273.312 257.523 271.54 251.482 272.965 246.364C270.583 251.258 269.395 256.458 268.35 261.691L268.37 261.664ZM172.378 178.962C174.211 176.247 177.279 174.211 177.618 170.593C177.693 169.812 178.392 168.74 177.319 168.394C177.057 168.32 176.783 168.302 176.514 168.341C176.244 168.38 175.986 168.475 175.755 168.619C175.525 168.764 175.327 168.955 175.174 169.18C175.021 169.405 174.918 169.66 174.869 169.928C174.211 172.969 172.453 175.697 172.378 178.962ZM257.523 272.931C256.016 271.818 254.53 271.499 253.749 269.986C253.104 268.743 251.53 268.228 249.616 268.194C250.403 269.605 251.462 270.637 251.312 272.042C250.966 275.334 252.67 275.083 254.903 274.011C255.67 273.61 256.485 273.352 257.523 272.931ZM172.969 190.277C172.086 194.228 167.179 197.377 170.314 203.065C171.787 198.327 173.064 194.458 172.969 190.277ZM222.159 386.857C224.65 388.262 226.402 389.572 222.933 391.764C222.125 392.273 222.329 393.502 222.777 394.398C222.836 394.519 222.923 394.624 223.031 394.704C223.139 394.785 223.264 394.838 223.397 394.861C223.529 394.883 223.665 394.874 223.793 394.834C223.922 394.793 224.039 394.723 224.134 394.629C225.404 393.543 227.712 393.373 228.065 391.615C228.384 390.02 226.51 389.239 225.431 388.296C224.637 387.576 223.734 386.762 222.159 386.857ZM135.229 185.505C128.265 185.003 126.73 186.184 127.375 191.078L135.229 185.505ZM248.292 166.045C247.613 168.081 247.939 169.887 248.339 171.692C248.625 172.996 249.656 173.281 250.831 173.152C252.005 173.023 251.923 172.032 251.903 171.217C251.835 168.835 250.586 167.213 248.292 166.045ZM182.621 158.898C186.782 161.151 190.087 159.183 193.481 158.687C190.087 156.99 186.7 157.221 182.621 158.898ZM176.471 201.049C175.853 204.226 175.392 206.656 174.896 209.072C174.747 209.799 174.896 210.389 175.69 210.539C175.844 210.593 176.006 210.616 176.168 210.606C176.33 210.596 176.489 210.554 176.634 210.482C176.78 210.409 176.91 210.309 177.016 210.186C177.122 210.063 177.202 209.919 177.252 209.765C178.181 207.09 178.806 204.423 176.471 201.049ZM242.23 236.169C245.624 231.587 242.624 227.508 242.346 223.429C241.307 227.508 241.66 231.587 242.23 236.169ZM260.673 171.686C261.107 174.285 262.709 176.043 263.524 178.114C263.911 179.111 265.003 178.792 265.825 178.663C265.959 178.653 266.088 178.606 266.198 178.528C266.308 178.451 266.395 178.345 266.45 178.223C266.506 178.1 266.527 177.965 266.513 177.831C266.498 177.697 266.448 177.57 266.368 177.462C265.132 175.113 263.999 172.636 260.673 171.692V171.686ZM174.869 233.617C177.7 230.352 176.96 226.354 177.584 222.655C177.659 222.214 177.129 221.976 176.668 221.976C175.914 222.017 175.921 222.655 175.874 223.13C175.534 226.632 175.202 230.121 174.869 233.617ZM191.838 164.749C187.589 168.095 190.277 171.645 190.277 174.93C191.757 171.794 192.09 168.556 191.818 164.749H191.838ZM183.137 235.653C182.125 237.425 182.288 239.047 181.039 240.282C179.906 241.396 180.985 242.577 181.928 243.147C183.442 244.056 183.585 242.468 184.08 241.681C185.356 239.61 183.815 237.975 183.137 235.653ZM108.573 251.889C107.691 254.245 107.833 256.22 107.833 258.134C107.833 259.6 109.259 259.831 110.46 259.858C111.343 259.858 111.485 259.044 111.268 258.467C110.487 256.41 109.585 254.367 108.573 251.889ZM236.861 194.988C236.603 199.828 237.656 204.491 238.837 209.14C239.271 204.307 237.914 199.678 236.855 195.015L236.861 194.988ZM132.14 180.897C133.715 181.059 135.005 181.331 136.301 181.399C137.598 181.467 137.828 180.374 138.338 179.593C138.847 178.813 138.378 178.467 137.822 178.032C137.451 177.704 136.966 177.534 136.472 177.561C135.978 177.588 135.514 177.808 135.181 178.175C134.149 179.064 133.152 179.987 132.14 180.897ZM198.545 222.424C195.884 225.193 195.354 229.728 197.296 233.61C197.717 229.66 198.09 226.3 198.545 222.424ZM151.227 244.925H152.212C151.832 240.916 151.449 236.909 151.064 232.904C149.673 237.018 149.978 241.029 151.207 244.925H151.227ZM143.91 227.868C143.598 231.126 143.326 234.038 143.007 237.432C146.143 233.597 146.388 230.997 143.91 227.868ZM132.466 212.337L131.665 212.202L129.731 223.863L130.566 223.999C132.704 220.367 131.495 216.172 132.466 212.337ZM120.927 224.128C119.413 225.852 119.692 228.309 117.655 229.646C117.017 230.06 116.372 230.488 116.603 231.391C116.834 232.293 117.547 232.11 118.171 232.11C119.155 232.11 119.821 231.716 119.963 230.678C120.282 228.492 120.615 226.313 120.941 224.128H120.927ZM120.927 193.108C122.753 192.198 124.837 193.786 125.583 191.75C125.875 190.97 125.536 188.614 124.226 188.709C122.291 188.865 121.714 190.888 120.934 193.108H120.927ZM219.587 238.898C217.849 241.504 219.132 244.579 216.722 246.459C216.349 246.751 216.722 247.253 217.075 247.484C217.167 247.542 217.269 247.581 217.376 247.598C217.483 247.615 217.592 247.61 217.697 247.583C217.802 247.557 217.9 247.509 217.986 247.443C218.071 247.377 218.143 247.294 218.195 247.199C219.702 244.783 220.944 242.312 219.587 238.898ZM245 161.104C243.208 160.581 241.409 159.536 240.099 161.151C239.353 162.067 240.472 162.794 241.307 163.344C244.267 165.312 243.052 160.744 245 161.104ZM141.976 199.977C140.885 203.778 139.795 207.579 138.704 211.38C141.209 207.905 142.037 204.05 141.976 199.977ZM222.356 402.964C219.464 399.312 217.238 401.688 214.944 402.964H222.356ZM266.544 216.05C266.13 219.621 265.512 223.191 266.089 227.657C267.325 223.225 266.531 219.627 266.544 216.05ZM230.814 198.585C232.721 194.167 230.372 190.976 230.311 187.603C230.243 190.976 229.558 194.391 230.814 198.585ZM135.738 201.979C133.742 203.927 133.701 206.412 132.751 208.597C132.514 209.161 132.147 209.989 132.948 210.22C133.749 210.45 134.346 209.968 134.496 209.018C134.862 206.663 135.317 204.321 135.738 201.973V201.979ZM248.652 233.99C248.068 236.508 247.294 239.04 249.738 241.939C250.233 238.755 250.131 236.278 248.652 233.983V233.99ZM196.386 185.186C195.891 188.173 194.879 191.16 195.599 194.268C196.882 191.336 196.732 188.282 196.373 185.18L196.386 185.186ZM163.445 165.007C163.601 165.217 163.758 165.434 163.907 165.651C164.981 165.268 166.029 164.815 167.043 164.294C167.769 163.866 168.489 163.092 167.789 162.257C167.09 161.423 166.364 162.135 165.841 162.583C164.979 163.323 164.239 164.206 163.445 165.007ZM206.011 237.791C205.414 240.71 205.013 242.638 204.654 244.579C204.552 245.081 204.477 245.699 205.176 245.835C205.875 245.971 206.045 245.366 206.093 244.857C206.449 242.513 206.421 240.127 206.011 237.791ZM249.385 189.273C249.819 187.827 254.136 185.879 249.385 184.691V189.273Z" fill="#FF6F61"/>
<path d="M158.708 285.584C153.481 285.434 149.572 283.242 145.716 281.07C144.25 280.242 143.191 279.095 141.23 278.816C138.901 278.477 138.596 275.721 137.68 274.024C137.184 273.101 139.465 272.314 140.782 271.764C145.771 269.687 151.113 269.049 156.393 268.37C157.588 268.214 158.925 268.859 160.174 269.212C164.247 270.372 168.319 271.533 172.392 272.775C173.75 273.196 175.535 273.956 174.904 275.49C174.225 277.228 172.25 276.624 170.872 276.013C169.388 275.326 167.833 274.805 166.236 274.458C164.878 274.187 164.199 273.814 164.342 275.965C164.586 279.04 165.414 279.889 168.632 279.101C170.946 278.538 173.383 278.504 175.548 277.309C176.906 276.563 178.487 276.678 178.942 277.941C179.322 278.972 178.386 280.255 176.967 280.819C174.396 281.755 171.716 282.357 168.991 282.611C166.161 282.97 163.344 283.12 160.975 285.013C160.337 285.577 159.136 285.489 158.708 285.584ZM147.902 278.524C148.581 276.644 149.09 275.13 149.782 273.176C147.502 273.61 145.301 274.386 143.252 275.477C145.268 276.115 146.395 277.255 147.902 278.524Z" fill="#FF6F61"/>
<path d="M175.922 262.954C175.854 263.985 170.22 267.196 169.473 266.626C164.24 262.628 158.525 264.257 152.843 265.16C146.795 266.117 140.727 266.918 134.605 267.304C133.247 267.393 131.89 267.304 131.272 265.886C130.654 264.467 131.523 263.734 132.962 263.517C133.064 263.517 133.247 263.422 133.247 263.388C132.643 259.105 136.505 260.164 138.637 259.444C141.25 258.603 144.011 258.321 146.741 258.616C151.852 259.091 156.997 259.974 162.088 259.763C165.896 259.628 169.433 260.266 173.057 260.897C174.483 261.148 175.467 261.698 175.922 262.954Z" fill="#FF6F61"/>
<path d="M188.771 362.113C184.149 362.113 181.902 360.327 181.461 357.062C181.233 355.408 181.634 353.728 182.586 352.355C183.538 350.983 184.97 350.017 186.599 349.65C187.231 349.498 187.895 349.578 188.473 349.874C189.051 350.171 189.504 350.664 189.749 351.266C190.468 352.773 188.608 352.535 187.957 352.779C185.242 353.818 185.601 355.983 185.696 358.006C185.726 358.392 185.902 358.753 186.188 359.014C186.474 359.275 186.85 359.417 187.237 359.411C188.262 359.411 187.794 358.529 187.97 357.992C188.921 355.026 191.866 355.026 194.235 354.388C195.292 354.071 196.425 354.124 197.448 354.537C198.471 354.95 199.323 355.7 199.862 356.662C200.04 356.936 200.146 357.251 200.17 357.577C200.194 357.902 200.136 358.229 200 358.527C199.865 358.824 199.657 359.083 199.396 359.279C199.135 359.475 198.828 359.602 198.505 359.649C194.826 360.002 191.486 361.549 188.771 362.113Z" fill="#FF6F61"/>
<path d="M222.493 312.864C222.567 317.988 219.886 319.753 215.705 318.158C214.619 317.744 213.811 318.389 212.942 318.64C210.818 319.258 208.747 319.821 206.514 319.095C205.231 318.674 204.363 317.907 204.342 316.624C204.31 315.971 204.508 315.328 204.901 314.806C205.294 314.284 205.858 313.916 206.494 313.767C209.263 312.999 211.924 313.19 214.178 315.165C215.094 315.959 215.841 318.002 217.449 316.224C218.773 314.764 219.54 313.027 217.524 311.282C216.275 310.203 214.992 308.852 217.524 307.678C217.919 307.487 218.365 307.432 218.795 307.52C219.224 307.608 219.612 307.836 219.9 308.167C221.303 309.368 222.224 311.036 222.493 312.864Z" fill="#FF6F61"/>
<path d="M193.855 314.893C184.763 313.757 175.78 312.563 167.62 307.921C163.04 305.313 159.739 301.636 156.466 297.846C154.062 295.062 153.392 291.494 152.443 288.107C151.748 285.615 151.367 283.046 151.306 280.459C151.227 277.362 152.954 275.913 156.062 276.726C156.688 276.864 157.293 277.082 157.864 277.373C165.864 281.959 174.882 281.641 183.576 281.527C191.417 281.425 199.395 281.237 207.14 279.669C214.675 278.14 222.13 276.26 229.698 274.845C230.744 274.652 231.682 273.975 232.704 273.623C233.841 273.231 234.852 272.231 236.227 273.299C237.602 274.367 238.943 275.544 238.563 277.453C237.097 284.783 236.222 292.255 230.767 298.312C226.289 303.279 220.931 306.728 214.709 309.387C209.427 311.638 203.915 313.304 198.27 314.353C196.793 314.654 195.349 314.654 193.855 314.893ZM191.088 297.608C188.031 297.312 185.065 298.142 182.053 298.341C176.939 298.682 171.995 300.085 167.058 301.409C164.785 302.012 165.484 302.904 166.751 303.733C169.166 305.324 171.603 306.961 174.371 307.904C184.491 311.347 194.707 313.206 205.259 309.455C210.407 307.62 215.697 306.108 220.118 302.796C220.658 302.398 221.652 302.142 221.255 301.256C220.971 300.597 220.147 300.415 219.397 300.341C218.124 300.222 216.834 300.182 215.578 299.972C207.481 298.585 199.242 298.506 191.088 297.608ZM161.432 288.363C162.239 288.363 162.699 288.363 163.137 288.363C166.171 288.471 166.972 287.226 165.932 284.431C165.239 282.584 163.483 282.862 162.177 282.26C160.546 281.521 158.057 279.919 157.358 280.442C155.824 281.578 157.886 283.493 157.858 285.186C157.83 287.698 158.631 289.38 161.432 288.334V288.363ZM174.183 283.817V283.874C173.65 283.755 173.103 283.713 172.558 283.749C171.734 283.931 170.552 283.34 170.149 284.425C169.745 285.51 170.546 286.238 171.285 286.925C173.194 288.704 175.518 288.164 177.763 287.954C178.786 287.857 179.422 287.385 179.303 286.215C179.2 285.186 179.047 284.272 177.723 284.147L174.183 283.817ZM211.606 286.419C215.987 286.118 216.629 285.55 216.294 282.362C216.197 281.459 216.118 280.658 214.726 280.766C210.828 281.09 209.254 282.05 209.436 284.238C209.549 285.533 209.322 287.26 211.606 286.385V286.419ZM200.549 287.147C201.48 287.039 202.736 286.834 204.003 286.766C205.435 286.687 205.935 285.988 205.771 284.709C205.606 283.431 204.964 282.8 203.594 282.902C201.89 283.033 200.151 283.164 198.423 283.272C197.577 283.328 196.605 283.362 196.651 284.408C196.696 285.454 196.849 286.772 198.298 287.107C199.046 287.183 199.8 287.185 200.549 287.113V287.147ZM188.661 284.13C186.803 284.13 185.707 284.067 184.621 284.13C183.894 284.192 182.803 283.993 183.002 285.311C183.155 286.317 182.928 287.641 184.564 287.635C186.758 287.635 188.963 287.522 191.15 287.334C192.116 287.249 192.957 286.766 192.673 285.579C192.434 284.578 191.985 283.755 190.639 283.936C189.735 284.05 188.815 284.084 188.661 284.095V284.13ZM222.823 284.402C223.42 284.215 225.584 285.147 225.056 282.868C224.766 281.612 226.079 279.237 223.454 279.197C222.096 279.197 219.533 278.629 219.874 281.47C220.044 282.834 219.556 284.902 222.823 284.368V284.402ZM231.682 277.527C230.931 278.334 228.176 276.879 228.693 279.766C228.886 280.817 227.732 282.72 230.233 282.607C232.227 282.499 234.023 282.141 234.108 279.567C234.165 277.925 233.398 277.521 231.682 277.493V277.527Z" fill="#FF6F61"/>
<path d="M163.04 243.553C157.199 242.769 151.716 242.945 146.562 241.178C145.704 240.882 144.709 240.609 144.113 240.041C143.255 239.2 142.442 238.53 144.505 237.41C149.142 234.887 154.261 233.518 158.943 231.16C159.698 230.812 160.546 230.718 161.358 230.893C167.844 231.961 174.323 233.042 180.797 234.137C181.894 234.325 183.07 234.705 183.337 235.887C183.65 237.166 182.604 237.592 181.633 238.223C177.354 240.95 172.541 241.973 167.586 242.365C165.774 242.519 164.251 243.388 163.04 243.553ZM177.405 236.734C174.882 235.984 172.723 235.319 170.552 234.711C169.939 234.535 169.143 234.421 168.961 235.234C168.634 236.408 168.487 237.624 168.524 238.842C168.586 239.621 169.626 239.308 170.16 239.189C172.53 238.672 175.098 238.683 177.405 236.74V236.734ZM149.17 238.916C151.636 239.57 154.171 239.927 156.722 239.979C158.915 239.979 157.477 238.41 157.568 237.655C157.659 236.899 158.017 235.262 156.335 235.711C153.937 236.348 151.443 236.922 149.17 238.916Z" fill="#FF6F61"/>
<path d="M210.169 229.898C215.004 229.523 219.829 229.143 224.67 228.762C226.134 228.652 227.596 229.002 228.852 229.762C231.618 231.32 234.623 232.409 237.745 232.984C238.282 233.074 238.793 233.278 239.245 233.582C239.696 233.885 240.078 234.282 240.364 234.745C240.807 235.456 240.967 236.217 240.035 236.45C235.25 237.768 231.045 240.814 225.721 240.604C222.88 240.496 220.385 239.467 217.732 238.848C213.186 237.814 209.038 235.774 205.055 233.444C204.384 233.052 203.617 232.597 203.952 231.569C204.086 231.043 204.394 230.579 204.827 230.252C205.26 229.926 205.791 229.757 206.333 229.773C207.612 229.745 208.89 229.773 210.163 229.773L210.169 229.898ZM210.93 233.757L219.169 236.24C217.982 231.887 217.573 231.756 210.93 233.757ZM233.148 235.461C228.818 232.154 228.034 232.416 226.653 237.592C228.917 237.219 231.109 236.493 233.148 235.439V235.461Z" fill="#FF6F61"/>
<path d="M170.842 226.608C168.222 226.404 165.847 226.188 163.455 226.04C158.756 225.75 154.363 226.904 150.147 228.779C148.664 229.432 147.056 229.824 145.533 230.415C145.077 230.635 144.557 230.682 144.069 230.547C143.581 230.412 143.158 230.105 142.88 229.682C142.181 228.745 142.544 227.847 143.277 227.04C146.401 223.448 150.576 220.929 155.21 219.841C160.54 218.648 165.915 218.363 171.12 220.614C171.45 220.756 171.973 221.006 172.154 220.875C175.518 218.511 176.365 222.369 178.32 223.301C179.456 223.824 178.348 225.711 176.615 225.978C174.62 226.284 172.603 226.421 170.842 226.608Z" fill="#FF6F61"/>
<path d="M181.206 261.656C182.456 261.531 183.32 261.815 183.655 262.793C184.082 264.037 182.832 263.969 182.189 264.213C179.399 265.293 179.655 267.833 179.076 269.981C179.049 270.066 179.042 270.156 179.054 270.244C179.066 270.332 179.098 270.416 179.147 270.491C179.196 270.565 179.261 270.628 179.337 270.674C179.413 270.721 179.498 270.75 179.587 270.759C179.762 270.81 179.949 270.799 180.117 270.727C180.285 270.656 180.423 270.529 180.507 270.367C181.201 269.202 182.519 268.895 183.587 268.242C184.923 267.429 186.303 267.037 187.707 267.924C188.475 268.386 189.12 269.027 189.586 269.793C190.052 270.559 190.326 271.427 190.383 272.322C190.426 272.575 190.397 272.835 190.298 273.072C190.2 273.31 190.036 273.514 189.827 273.663C189.617 273.811 189.37 273.897 189.114 273.911C188.857 273.925 188.602 273.867 188.377 273.742C186.98 273.06 185.883 273.612 184.701 273.998C183.4 274.419 182.144 274.947 180.9 273.822C180.738 273.652 180.519 273.548 180.285 273.529C180.052 273.51 179.819 273.578 179.632 273.72C176.996 276.248 175.439 273.549 173.916 272.384C172.109 271.015 173.609 269.378 174.371 267.907C175.507 265.708 176.462 263.395 179.087 262.327C179.854 262.003 180.576 261.594 181.206 261.656Z" fill="#FF6F61"/>
<path d="M216.18 268.02C215.984 269.218 215.34 270.297 214.379 271.038C213.939 271.378 213.389 271.545 212.834 271.508C212.279 271.47 211.757 271.23 211.367 270.833C210.532 270.066 211.225 269.572 211.759 268.878C213.083 267.174 212.225 265.85 210.623 264.844C209.532 264.162 207.526 263.708 208.322 262.196C209.117 260.685 210.72 261.929 211.981 262.281C214.919 263.105 215.726 265.367 216.18 268.02Z" fill="#FF6F61"/>
<path d="M204.168 273.333C203.18 273.168 202.378 273.021 201.566 272.896C200.623 272.748 199.446 272.992 199.293 271.566C199.162 270.316 199.895 269.56 200.947 269.117C202.651 268.401 204.413 267.981 206.248 268.549C206.856 268.704 207.401 269.043 207.808 269.52C208.215 269.997 208.464 270.589 208.521 271.214C208.595 272.413 207.242 272.566 206.401 272.918C205.678 273.152 204.927 273.292 204.168 273.333Z" fill="#FF6F61"/>
<path d="M259.593 249.877C259.774 251.582 259.127 252.849 257.479 253.531C256.405 253.974 255.143 254.667 254.212 253.531C253.28 252.394 254.604 251.826 255.189 251.15C256.53 249.536 255.558 248.195 254.7 246.82C254.359 246.252 253.513 245.826 254.325 245.03C254.598 244.782 254.935 244.616 255.297 244.549C255.66 244.483 256.034 244.52 256.376 244.655C259.183 245.405 259.405 247.604 259.593 249.877Z" fill="#FF6F61"/>
<path d="M266.701 72.8019C252.264 80.1363 240.605 91.7195 230.12 104.254C222.691 83.6833 211.128 66.0801 189.167 54.6353C163.188 41.057 125.366 35.9114 98.4449 49.7415C75.9382 61.2803 63.3121 85.5534 64.3025 110.521C64.7842 123.597 68.4344 136.361 74.9393 147.714C78.717 154.059 83.2556 159.918 88.4542 165.162C75.4848 167.368 62.7337 170.508 52.8547 179.878C45.583 187.196 40.1693 196.149 37.0661 205.988C33.963 215.827 33.2608 226.266 35.0181 236.432C42.3464 273.072 74.4086 281.349 106.096 279.347C103.103 287.749 103.54 296.992 107.313 305.074C114.667 320.885 132.8 333.021 150.059 334.254C167.318 335.488 183.595 326.669 195.47 313.69C198.857 319.562 203.2 324.827 208.321 329.269C224.196 342.926 247.707 345.599 266.973 337.91C290.735 328.438 297.383 306.438 292.733 285.433C293.523 285.495 294.297 285.603 295.2 285.627C303.231 285.718 311.219 284.442 318.822 281.856C333.733 276.883 350.569 265.417 356.096 249.927C361.981 233.368 352.341 217.652 341.381 205.796C334.828 198.915 327.165 193.185 318.711 188.846C321.934 186.021 324.942 182.96 327.709 179.687C337.136 168.494 345.602 156.092 348.727 141.57C353.461 119.915 346.481 95.444 328.517 81.9727C311.365 69.1786 286.45 62.7682 266.701 72.8019Z" fill="#F5F0E9"/>
</g>
<defs>
<clipPath id="clip0_299_274">
<rect width="405" height="429" fill="white" transform="translate(0.523926)"/>
</clipPath>
</defs>
</svg>
