<svg width="405" height="434" viewBox="0 0 405 434" fill="none" xmlns="http://www.w3.org/2000/svg">
<g clip-path="url(#clip0_75_64)">
<path d="M137.165 281.662C135.319 282.886 134.037 282.005 132.606 280.85C128.11 277.275 123.921 273.5 121.208 268.404C118.866 264.011 119.214 261.477 122.986 258.051C123.59 257.479 124.308 257.09 123.767 256.072C121.197 251.194 121.442 245.777 120.969 240.572C120.399 234.064 119.709 227.537 119.926 220.971C119.966 219.696 120.262 219.21 121.299 219.416C122.901 219.736 123.391 219.09 123.739 217.74C124.491 214.663 126.52 211.957 126.668 208.669C126.8 207.516 127.226 206.417 127.904 205.477C134.082 196.023 141.223 187.626 151.481 181.684C156.165 178.961 161.123 177.463 166.07 175.752C169.199 174.672 171.701 172.853 174.425 171.245C175.639 170.531 176.704 169.993 178.163 171.114C179.406 172.069 182.882 170.776 183.737 169.061C184.592 167.345 185.811 166.939 187.31 167.654C192.069 169.941 197.306 169.633 202.332 170.456C207.009 171.192 211.492 172.857 215.52 175.352C219.942 178.092 224.484 180.723 229.112 183.108C235.677 186.488 239.94 191.796 243.712 197.596C246.562 202.034 250.095 206.089 252.209 211.031C253.359 213.721 254.345 216.479 255.161 219.29C255.731 221.154 255.811 223.088 257.504 224.483C257.71 224.711 257.854 224.99 257.92 225.291C257.986 225.592 257.972 225.905 257.88 226.199C257.769 227.141 257.854 228.095 258.131 229.002C260.319 238.124 258.774 247.156 257.481 256.198C257.025 259.35 256.609 262.444 256.911 265.687C257.27 269.691 255.042 272.905 251.907 275.244C250.26 276.48 248.881 278.001 247.097 279.082C245.069 280.312 244.356 282.382 244.134 284.544C243.239 293.375 240.743 301.835 237.814 310.191C236.974 312.666 235.406 314.828 233.317 316.391C230.063 318.862 226.895 321.447 223.852 324.158C221.743 326.034 222.034 328.883 221.521 331.319C220.523 336.049 220.563 340.779 222.569 345.372C223.139 346.642 223.435 347.248 224.82 346.121C226.462 344.783 227.67 345.629 228.029 347.305C228.65 350.257 230.12 351.646 233.34 350.811C233.708 350.756 234.083 350.784 234.438 350.894C234.793 351.004 235.119 351.192 235.392 351.446C244.185 357.858 254.552 360.66 264.986 363.108C271.825 364.71 278.162 366.969 283.548 371.39C285.064 372.632 286.967 373.106 288.677 373.924C291.241 375.148 292.979 376.401 293.481 379.581C294.307 384.78 296.695 389.642 297.858 394.846C300.075 404.764 302.867 414.567 305.477 424.399C305.99 426.321 305.255 427.093 303.357 427.065C296.912 426.967 290.472 426.779 284.038 426.31C261.356 424.651 238.674 423.067 215.879 424.182C204.264 424.754 192.656 424.554 181.047 424.371C170.692 424.211 160.457 425.515 150.193 426.435C141.12 427.231 132.07 428.3 123.032 429.398C114.74 430.405 106.505 429.398 98.2017 429.433C94.5772 429.433 90.9185 428.626 87.2883 429.947C85.6128 430.565 82.9229 428.557 82.5639 426.802C82.4784 426.401 82.4955 425.658 82.6494 425.589C85.4988 424.72 84.7922 422.186 85.2424 420.298C86.8324 413.658 90.2403 407.755 93.2835 401.721C95.301 397.718 97.1645 393.622 97.9681 389.338C99.5125 381.165 104.237 376.487 112.54 374.748C118.934 373.404 123.938 369.514 129.067 365.94C132.328 363.571 136.067 361.95 140.02 361.192C144.961 360.3 149.036 357.532 153.447 355.404C158.285 353.082 162.337 348.472 168.572 349.273C169.478 349.393 169.615 348.701 169.809 348.129C171.727 342.29 172.286 336.088 171.444 329.998C171.285 328.762 170.612 327.138 169.626 326.52C164.691 323.363 160.935 318.656 155.749 316.013C148.654 312.393 145.201 306.41 142.505 299.701C140.208 293.913 138.846 287.85 137.165 281.662ZM245.513 360.483C245.126 361.427 246.083 362.531 244.818 363.005C243.809 363.383 243.068 362.794 242.339 362.216C241.609 361.638 240.561 360.266 239.934 360.689C237.78 362.125 234.742 361.553 233.004 364.064C230.36 367.89 227.368 371.499 224.387 375.114C220.43 379.805 216.226 384.28 211.793 388.52C211.377 388.932 210.032 389.304 210.915 390.374C211.411 390.974 212.898 391.312 211.576 392.33C211.16 392.636 210.649 392.784 210.135 392.747C209.62 392.71 209.135 392.492 208.766 392.13C206.436 390.042 203.313 389.11 200.925 387.211C194.311 381.972 187.324 377.225 180.021 373.009C174.438 369.798 169.465 365.619 165.335 360.666C164.081 359.162 161.847 358.544 161.3 356.279C161.049 355.255 160.24 355.896 159.59 356.342C154.504 359.963 148.69 362.424 142.556 363.555C138.641 364.229 135.307 365.945 132.019 367.976C128.548 370.115 125.26 372.494 121.693 374.519C117.795 376.744 113.378 377.253 109.36 378.969C106.648 380.113 104.453 381.789 103.513 384.574C100.226 394.175 96.2887 403.539 91.7277 412.6C90.0751 415.94 88.7757 419.492 88.7814 423.336C88.7814 425.469 89.4026 426.579 91.9557 426.43C94.8792 426.258 97.8256 426.55 100.766 426.59C106.385 426.676 112.027 427.048 117.624 426.716C128.731 426.052 139.667 423.804 150.797 423.072C160.252 422.455 169.66 421.088 179.166 421.282C190.308 421.517 201.466 421.963 212.579 421.282C234.634 419.898 256.586 421.437 278.573 422.621C285.411 422.987 292.278 424.256 299.203 422.998C300.986 422.678 301.174 422.174 300.912 420.584C298.855 408.516 294.786 396.911 292.09 384.992C291.025 380.284 289.121 376.058 283.508 374.788C282.916 374.542 282.387 374.166 281.958 373.69C277.945 370.183 273.095 367.779 267.881 366.712C260.296 365.185 252.973 362.92 245.513 360.483ZM211.12 230.649C210.698 232.302 210.436 233.509 210.094 234.653C208.869 238.891 206.151 242.403 203.825 246.052C202.298 248.425 199.836 244.193 197.87 246.258C197.434 246.013 197.048 245.689 196.73 245.302C196.292 244.605 196.924 243.97 197.084 243.301C197.266 242.54 198.087 241.905 197.722 241.053C196.519 238.193 195.271 235.408 193.915 232.302C192.692 235.008 191.271 237.619 189.664 240.115C187.623 243.415 183.965 245.423 182.363 249.077C181.828 250.296 180.42 250.364 179.867 248.62C178.727 244.994 177.918 241.299 174.738 238.508C173.114 237.095 172.972 234.544 171.951 232.491C171.661 236.632 169.37 240.103 168.264 243.93C167.791 245.554 167.204 245.583 166.082 244.879C161.403 241.974 157.288 238.508 154.347 233.863C153.778 233 154.245 231.49 152.547 231.169C152.385 235.447 152.84 239.726 153.897 243.873C154.142 244.885 154.741 246.16 153.897 246.921C152.809 247.876 151.583 246.761 150.649 246.275C145.719 243.712 142.87 239.411 140.681 234.63C140.22 233.612 139.98 232.399 138.869 231.575C138.487 236.843 138.117 241.871 140.083 246.709C140.442 247.59 140.932 248.654 139.667 249.278C138.402 249.901 137.678 248.963 136.892 248.185C134.965 246.281 133.997 243.609 131.352 241.894C131.734 243.221 132.11 244.296 132.35 245.394C134.629 255.895 136.698 266.431 139.126 276.897C141.132 285.557 143.417 294.17 147.019 302.378C148.854 306.548 151.327 310.345 155.328 312.851C157.374 314.137 159.613 315.253 161.3 316.889C167.164 322.557 174.271 326.412 181.457 330.135C188.473 333.767 195.841 335.226 203.466 331.908C207.399 330.192 211.576 329.048 215.263 326.721C218.762 324.541 221.281 321.23 225.077 319.348C227.231 318.273 228.867 316.271 230.838 314.818C232.474 313.549 233.715 311.839 234.417 309.888C238.857 299.129 240.994 287.845 241.484 276.394C241.854 267.815 242.949 259.315 243.61 250.793C244.014 245.571 242.59 241.573 240.145 237.432C239.934 237.066 239.917 236.494 239.296 236.626C238.777 236.735 238.68 237.232 238.606 237.673C238.486 238.428 238.823 239.566 237.78 239.714C234.275 240.212 233.944 243.312 232.246 245.434C233.072 245.617 233.705 245.743 234.326 245.897C235.574 246.2 237.358 246.469 237.016 247.956C236.674 249.443 235.078 248.528 233.944 248.385C227.584 247.436 221.298 247.064 215.577 250.77C214.813 251.262 213.992 251.342 213.388 250.519C212.881 249.844 213.063 249.192 213.616 248.585C214.271 247.817 215.14 247.263 216.112 246.995C219.572 246.092 222.985 244.965 226.667 245.2C227.316 245.24 228.183 245.491 228.337 244.382C228.946 239.972 227.858 235.711 227.14 231.421C227.127 231.215 227.071 231.014 226.975 230.831C226.88 230.648 226.747 230.488 226.586 230.359C226.425 230.231 226.239 230.138 226.04 230.086C225.841 230.035 225.633 230.026 225.43 230.06C224.41 230.151 223.589 230.632 223.378 231.575C222.358 235.928 219.264 238.959 216.306 242.071C215.166 243.278 213.77 242.86 213.189 241.282C212.824 240.298 213.069 239.331 213.223 238.388C213.599 235.711 212.91 233.331 211.132 230.655L211.12 230.649ZM218.899 327.922C199.175 337.519 194.559 340.505 174.818 329.815C174.071 331.239 175.092 332.56 175.063 333.95C174.917 342.194 173.108 350.323 169.746 357.846C168.897 359.74 168.868 361.347 170.606 363.103C173.339 365.884 176.439 368.275 179.822 370.206C185.056 373.136 190.107 376.383 194.947 379.93C198.212 382.372 201.215 385.129 205.085 386.793C206.795 387.525 208.065 387.365 209.49 385.952C217.201 378.397 224.04 370.161 230.616 361.69C231.984 359.928 232.594 358.967 230.12 357.772C229.007 357.162 228.1 356.232 227.516 355.101C226.684 353.545 226.12 352.155 223.806 352.338C222.609 352.436 222.239 350.994 221.709 350.079C217.737 343.164 216.631 335.912 218.899 327.922ZM135.37 274.661C135.04 277.246 134.099 277.521 131.951 276.16C128.702 274.055 127.631 270.772 126.947 267.306C126.696 266.036 126.645 264.743 128.127 264.103C129.762 263.399 130.976 264.354 132.036 265.344C132.289 265.54 132.466 265.819 132.538 266.131C132.61 266.444 132.571 266.772 132.429 267.06C132.048 267.775 131.54 267.323 131.056 267.06C130.344 266.671 129.916 267.06 130.019 267.695C130.452 269.982 130.914 272.27 133.056 273.734C133.503 274.036 134.047 274.154 134.578 274.066C135.273 273.872 134.983 273.185 134.891 272.688C134.321 269.456 133.797 266.213 133.125 262.999C132.492 259.962 127.996 258.48 125.38 260.379C124.194 261.208 123.375 262.468 123.096 263.891C122.818 265.315 123.101 266.791 123.887 268.009C126.112 271.623 128.944 274.822 132.258 277.464C133.239 278.241 134.504 279.523 135.598 278.693C136.59 277.955 135.735 276.405 135.37 274.661ZM249.348 272.894C252.289 271.098 253.543 268.69 253.48 265.87C253.44 264.103 253.714 261.632 252.038 260.722C250.249 259.75 248.522 261.512 246.978 262.593C245.536 263.594 244.698 264.434 247.337 264.881C248.3 265.046 248.744 265.922 249.2 266.711C250.277 268.615 249.77 270.6 249.331 272.894H249.348ZM210.026 192.477L209.268 192.574C209.758 195.599 209.428 199.117 210.978 201.491C212.144 203.171 212.683 205.21 212.499 207.25C212.391 209.538 212.311 211.826 212.231 214.148C212.231 214.628 211.929 215.292 212.835 215.292C213.479 215.292 214.169 215.172 214.232 214.331C214.269 213.889 214.269 213.446 214.232 213.004C213.981 210.104 213.508 207.222 213.662 204.293C213.918 199.946 212.209 196.126 210.032 192.477H210.026ZM181.115 183.36C182.779 181.506 182.141 179.356 182.312 177.365C182.346 176.999 181.97 176.793 181.566 176.753C179.782 176.61 177.496 176.719 176.693 177.897C174.983 180.431 174.191 183.474 173.701 186.522C175.354 184.463 175.701 181.81 177.326 179.768C177.747 179.236 177.895 178.303 178.847 178.544C179.634 178.732 179.987 179.362 180.483 180.042C181.246 181.117 179.976 182.301 181.115 183.36ZM223.031 200.009C222.923 197.304 223.253 194.593 223.185 191.882C223.139 190.126 222.934 188.324 221.412 187.043C221.139 186.812 220.789 186.693 220.432 186.711C220.045 186.768 219.988 187.134 220.062 187.541C220.797 191.704 221.008 196 223.025 199.986L223.031 200.009ZM162.845 206.758C161.18 209.618 160.707 212.827 159.699 215.91C159.505 216.482 159.653 217.362 158.878 217.425C154.598 217.774 157.311 220.165 157.054 221.726C162.423 217.877 161.705 212.009 162.845 206.758ZM200.389 199.323C199.044 202.932 199.358 205.963 199.819 209.046C199.967 210.018 200.389 210.522 201.409 210.396C202.429 210.27 202.218 209.384 202.304 208.726C202.737 205.591 201.426 202.806 200.389 199.317V199.323ZM247.12 244.936C246.915 249.032 246.698 253.127 246.516 257.222C246.516 257.68 246.379 258.417 247.257 258.274C247.395 258.269 247.53 258.234 247.654 258.172C247.778 258.111 247.887 258.024 247.975 257.917C248.064 257.81 248.128 257.686 248.166 257.553C248.203 257.419 248.212 257.279 248.192 257.142C248.043 253.087 248.739 248.969 247.137 244.931L247.12 244.936ZM179.976 211.465C179.547 213.065 179.012 214.634 178.374 216.161C177.32 218.312 177.525 219.421 179.924 221.109C180.26 217.826 180.694 214.668 179.976 211.465ZM151.903 198.882C149.566 201.742 147.423 203.933 148.837 207.462C150.911 205.094 151.789 202.429 151.908 198.877L151.903 198.882ZM224.661 212.993C224.359 208.886 221.982 205.557 220.506 201.868C221.19 205.832 222.273 209.67 224.661 212.993ZM214.796 177.914C216.568 180.654 218.665 182.233 222.575 181.918C219.725 180.362 217.765 178.549 214.796 177.914ZM234.115 216.093C234.36 212.787 231.836 210.522 230.667 207.702C230.833 210.848 232.451 213.45 234.115 216.093ZM214.995 231.821C214.83 230.106 214.699 228.824 214.574 227.52C214.522 227 214.574 226.279 213.952 226.216C213.332 226.202 212.724 226.387 212.214 226.742C212.108 226.827 212.02 226.933 211.958 227.054C211.896 227.175 211.86 227.307 211.853 227.443C211.846 227.579 211.868 227.715 211.917 227.842C211.967 227.969 212.043 228.083 212.14 228.178C213.029 229.242 213.331 230.729 214.995 231.821ZM169.187 226.594C167.82 229.139 166.401 231.741 168.15 234.807C169.45 232.09 168.652 229.265 169.187 226.594ZM170.943 179.304C168.031 180.826 166.492 183.051 164.48 184.755C164.178 185.007 163.95 185.327 164.292 185.602C164.585 185.767 164.931 185.81 165.255 185.722C166.475 183.245 169.809 182.593 170.943 179.304ZM205.404 175.815C206.299 178.555 208.761 179.968 210.847 181.695C209.975 178.944 207.638 177.423 205.404 175.815ZM193.436 199.637V208.646H194.234C194.32 205.626 194.986 202.606 193.459 199.637H193.436ZM245.57 267.769C245.001 270.506 244.83 273.311 245.063 276.097C245.319 273.5 247.508 271.018 245.57 267.769ZM185.868 182.982C186.666 181.381 190.04 180.122 186.62 177.834C185.521 179.499 185.469 181.209 185.868 182.982ZM229.556 219.879C229.778 221.623 229.978 223.162 230.194 224.821C232.235 223.059 232.235 223.059 229.556 219.879ZM130.287 249.832L128.389 241.751C127.967 244.662 128.799 247.316 130.287 249.832ZM201.734 178.995C201.506 176.925 200.275 176.628 198.999 176.57C198.298 176.542 198.172 177.262 198.36 177.743C198.976 179.287 200.457 178.486 201.734 178.995ZM217.417 189.417C218.227 187.741 217.178 186.557 217.184 185.27C217.184 185.132 217.151 184.997 217.088 184.874C217.026 184.752 216.935 184.646 216.824 184.566C216.712 184.485 216.584 184.432 216.448 184.412C216.313 184.391 216.174 184.403 216.044 184.446C215.377 184.646 215.474 185.253 215.702 185.75C216.204 186.848 216.728 187.935 217.417 189.417ZM211.815 222.699C213.303 221.137 213.32 219.416 212.311 216.859C212.1 219.324 211.958 221.011 211.815 222.699Z" fill="#FF6F61"/>
<path d="M311.415 433.345C309.956 433.288 308.953 432.63 308.845 431.188C308.76 429.982 309.854 429.833 310.726 429.867C312.042 429.919 313.347 430.319 313.512 431.829C313.678 433.339 312.293 433.042 311.415 433.345Z" fill="#FF6F61"/>
<path d="M198.429 315.642C191.71 314.87 184.751 315.356 178.545 311.89C177.882 311.529 177.297 311.04 176.823 310.451C176.35 309.862 175.998 309.185 175.787 308.458C175.547 307.737 175.342 306.41 176.989 305.97C180.882 304.923 184.706 303.642 188.57 302.498C189.618 302.189 190.969 301.629 191.772 302.321C193.921 304.168 195.505 302.961 197.471 301.995C200.891 300.279 204.378 300.016 207.444 302.818C208.664 303.928 210.083 303.894 211.553 303.842C212.836 303.802 214.146 303.671 215.223 304.54C215.622 304.866 216.306 305.598 215.793 305.776C213.263 306.708 213.833 310.094 210.818 310.923C207.256 311.884 203.979 313.754 200.56 315.281C199.887 315.565 199.157 315.688 198.429 315.642ZM207.65 306.902C204.39 302.83 200.589 302.372 198.149 304.946C196.155 307.057 194.633 307.234 192.319 305.392C191.67 304.883 191.248 304.351 190.211 304.563C187.441 305.135 184.831 306.039 182.46 307.938L207.65 306.902ZM203.09 310.374C195.716 309.362 188.353 311.547 180.979 310.649C188.376 312.502 195.75 314.515 203.107 310.368L203.09 310.374Z" fill="#FF6F61"/>
<path d="M226.137 254.94C228.519 257.434 227.602 259.516 226.832 261.466C226.314 262.753 225.048 264.034 223.464 263.754C221.487 263.422 220.147 261.969 219.475 260.128C219.303 259.53 219.243 258.905 219.298 258.286C219.298 256.696 219.395 255.243 217.019 256.661C216.809 256.808 216.569 256.904 216.316 256.942C216.063 256.98 215.805 256.958 215.562 256.879C215.319 256.799 215.098 256.665 214.915 256.485C214.733 256.305 214.595 256.086 214.511 255.844C214.049 254.568 215.269 254.551 216.044 254.128C222.814 250.519 229.152 252.469 235.466 255.397C236.304 255.781 236.976 256.295 236.572 257.199C236.167 258.103 235.181 257.834 234.389 257.64C232.258 257.113 230.571 255.495 228.308 255.26C227.847 255.249 227.408 255.157 226.137 254.94Z" fill="#FF6F61"/>
<path d="M163.3 253.476C166.509 253.476 168.389 254.911 168.919 257.399C169.045 257.971 169.199 258.692 168.384 258.984C168.091 259.124 167.755 259.142 167.449 259.035C167.143 258.928 166.891 258.704 166.748 258.412C166.48 257.943 166.178 257.508 165.91 257.033C165.289 255.809 164.281 256.507 163.505 256.673C162.605 256.862 162.936 257.611 163.141 258.2C163.198 258.372 163.3 258.526 163.34 258.698C163.91 261.272 163.067 263.496 161.232 264.126C159.522 264.698 156.769 263.376 156.245 260.957C155.635 258.097 154.148 258.395 152.136 259.052C151.703 259.19 151.247 259.281 150.803 259.396C149.515 259.727 149.235 258.703 148.865 257.954C148.392 257.01 148.916 256.301 149.885 256.238C154.649 255.861 158.941 253.27 163.3 253.476Z" fill="#FF6F61"/>
<path d="M163.266 246.881C166.031 246.792 168.732 247.725 170.857 249.501C171.478 249.981 172.282 250.673 171.621 251.508C170.874 252.452 170.025 251.697 169.575 251.131C168.281 249.506 166.959 249.872 165.232 250.496C161.682 251.777 157.824 251.605 154.125 252.286C151.954 252.686 149.76 253.012 147.777 253.95C146.426 254.591 145.617 254.133 145.11 253.064C144.54 251.846 145.434 251.348 146.494 250.971C151.96 249.089 157.431 247.304 163.266 246.881Z" fill="#FF6F61"/>
<path d="M182.386 295.068C180.711 294.496 178.272 293.924 176.117 292.843C174.55 292.048 173.678 290.556 175.815 289.12C176.955 288.365 177.97 287.484 179.064 286.689C180.015 285.997 180.876 286.46 181.486 287.124C182.096 287.787 181.759 288.605 181.053 289.183C180.826 289.332 180.612 289.5 180.414 289.686C179.844 290.344 178.044 290.676 178.887 291.585C179.126 291.858 179.421 292.074 179.752 292.219C180.083 292.364 180.442 292.434 180.803 292.424C181.164 292.414 181.519 292.325 181.842 292.162C182.165 291.999 182.448 291.767 182.671 291.482C183.052 291.092 183.509 290.783 184.013 290.577C184.518 290.37 185.059 290.269 185.603 290.281C186.148 290.292 186.685 290.415 187.18 290.642C187.675 290.87 188.119 291.196 188.484 291.602C189.744 293.175 189.219 294.514 187.173 294.777C185.817 294.948 184.438 294.948 182.386 295.068Z" fill="#FF6F61"/>
<path d="M200.851 290.121C202.897 290.001 203.951 291.654 205.472 292.409C206.191 292.763 206.612 293.272 207.222 292.409C207.741 291.7 208.094 290.985 207.268 290.293C206.538 289.675 205.136 289.017 206.35 288.102C207.49 287.244 209.057 287.564 209.861 289.006C210.75 290.596 211.445 292.312 210.146 293.999C208.92 295.589 207.416 295.852 205.296 295.326C203.176 294.8 200.856 295.097 199.397 293.107C198.953 292.506 197.961 291.963 198.48 291.07C198.998 290.178 199.99 290.19 200.851 290.121Z" fill="#FF6F61"/>
<path d="M239.284 253.71C238.378 253.407 237.466 252.95 237.215 251.903C236.999 250.993 237.7 250.919 238.418 250.971C239.426 251.045 240.236 251.377 240.412 252.446C240.532 253.184 240.201 253.659 239.284 253.71Z" fill="#FF6F61"/>
<path d="M182.791 356.439C187.721 356.668 190.815 359.168 193.494 362.354C193.961 362.925 194.303 363.389 193.642 363.921C193.1 364.361 192.65 363.984 192.228 363.6C191.294 362.754 190.348 361.913 189.379 361.101C188.011 359.957 186.575 359.105 184.672 360.049C184.175 360.284 183.621 360.374 183.076 360.306C181.617 360.1 180.175 359.385 180.226 357.932C180.238 356.228 182.09 356.765 182.791 356.439Z" fill="#FF6F61"/>
<path d="M208.573 363.24C207.256 363.595 207.102 362.668 206.823 362.125C206.367 361.215 207.268 361.261 207.809 360.981C209.843 359.991 211.855 358.956 213.861 357.915C215.03 357.379 216.325 357.181 217.6 357.343C217.962 357.376 218.304 357.524 218.577 357.766C218.85 358.008 219.038 358.33 219.116 358.687C219.18 358.833 219.211 358.992 219.205 359.152C219.199 359.312 219.157 359.468 219.082 359.609C219.006 359.749 218.9 359.871 218.77 359.964C218.641 360.057 218.492 360.119 218.335 360.146C215.109 360.472 212.294 361.862 209.399 363.074C209.133 363.17 208.855 363.226 208.573 363.24Z" fill="#FF6F61"/>
</g>
<path d="M266.176 73.4757C251.739 80.8102 240.079 92.3933 229.594 104.928C222.166 84.3571 210.602 66.754 188.642 55.3091C162.663 41.7308 124.841 36.5852 97.9193 50.4153C75.4126 61.9541 62.7866 86.2271 63.777 111.195C64.2586 124.271 67.9088 137.035 74.4138 148.388C78.1914 154.733 82.73 160.592 87.9286 165.836C74.9593 168.042 62.2081 171.182 52.3292 180.552C45.0575 187.87 39.6437 196.823 36.5406 206.662C33.4375 216.501 32.7352 226.94 34.4926 237.106C41.8209 273.746 73.883 282.022 105.571 280.021C102.578 288.423 103.015 297.666 106.787 305.748C114.142 321.559 132.275 333.695 149.534 334.928C166.793 336.162 183.07 327.343 194.945 314.364C198.332 320.236 202.675 325.501 207.795 329.943C223.671 343.6 247.182 346.273 266.447 338.584C290.21 329.112 296.857 307.112 292.208 286.107C292.997 286.169 293.771 286.277 294.675 286.301C302.705 286.392 310.693 285.116 318.297 282.53C333.207 277.557 350.044 266.091 355.57 250.601C361.455 234.042 351.816 218.326 340.856 206.47C334.303 199.588 326.639 193.859 318.185 189.52C321.408 186.695 324.416 183.634 327.183 180.361C336.61 169.168 345.076 156.766 348.202 142.244C352.936 120.589 345.955 96.1178 327.992 82.6465C310.84 69.8525 285.924 63.442 266.176 73.4757Z" fill="#F5F0E9"/>
<defs>
<clipPath id="clip0_75_64">
<rect width="231" height="266" fill="white" transform="translate(82.5239 167.345)"/>
</clipPath>
</defs>
</svg>
