<svg width="405" height="429" viewBox="0 0 405 429" fill="none" xmlns="http://www.w3.org/2000/svg">
<path d="M210.304 158.001C208.905 156.302 207.19 154.891 205.252 153.847C204.485 153.433 203.502 152.711 203.934 151.779C204.428 150.739 205.639 150.91 206.605 151.319C210.872 153.109 215.577 154.137 218.753 157.825C219.89 159.166 221.378 158.922 222.81 158.564C228.896 157.046 234.226 159.325 239.482 161.695C240.397 162.109 242.135 162.74 241.493 164.388C240.794 166.195 239.294 165.325 237.965 165.2C236.442 165.058 234.896 165.166 232.737 165.166C237.538 168.052 241.959 171.526 245.897 175.508C248.738 178.287 251.863 180.827 254.455 183.742C257.466 187.123 259.347 191.344 260.779 195.674C263.154 202.823 264.188 210.244 265.62 217.585C265.819 218.619 266.188 219.636 266.313 220.676C266.529 222.381 267.052 224.392 264.109 224.455C263.878 224.434 263.647 224.502 263.464 224.644C263.281 224.787 263.158 224.993 263.12 225.222C262.921 228.876 260.807 232.2 263.688 236.228C267.098 241.018 267.99 246.939 264.745 252.48C261.626 257.804 256.96 261.781 251.483 264.799C250.346 265.424 250.511 266.174 250.375 266.924C249.38 272.293 249.806 277.822 248.534 283.158C246.516 291.732 244.846 300.364 239.715 308.023C235.788 313.876 231.038 318.615 224.748 322.03C221.503 323.791 221.731 327.326 221.179 330.15C220.532 333.502 220.981 337.048 220.907 340.514C220.907 341.492 220.969 342.156 222.219 342.384C223.469 342.611 224.015 343.759 224.492 344.833C225.685 347.407 226.839 350.004 228.18 352.509C231.254 358.249 237.271 360.425 242.664 363.351C243.346 363.726 243.624 363.499 244.13 362.851C245.994 360.504 248 359.175 251.682 359.487C256.364 359.891 259.25 361.942 261.853 365.255C264.756 368.948 268.774 370.977 273.575 371.414C276.257 371.659 278.513 372.397 280.201 374.608C281.888 376.818 284.178 377.767 287.196 376.881C289.247 376.284 291.025 377.346 292.764 378.523C298.174 382.165 300.634 387.739 302.947 393.217C305.867 400.144 308.152 407.32 310.555 414.434C311.072 415.963 311.817 416.338 313.283 416.139C313.78 416.066 314.287 416.116 314.761 416.285C315.234 416.453 315.659 416.735 315.999 417.105C316.715 417.793 317.192 418.497 316.794 419.435C316.642 419.875 316.331 420.243 315.923 420.467C315.514 420.69 315.037 420.754 314.584 420.645C312.123 419.94 312.356 421.276 312.737 422.73C313.007 423.748 313.345 424.747 313.749 425.719C314.237 426.907 313.482 427.629 312.663 428.117C311.845 428.606 310.873 428.276 310.294 427.424C309.271 425.961 308.609 424.277 308.362 422.509C308.186 421.083 307.561 420.702 306.254 420.804C288.167 422.509 270.115 421.003 252.062 420.117C245.068 419.77 238.112 419.906 231.14 420.23C224.043 420.554 216.997 419.662 209.923 419.469C206.354 419.384 202.769 419.401 199.206 419.628C189.45 420.264 179.733 419.145 169.994 419.117C159.246 419.028 148.503 419.631 137.833 420.923C122.9 422.81 108.052 425.532 92.9429 425.878C89.1188 425.969 85.2719 425.225 81.4478 424.787C80.741 424.614 80.062 424.342 79.4306 423.981C79.2384 423.915 79.0612 423.812 78.9093 423.677C78.7573 423.542 78.6336 423.379 78.5454 423.196C78.4571 423.013 78.406 422.814 78.3951 422.611C78.3841 422.409 78.4136 422.206 78.4816 422.014C78.726 421.048 79.6181 421.213 80.3 421.27C83.0388 421.509 85.7663 421.895 88.5051 422.117C98.0171 422.89 107.313 421.037 116.678 419.952C129.48 418.463 142.174 416.065 155.106 415.611C166.38 415.213 177.637 415.611 188.904 415.969C194.314 416.133 199.74 415.775 205.156 415.594C213.071 415.332 220.901 417.054 228.828 416.452C244.829 415.241 260.756 417.06 276.718 417.588C286.273 417.904 295.838 417.715 305.373 417.02C306.93 416.906 307.197 416.486 306.742 415.054C305.038 409.701 305.078 409.542 299.321 410.633C295.747 411.309 292.213 410.673 288.707 410.894C280.053 411.463 271.467 410.48 262.853 410.264C253.898 410.036 244.965 408.923 236.027 408.144C227.089 407.366 218.066 408.031 209.082 408.678C199.104 409.394 189.103 410.008 179.074 409.639C167.761 409.224 156.538 410.247 145.361 411.849C137.833 412.929 130.258 413.275 122.633 413.508C110.132 413.889 97.6307 414.122 85.2549 415.861C83.1695 416.156 81.641 417.162 81.0273 418.957C80.4591 420.577 79.2203 420.628 77.9589 420.202C76.5383 419.719 76.1065 418.577 76.6917 417.219C77.7543 414.798 78.618 412.355 79.8908 410.116C84.3428 402.443 87.2391 393.969 88.4142 385.177C88.5741 383.701 89.1036 382.289 89.9538 381.073C90.804 379.856 91.9474 378.873 93.2782 378.216C97.4402 376.021 101.267 373.243 104.643 369.965C106.796 367.92 109.592 367.806 112.262 367.403C113.28 367.249 114.848 367.505 115.104 368.579C115.797 371.261 116.996 369.778 118.081 369.079C124.661 364.834 128.747 358.516 133.042 352.373C133.554 351.64 134.104 350.934 134.69 350.259C135.435 349.407 136.787 349.021 137.361 349.765C139.486 352.521 141.782 350.362 143.981 350.231C145.685 350.129 147.214 349.56 147.009 352.413C146.907 353.902 148.271 355.623 149.282 356.998C150.015 357.964 151.152 356.953 152.021 356.669C156.362 355.254 159.976 352.691 163.385 349.85C165.134 348.28 166.997 346.842 168.96 345.549C171.659 343.907 172.721 341.622 172.721 338.73C172.721 335.73 172.858 332.735 172.523 329.735C172.369 328.366 172.523 327.047 170.636 326.735C170.521 326.726 170.409 326.693 170.309 326.637C170.208 326.582 170.12 326.505 170.052 326.412C169.984 326.319 169.937 326.212 169.914 326.099C169.891 325.986 169.893 325.87 169.92 325.758C170.829 323.161 168.687 323.115 167.136 322.729C160.169 320.996 154.067 317.734 149.822 312.154C146.14 307.33 143.515 301.864 141.338 296.244C138.696 289.397 135.81 282.635 133.707 275.606C133.525 274.992 133.4 274.14 132.321 274.345C125.758 275.583 121.661 272.339 119.388 267.026C117.217 261.946 114.939 256.798 114.751 251.116C114.677 248.763 115.285 246.74 117.087 245.144C118.456 243.933 118.473 242.007 117.456 241.365C113.984 239.183 114.962 235.865 115.263 233.217C116.672 220.716 118.479 208.272 123.905 196.629C124.677 195.117 125.316 193.541 125.815 191.918C127.099 187.179 131.014 184.367 134.287 181.122C135.268 180.084 136.155 178.961 136.935 177.764C141.094 171.798 148.078 169.684 154.033 166.24C160.645 162.383 167.848 159.642 175.352 158.126C180.216 157.16 185.177 157.166 190.092 156.734C196.757 156.154 203.246 157.609 210.304 158.001ZM200.434 201.641C200.127 202.851 200.036 203.345 199.865 203.828C199.348 205.311 200.479 207.084 199.706 208.204C198.747 209.537 198.301 211.171 198.451 212.806C198.524 214.306 196.655 214.84 195.428 213.715C194.291 212.675 193.723 211.278 193.115 209.874C191.893 206.959 191.66 203.828 190.922 200.379C188.973 203.033 187.376 205.357 185.614 207.561C184.404 209.067 182.603 210.198 182.319 212.255C182.194 213.176 181.858 213.806 180.909 213.92C180.497 213.956 180.083 213.878 179.712 213.696C179.34 213.514 179.025 213.234 178.801 212.886C177.801 211.579 177.727 210.079 177.994 208.579C178.098 208.238 178.078 207.871 177.939 207.543C177.8 207.215 177.55 206.946 177.233 206.783C176.46 206.34 176.097 207.039 175.625 207.408C174.716 208.147 173.92 209.062 172.926 209.653C169.517 211.67 166.96 214.982 162.624 215.613C159.664 216.045 158.647 215.193 159.453 212.477C160.101 210.204 160.277 207.931 160.334 204.834C156.357 209.73 151.867 214.185 146.941 218.125C145.873 218.96 144.856 220.006 143.361 219.721C141.998 219.466 141.838 218.136 141.657 216.494C138.685 221.773 134.457 225.199 130.542 228.887C129.799 229.52 129.23 230.333 128.889 231.248C128.548 232.163 128.446 233.149 128.593 234.115C128.713 235.075 129.076 236.177 128.053 236.808C126.633 237.689 126.996 238.984 127.104 240.121C127.974 249.292 131.696 257.792 133.991 266.634C134.775 269.634 136.474 272.316 137.469 275.225C141.242 286.243 145.066 297.233 150.805 307.495C153.689 312.877 158.521 316.952 164.312 318.888C167.511 319.979 170.75 320.962 173.971 322.03C181.307 324.485 188.626 326.968 195.962 329.417C198.313 330.241 200.876 330.227 203.218 329.377C211.247 326.57 218.247 321.888 225.623 317.933C232.998 313.978 237.22 306.938 240.158 299.534C243.567 290.954 245.272 281.959 246.068 272.776C247.261 258.719 248.852 244.701 249.181 230.586C249.267 226.762 248.761 223.688 245.477 221.074C242.086 218.315 239.343 214.844 237.442 210.908C236.874 211.624 237.226 211.908 237.3 212.232C237.556 213.369 238.493 214.568 237.3 215.642C235.925 216.852 234.675 215.846 233.584 215.125C230.667 213.322 228.038 211.092 225.782 208.51C225.435 208.084 224.901 207.067 224.469 207.596C223.6 208.658 221.123 209.158 222.765 211.403C224.407 213.647 224.498 215.551 221.276 216.517C220.969 216.605 220.7 216.792 220.511 217.049C220.322 217.306 220.223 217.618 220.23 217.937C220.23 218.886 221.191 218.505 221.731 218.505C225.265 218.67 228.436 220.153 231.805 220.92C236.198 221.926 240.687 222.71 242.312 227.671C242.613 228.591 243.817 229.489 242.278 230.376C240.959 231.126 240.249 230.285 239.561 229.41C238.874 228.535 238.533 227.529 237.101 227.648C233.72 227.938 230.282 226.887 227.129 227.023C220.952 227.29 216.179 222.904 210.167 223.392C209.076 223.477 208.718 222.438 208.605 221.517C208.468 220.381 209.355 220.381 210.15 220.096C212.52 219.193 215.088 219.113 217.827 218.392C210.582 214.204 205.212 208.681 200.434 201.641ZM175.574 325.871C175.903 327.621 176.216 328.894 176.381 330.184C176.892 334.224 176.528 338.241 176.307 342.293C176.045 347.18 173.943 351.424 172.471 355.896C172.017 357.288 170.539 357.072 169.403 356.572C168.267 356.072 167.789 355.254 168.482 354.015C169.176 352.777 170.039 351.396 170.079 349.469C169.284 350.123 168.761 350.475 168.335 350.913C162.868 356.487 155.641 359.345 148.447 361.709C144.884 362.88 146.384 364.232 146.742 365.874C146.956 366.742 147.378 367.545 147.97 368.215C154.623 375.846 161.346 383.375 170.13 388.933C176.438 392.91 183.251 395.575 190.711 395.524C198.896 395.559 206.99 393.802 214.423 390.376C220.623 387.461 226.521 384.097 232.373 380.614C236.993 377.858 240.096 373.926 242.931 369.664C243.8 368.352 243.607 367.545 242.204 366.67C240.044 365.329 237.857 364.061 235.595 362.885C231.521 360.754 227.85 358.158 225.407 354.243C224.038 352.044 223.492 349.441 221.702 347.1C222.197 351.026 223.202 354.515 224.106 358.033C224.379 359.107 224.611 360.521 222.969 360.823C221.628 361.073 220.958 360.203 220.321 359.033C219.157 356.879 219.708 354.561 219.185 352.356C217.656 345.742 217.082 338.944 217.48 332.167C217.617 329.957 218.219 327.769 218.128 325.32C215.037 326.877 212.156 328.212 209.389 329.741C203.599 332.928 197.888 333.912 191.439 331.042C186.535 328.86 181.125 327.633 175.574 325.871ZM278.422 377.761C278.402 378.465 278.33 379.165 278.206 379.858C277.695 381.739 277.791 382.699 280.405 382.301C283.019 381.904 285.894 382.029 288.639 382.074C290.253 382.102 291.48 382.921 291.4 384.62C291.309 386.438 290.128 386.773 288.394 386.37C285.678 385.733 282.9 386.336 280.144 386.245C279.007 386.211 277.485 386.313 277.07 387.95C276.871 388.739 276.541 389.546 275.484 389.495C274.428 389.444 273.28 388.995 273.064 388.018C272.677 386.239 271.581 386.478 270.223 386.54C259.677 387.035 249.125 387.745 238.573 387.785C234.027 387.785 231.635 390.694 228.294 392.501C231.597 392.893 234.927 393.003 238.249 392.831C243.363 392.507 248.477 391.899 253.619 391.484C266.74 390.41 279.854 391.16 292.969 391.774C294.878 391.859 296.492 392.603 296.162 394.836C296.02 395.836 296.423 396.064 297.213 396.291C298.645 396.694 299.543 397.785 299.094 399.053C298.685 400.189 297.389 400.649 295.918 400.456C294.105 400.217 292.253 400.297 290.417 400.172C279.013 399.382 267.688 401.132 256.324 401.411C249.306 401.575 242.232 401.831 235.26 402.479C228.487 403.115 221.731 402.701 214.986 403.257C210.849 403.604 206.542 402.922 202.513 403.485C198.485 404.047 194.376 404.667 190.274 404.587C186.171 404.508 181.932 404.78 178.068 403.053C172.871 400.627 167.509 398.571 162.022 396.899C163.113 399.74 161.726 399.882 159.357 399.53C157.777 399.291 156.072 399.621 154.453 399.865C146.021 401.166 137.628 402.706 129.167 403.809C117.259 405.235 105.26 405.759 93.2725 405.377C86.8913 405.223 85.8856 406.008 83.5161 412.167C84.5332 411.86 85.3174 411.218 86.3572 411.383C91.2212 412.156 96.0511 411.218 100.892 410.98C108.387 410.61 115.871 409.94 123.366 409.843C129.673 409.752 135.946 409.394 142.208 408.82C154.248 407.718 166.255 406.053 178.398 406.502C188.705 406.883 198.968 406.064 209.241 405.57C216.287 405.229 223.282 404.235 230.39 404.769C247.517 406.053 264.637 407.423 281.832 407.536C288.343 407.582 294.901 407.94 301.236 405.996C302.373 405.655 303.254 405.661 302.748 404.007C301.033 398.143 298.749 392.461 295.929 387.04C294.683 384.533 292.775 382.415 290.412 380.915C289.798 380.54 289.235 379.903 288.44 380.159C284.769 381.324 281.701 379.83 278.434 377.761H278.422ZM88.1698 401.945C102.137 403.468 149.578 398.854 159.385 394.819C155.834 393.797 153.51 390.995 150.333 391.069C145.219 391.177 140.105 391.347 134.991 391.529C129.038 391.821 123.114 392.539 117.263 393.677C108.853 395.206 100.313 395.416 91.8292 396.177C90.6927 396.274 89.8688 396.569 89.5165 397.666C89.0619 399.087 88.6244 400.507 88.1698 401.945ZM94.6646 381.972C92.3917 384.978 92.0622 388.347 91.1416 391.507C90.7553 392.848 91.9599 392.728 92.9088 392.717C103.404 392.603 113.66 390.637 123.979 389.148C128.485 388.495 133.071 387.722 137.571 387.79C140.903 387.761 144.23 387.547 147.538 387.148C146.197 385.5 144.697 384.307 144.066 382.745C142.628 379.062 139.702 378.937 136.48 379.273C134.656 379.46 132.855 379.841 131.054 380.159C123.223 381.625 115.496 383.694 107.381 383.159C104.08 382.943 100.716 382.938 97.5569 384.052C95.3976 384.813 94.693 384.125 94.6646 381.972ZM228.197 388.109C227.697 387.989 227.487 387.864 227.367 387.921C226.442 388.297 225.537 388.722 224.657 389.194C215.589 394.398 205.476 397.519 195.053 398.331C184.37 399.223 175.131 395.615 166.539 389.876C159.533 385.194 153.885 379.17 148.117 373.25C144.18 369.204 141.884 364.658 142.395 358.913C142.638 356.812 143.268 354.774 144.253 352.902C141.412 354.862 140.554 356.748 140.742 359.413C141.003 363.061 143.441 366.38 142.975 369.931C142.458 373.909 145.583 376.352 146.384 379.807C147.521 384.745 152.589 387.876 156.788 390.603C162.596 394.387 169.636 396.064 176.023 398.911C179.24 400.45 182.763 401.244 186.33 401.235C192.183 401.121 198.127 401.928 203.712 399.479C207.085 398.075 210.529 396.849 214.031 395.808C219.202 394.172 223.413 390.904 228.197 388.109ZM241.397 383.892C242.636 384 243.073 384.091 243.505 384.069C252.752 383.584 261.997 383.091 271.24 382.591C272.263 382.534 273.774 382.909 273.513 381.193C273.251 379.477 274.03 376.846 271.382 376.704C267.723 376.511 264.2 375.199 260.472 375.716C259.506 375.846 257.989 376.051 257.926 374.483C257.87 373.113 259.262 372.835 260.285 372.727C261.946 372.626 263.611 372.611 265.274 372.681C264.848 371.863 264.165 371.208 263.33 370.818C261.387 370.073 260.25 367.136 258.784 367.499C257.125 367.908 256.017 370.34 254.642 371.846C250.592 376.256 246.149 380.288 241.368 383.892H241.397ZM289.485 396.058C288.491 395.228 287.275 395.314 286.122 395.274C282.172 395.143 278.223 395.024 274.268 394.956C268.484 394.859 262.688 394.291 256.921 394.984C245.761 396.319 234.612 397.257 223.424 395.331C223.061 395.314 222.703 395.414 222.401 395.615C219.231 397.368 215.88 398.77 212.406 399.797C238.147 399.984 263.688 396.643 289.457 396.058H289.485ZM113.66 379.636C116.751 379.295 119.57 379.068 122.36 378.5C127.974 377.409 133.417 375.369 139.281 375.63C139.6 375.63 140.151 375.477 140.219 375.272C140.747 373.789 139.793 372.431 139.804 370.914C139.804 369.863 138.543 370.039 137.793 370.085C133.673 370.335 129.536 370.539 125.565 371.789C124.883 372.005 123.786 372.448 123.508 372.181C121.235 369.999 119.808 372.136 118.058 372.965C116.536 373.693 115.268 374.807 113.461 375.159C111.654 375.511 112.325 377.312 112.189 378.494C112.052 379.676 113.109 379.608 113.66 379.636ZM251.045 261.162C252.807 259.9 253.886 259.241 254.841 258.423C260.125 253.843 264.546 248.905 262.33 241.268C262.147 240.707 261.849 240.189 261.454 239.75C261.059 239.31 260.577 238.958 260.038 238.716C259.499 238.475 258.916 238.348 258.325 238.345C257.734 238.342 257.149 238.463 256.608 238.7C254.795 239.569 253.483 239.547 252.949 237.092C252.676 245.053 251.329 252.718 251.045 261.162ZM129.775 264.083C127.962 258.054 126.934 252.366 121.979 248.354C120.587 247.218 119.763 247.218 119.189 248.922C118.943 249.673 118.792 250.452 118.74 251.241C118.377 255.44 120.593 259.054 121.678 262.923C123.076 267.776 125.121 271.85 131.633 270.901C130.968 268.947 131.196 266.236 127.656 266.276C127.122 266.276 126.519 265.742 126.048 265.316C123.935 263.283 122.426 260.704 121.689 257.866C121.405 256.866 121.513 256.201 122.485 255.644C123.667 254.963 124.422 255.588 125.07 256.36C125.718 257.133 125.763 257.934 125.94 258.815C126.32 260.861 127.053 262.781 129.775 264.083ZM240.306 379.511C242.01 379.244 242.868 377.937 244.016 377.017C247.551 374.204 250.528 370.863 253.437 367.459C254.881 365.755 253.347 364.664 252.659 363.482C252.176 362.658 251.062 362.601 250.193 363.09C248.846 363.851 249.136 365.169 249.625 366.164C250.42 367.869 250.051 368.84 248.21 369.511C247.642 369.721 247.244 370.511 246.806 371.056C244.573 373.818 242.971 377.006 240.306 379.511ZM130.224 362.698C132.338 363.488 134.202 362.294 136.06 362.811C137.918 363.328 138.293 362.618 137.946 360.987C137.503 358.947 137.02 356.879 137.884 354.811C138.094 354.299 138.986 353.799 138.276 353.231C137.565 352.663 136.861 353.231 136.452 353.828C134.361 356.748 132.315 359.703 130.224 362.698ZM97.9717 380C100.324 380 102.438 379.83 104.512 380.04C107.398 380.335 108.489 378.943 108.677 376.488C108.751 375.61 108.779 374.728 108.762 373.846C108.762 373.346 108.83 372.71 108.154 372.517C107.885 372.455 107.604 372.482 107.352 372.593C107.099 372.703 106.888 372.891 106.751 373.13C104.461 376.023 101.267 377.932 97.9717 380ZM242.698 182.457C243.834 178.44 241.993 175.968 239.033 174.008C238.465 173.616 237.635 173.048 237.084 173.701C236.453 174.451 237.271 174.911 237.931 175.252C238.364 175.491 238.741 175.821 239.035 176.22C239.329 176.618 239.534 177.075 239.635 177.559C240.13 179.417 241.363 180.775 242.698 182.457ZM199.655 167.144C200.763 166.968 201.576 165.706 201.928 164.246C202.11 163.524 201.598 162.405 200.638 162.655C199.127 163.047 197.132 163.314 196.74 165.03C196.558 165.899 197.416 167.195 199.655 167.144ZM140.628 190.668L141.344 191.236L148.436 180.668L147.72 180.19C144.1 182.827 143.145 187.276 140.628 190.668ZM235.817 194.646C236.385 198.657 236.01 202.294 238.317 205.368C237.999 201.891 239.124 198.095 235.817 194.657V194.646ZM167.687 185.355C170.051 182.514 172.432 179.645 173.636 176.099C169.977 178.196 169.198 181.991 167.687 185.355ZM210.264 169.042C210.457 168.144 210.11 167.678 209.554 167.57C209.282 167.534 209.007 167.597 208.779 167.747C208.55 167.897 208.383 168.125 208.309 168.388C207.798 169.877 207.377 171.4 206.889 172.9C206.661 173.604 207.076 173.894 207.65 173.991C208.224 174.087 209.247 174.332 209.241 173.565C209.182 171.994 209.535 170.435 210.264 169.042ZM124.667 246.644C124.405 244.865 124.201 243.166 123.9 241.49C123.871 241.285 123.799 241.089 123.688 240.915C123.577 240.74 123.429 240.592 123.256 240.48C123.082 240.368 122.886 240.294 122.682 240.265C122.477 240.235 122.268 240.25 122.07 240.308C121.144 240.507 121.672 241.405 121.706 241.865C121.848 243.831 122.468 245.627 124.667 246.644ZM215.19 184.054C212.764 184.656 212.775 186.208 213.486 188.032C213.707 188.6 214.026 189.276 214.764 189.168C215.622 189.06 215.463 188.248 215.446 187.691C215.406 186.475 215.276 185.276 215.19 184.054ZM206.161 178.718L205.235 178.65C204.879 182.438 204.519 186.227 204.155 190.015L205.116 190.094C205.633 186.333 205.184 182.457 206.161 178.718ZM177.585 170.195C173.75 170.599 171.63 171.968 169.687 175.309L177.585 170.195ZM134.65 204.226C136.526 201.72 137.492 198.856 138.293 195.919C135.577 198.078 135.668 201.374 134.65 204.226ZM125.82 367.709C128.889 366.772 132.236 367.59 135.247 366.334C132.059 366.482 128.838 366.437 125.82 367.709ZM208.48 161.445C207.215 160.807 205.764 160.642 204.388 160.979C205.394 164.263 205.394 164.263 208.48 161.433V161.445ZM179.04 174.695C176.557 177.19 175.773 179.707 175.062 182.247C176.653 180.122 178.256 177.991 179.04 174.695ZM246.556 211.283C246.899 208.764 246.658 206.2 245.852 203.788C245.607 206.306 245.602 208.806 246.556 211.283Z" fill="#FF6F61"/>
<path d="M193.331 314.893C184.239 313.757 175.256 312.563 167.096 307.921C162.516 305.313 159.215 301.636 155.942 297.846C153.538 295.062 152.868 291.494 151.919 288.107C151.224 285.615 150.843 283.046 150.782 280.459C150.703 277.362 152.43 275.913 155.538 276.726C156.164 276.864 156.769 277.082 157.34 277.373C165.34 281.959 174.358 281.641 183.052 281.527C190.893 281.425 198.871 281.237 206.616 279.669C214.151 278.14 221.606 276.26 229.174 274.845C230.22 274.652 231.158 273.975 232.18 273.623C233.317 273.231 234.328 272.231 235.703 273.299C237.078 274.367 238.419 275.544 238.039 277.453C236.573 284.783 235.698 292.255 230.243 298.312C225.765 303.279 220.407 306.728 214.185 309.387C208.903 311.638 203.391 313.304 197.746 314.353C196.269 314.654 194.825 314.654 193.331 314.893ZM190.564 297.608C187.507 297.312 184.541 298.142 181.529 298.341C176.415 298.682 171.471 300.085 166.534 301.409C164.261 302.012 164.96 302.904 166.227 303.733C168.642 305.324 171.079 306.961 173.847 307.904C183.967 311.347 194.183 313.206 204.735 309.455C209.883 307.62 215.173 306.108 219.594 302.796C220.134 302.398 221.128 302.142 220.731 301.256C220.447 300.597 219.623 300.415 218.873 300.341C217.6 300.222 216.31 300.182 215.054 299.972C206.957 298.585 198.718 298.506 190.564 297.608ZM160.908 288.363C161.715 288.363 162.175 288.363 162.613 288.363C165.647 288.471 166.448 287.226 165.408 284.431C164.715 282.584 162.959 282.862 161.653 282.26C160.022 281.521 157.533 279.919 156.834 280.442C155.3 281.578 157.362 283.493 157.334 285.186C157.306 287.698 158.107 289.38 160.908 288.334V288.363ZM173.659 283.817V283.874C173.126 283.755 172.579 283.713 172.034 283.749C171.21 283.931 170.028 283.34 169.625 284.425C169.221 285.51 170.022 286.238 170.761 286.925C172.67 288.704 174.994 288.164 177.239 287.954C178.262 287.857 178.898 287.385 178.779 286.215C178.676 285.186 178.523 284.272 177.199 284.147L173.659 283.817ZM211.082 286.419C215.463 286.118 216.105 285.55 215.77 282.362C215.673 281.459 215.594 280.658 214.202 280.766C210.304 281.09 208.73 282.05 208.912 284.238C209.025 285.533 208.798 287.26 211.082 286.385V286.419ZM200.025 287.147C200.956 287.039 202.212 286.834 203.479 286.766C204.911 286.687 205.411 285.988 205.247 284.709C205.082 283.431 204.44 282.8 203.07 282.902C201.366 283.033 199.627 283.164 197.899 283.272C197.053 283.328 196.081 283.362 196.127 284.408C196.172 285.454 196.325 286.772 197.774 287.107C198.522 287.183 199.276 287.185 200.025 287.113V287.147ZM188.137 284.13C186.279 284.13 185.183 284.067 184.097 284.13C183.37 284.192 182.279 283.993 182.478 285.311C182.631 286.317 182.404 287.641 184.04 287.635C186.234 287.635 188.439 287.522 190.626 287.334C191.592 287.249 192.433 286.766 192.149 285.579C191.91 284.578 191.461 283.755 190.115 283.936C189.211 284.05 188.291 284.084 188.137 284.095V284.13ZM222.299 284.402C222.896 284.215 225.06 285.147 224.532 282.868C224.242 281.612 225.555 279.237 222.93 279.197C221.572 279.197 219.009 278.629 219.35 281.47C219.52 282.834 219.032 284.902 222.299 284.368V284.402ZM231.158 277.527C230.407 278.334 227.652 276.879 228.169 279.766C228.362 280.817 227.208 282.72 229.709 282.607C231.703 282.499 233.499 282.141 233.584 279.567C233.641 277.925 232.874 277.521 231.158 277.493V277.527Z" fill="#FF6F61"/>
<path d="M162.516 243.553C156.675 242.769 151.192 242.945 146.038 241.178C145.18 240.882 144.185 240.609 143.589 240.041C142.731 239.2 141.918 238.53 143.981 237.41C148.618 234.887 153.737 233.518 158.419 231.16C159.174 230.812 160.022 230.718 160.834 230.893C167.32 231.961 173.799 233.042 180.273 234.137C181.37 234.325 182.546 234.705 182.813 235.887C183.126 237.166 182.08 237.592 181.109 238.223C176.83 240.95 172.017 241.973 167.062 242.365C165.25 242.519 163.727 243.388 162.516 243.553ZM176.881 236.734C174.358 235.984 172.199 235.319 170.028 234.711C169.415 234.535 168.619 234.421 168.437 235.234C168.11 236.408 167.963 237.624 168 238.842C168.062 239.621 169.102 239.308 169.636 239.189C172.006 238.672 174.574 238.683 176.881 236.74V236.734ZM148.646 238.916C151.112 239.57 153.647 239.927 156.198 239.979C158.391 239.979 156.953 238.41 157.044 237.655C157.135 236.899 157.493 235.262 155.811 235.711C153.413 236.348 150.919 236.922 148.646 238.916Z" fill="#FF6F61"/>
<path d="M209.645 229.898C214.48 229.523 219.305 229.143 224.146 228.762C225.61 228.652 227.072 229.002 228.328 229.762C231.094 231.32 234.099 232.409 237.221 232.984C237.758 233.074 238.269 233.278 238.721 233.582C239.172 233.885 239.554 234.282 239.84 234.745C240.283 235.456 240.443 236.217 239.511 236.45C234.726 237.768 230.521 240.814 225.197 240.604C222.356 240.496 219.861 239.467 217.208 238.848C212.662 237.814 208.514 235.774 204.531 233.444C203.86 233.052 203.093 232.597 203.428 231.569C203.562 231.043 203.87 230.579 204.303 230.252C204.736 229.926 205.267 229.757 205.809 229.773C207.088 229.745 208.366 229.773 209.639 229.773L209.645 229.898ZM210.406 233.757L218.645 236.24C217.458 231.887 217.049 231.756 210.406 233.757ZM232.624 235.461C228.294 232.154 227.51 232.416 226.129 237.592C228.393 237.219 230.585 236.493 232.624 235.439V235.461Z" fill="#FF6F61"/>
<path d="M170.318 226.608C167.698 226.404 165.323 226.188 162.931 226.04C158.232 225.75 153.839 226.904 149.623 228.779C148.14 229.432 146.532 229.824 145.009 230.415C144.553 230.635 144.033 230.682 143.545 230.547C143.057 230.412 142.634 230.105 142.356 229.682C141.657 228.745 142.02 227.847 142.753 227.04C145.877 223.448 150.052 220.929 154.686 219.841C160.016 218.648 165.391 218.363 170.596 220.614C170.926 220.756 171.449 221.006 171.63 220.875C174.994 218.511 175.841 222.369 177.796 223.301C178.932 223.824 177.824 225.711 176.091 225.978C174.096 226.284 172.079 226.421 170.318 226.608Z" fill="#FF6F61"/>
<path d="M180.682 261.656C181.932 261.531 182.796 261.815 183.131 262.793C183.558 264.037 182.308 263.969 181.665 264.213C178.875 265.293 179.131 267.833 178.552 269.981C178.525 270.066 178.518 270.156 178.53 270.244C178.542 270.332 178.574 270.416 178.623 270.491C178.672 270.565 178.737 270.628 178.813 270.674C178.889 270.721 178.974 270.75 179.063 270.759C179.238 270.81 179.425 270.799 179.593 270.727C179.761 270.656 179.899 270.529 179.983 270.367C180.677 269.202 181.995 268.895 183.063 268.242C184.399 267.429 185.779 267.037 187.183 267.924C187.951 268.386 188.596 269.027 189.062 269.793C189.528 270.559 189.802 271.427 189.859 272.322C189.902 272.575 189.873 272.835 189.774 273.072C189.676 273.31 189.512 273.514 189.303 273.663C189.093 273.811 188.846 273.897 188.59 273.911C188.333 273.925 188.078 273.867 187.853 273.742C186.456 273.06 185.359 273.612 184.177 273.998C182.876 274.419 181.62 274.947 180.376 273.822C180.214 273.652 179.995 273.548 179.761 273.529C179.528 273.51 179.295 273.578 179.108 273.72C176.472 276.248 174.915 273.549 173.392 272.384C171.585 271.015 173.085 269.378 173.847 267.907C174.983 265.708 175.938 263.395 178.563 262.327C179.33 262.003 180.052 261.594 180.682 261.656Z" fill="#FF6F61"/>
<path d="M215.656 268.02C215.46 269.218 214.816 270.297 213.855 271.038C213.415 271.378 212.865 271.545 212.31 271.508C211.755 271.47 211.233 271.23 210.843 270.833C210.008 270.066 210.701 269.572 211.235 268.878C212.559 267.174 211.701 265.85 210.099 264.844C209.008 264.162 207.002 263.708 207.798 262.196C208.593 260.685 210.196 261.929 211.457 262.281C214.395 263.105 215.202 265.367 215.656 268.02Z" fill="#FF6F61"/>
<path d="M203.644 273.333C202.656 273.168 201.854 273.021 201.042 272.896C200.099 272.748 198.922 272.992 198.769 271.566C198.638 270.316 199.371 269.56 200.423 269.117C202.127 268.401 203.889 267.981 205.724 268.549C206.332 268.704 206.877 269.043 207.284 269.52C207.691 269.997 207.94 270.589 207.997 271.214C208.071 272.413 206.718 272.566 205.877 272.918C205.154 273.152 204.403 273.292 203.644 273.333Z" fill="#FF6F61"/>
<path d="M189.916 368.744C189.984 369.477 189.774 369.88 189.347 370.096C188.495 370.511 187.717 370.158 187.075 369.653C185.503 368.394 183.55 367.709 181.537 367.709C179.524 367.709 177.571 368.394 176 369.653C175.446 370.106 174.846 370.5 174.21 370.829C172.676 371.59 171.085 371.795 170.232 370.033C169.38 368.272 171.244 368.05 172.221 367.499C176.294 365.135 181.133 364.467 185.694 365.641C186.57 365.848 187.395 366.229 188.121 366.762C188.846 367.295 189.457 367.969 189.916 368.744Z" fill="#FF6F61"/>
<path d="M206.156 366.618C209.185 367.147 211.651 368.772 213.992 370.596C214.22 370.738 214.39 370.957 214.472 371.213C214.554 371.469 214.543 371.745 214.441 371.994C214.266 372.259 214.031 372.478 213.754 372.634C213.477 372.789 213.167 372.875 212.85 372.886C211.713 373.005 210.935 372.318 210.162 371.75C208.497 370.505 207.02 368.999 204.627 370.579C203.98 371.011 203.048 370.499 202.61 369.675C202.173 368.852 202.61 368.317 203.178 367.857C204.042 367.181 204.849 366.391 206.156 366.618Z" fill="#FF6F61"/>
<path d="M265.131 377.767C267.047 377.576 268.981 377.781 270.813 378.369C271.336 378.523 271.978 378.597 271.95 379.25C271.91 379.518 271.792 379.769 271.612 379.971C271.431 380.173 271.195 380.317 270.933 380.386C265.819 382.051 260.563 381.614 255.335 381.404C254.557 381.375 253.483 380.722 253.585 379.699C253.687 378.676 254.585 378.386 255.613 378.335C258.693 378.193 261.796 377.977 265.131 377.767Z" fill="#FF6F61"/>
<path d="M259.069 249.877C259.25 251.582 258.603 252.849 256.955 253.531C255.881 253.974 254.619 254.667 253.688 253.531C252.756 252.394 254.08 251.826 254.665 251.15C256.006 249.536 255.034 248.195 254.176 246.82C253.835 246.252 252.989 245.826 253.801 245.03C254.074 244.782 254.411 244.616 254.773 244.549C255.136 244.483 255.51 244.52 255.852 244.655C258.659 245.405 258.881 247.604 259.069 249.877Z" fill="#FF6F61"/>
<path d="M266.177 72.8019C251.74 80.1363 240.081 91.7195 229.596 104.254C222.167 83.6833 210.604 66.0801 188.643 54.6353C162.664 41.057 124.842 35.9114 97.9208 49.7415C75.4141 61.2803 62.788 85.5533 63.7784 110.521C64.2601 123.597 67.9103 136.361 74.4152 147.714C78.1929 154.059 82.7315 159.918 87.9301 165.162C74.9607 167.368 62.2096 170.508 52.3306 179.878C45.0589 187.196 39.6452 196.149 36.542 205.988C33.4389 215.827 32.7367 226.266 34.494 236.432C41.8223 273.072 73.8845 281.349 105.572 279.347C102.579 287.749 103.016 296.992 106.789 305.074C114.143 320.885 132.276 333.021 149.535 334.254C166.794 335.488 183.071 326.669 194.946 313.69C198.333 319.562 202.676 324.827 207.797 329.269C223.672 342.926 247.183 345.599 266.449 337.91C290.211 328.438 296.859 306.438 292.209 285.433C292.999 285.495 293.773 285.603 294.676 285.627C302.707 285.718 310.695 284.442 318.298 281.856C333.209 276.883 350.045 265.417 355.572 249.927C361.457 233.368 351.817 217.652 340.857 205.796C334.304 198.915 326.641 193.185 318.187 188.846C321.41 186.021 324.418 182.96 327.185 179.687C336.612 168.494 345.078 156.092 348.203 141.57C352.937 119.915 345.957 95.444 327.993 81.9727C310.841 69.1786 285.926 62.7682 266.177 72.8019Z" fill="#F5F0E9"/>
</svg>
