<svg width="405" height="429" viewBox="0 0 405 429" fill="none" xmlns="http://www.w3.org/2000/svg">
<path d="M115.234 266.432C113.845 266.664 113.343 267.472 112.696 268.09C111.743 268.999 110.754 268.599 109.787 268.177C108.82 267.755 107.925 266.846 108.391 265.77C109.3 263.653 108.194 261.814 107.947 259.835C107.431 255.843 82.8062 273.944 86.4497 270.511C86.6005 270.274 86.7004 270.008 86.743 269.73C86.7855 269.452 86.7699 269.168 86.697 268.897C85.1479 261.108 86.6533 253.421 87.4751 245.72C87.7951 242.643 85.3734 240.2 86.0206 236.898C87.6933 228.753 88.2024 220.404 90.7914 212.412C91.1346 211.469 91.2424 210.457 91.1055 209.464C90.9686 208.47 90.5912 207.525 90.0059 206.71C87.9987 203.627 88.646 200.092 89.9332 196.871C95.6348 182.646 103.664 169.802 114.783 158.843C126.402 147.254 141.5 139.794 157.763 137.607C162.963 136.88 168.265 136.938 173.341 135.251C175.639 134.524 177.988 135.68 180.235 136.16C182.482 136.64 183.581 136.669 183.784 134.146C183.93 132.24 185.377 131.564 187.064 132.386C188.431 133.055 189.246 132.531 190.199 131.855C198.926 125.644 207.805 127.004 216.612 131.629C219.019 133.023 221.688 133.902 224.452 134.211C232.859 134.938 239.433 139.782 246.546 143.44C249.382 144.894 252.109 147.571 255.818 145.054C256.625 144.509 257.367 145.156 257.811 145.905C258.32 146.771 257.934 147.403 257.229 147.963C255.898 149.018 254.189 149.09 252.284 149.665L266.741 165.163C267.352 163.344 266.218 162.101 266.116 160.726C266.065 159.999 265.163 159.272 266.116 158.545C267.068 157.817 267.934 158.101 268.799 158.414C269.417 158.59 269.981 158.916 270.443 159.363C270.905 159.809 271.249 160.362 271.446 160.974C274.312 171.606 280.901 180.747 284.435 191.133C286.45 197.08 287.713 203.256 288.195 209.517C289.104 220.484 287.904 231.422 288.355 242.382C288.58 247.792 287.708 253.29 287.948 258.81C288.005 260.645 287.519 262.457 286.551 264.017C285.722 265.355 285.577 266.497 287.49 267.217C288.595 267.639 288.66 268.562 288.515 269.755C287.971 273.195 287.084 276.571 285.868 279.835C284.53 283.849 273.839 284.765 273.774 288.911C273.723 292.183 271.723 295.914 275.33 298.736C275.483 298.852 275.243 299.63 274.995 299.972C273.745 301.725 274.086 303.354 275.235 304.99C275.868 305.885 276.13 306.852 275.446 307.834C274.763 308.815 273.621 308.561 272.879 308.263C269.534 306.925 279.868 312.226 278.501 314.619C276.864 317.441 276.195 321.222 272.014 322.051C271.803 322.095 271.599 322.444 271.446 322.415C265.629 321.375 265.963 326.146 264.952 329.164C262.967 335.098 259.861 339.869 253.818 342.763C250.473 344.382 247.331 346.391 244.458 348.748C243.102 349.784 242.165 351.274 241.818 352.945C240.251 359.538 239.653 366.324 240.044 373.089C240.284 376.515 241.549 379.882 242.429 383.271C242.669 384.18 243.258 384.973 244.48 384.318C245.557 383.736 247.149 383.504 246.873 381.845C246.675 380.841 246.304 379.878 245.775 379.002C245.142 377.897 243.44 376.82 245.389 375.678C246.085 375.226 246.916 375.028 247.741 375.12C248.566 375.211 249.333 375.586 249.913 376.18C251.097 377.229 252.036 378.525 252.664 379.976C253.292 381.427 253.594 382.999 253.549 384.58C253.462 389.242 253.913 389.751 258.603 390.318C260.218 390.514 261.352 390.827 261.396 392.965C261.454 395.409 263.934 396.645 265.759 397.888C271.737 402.019 278.559 404.434 285.628 406.266C293.882 408.448 302.216 410.426 310.521 412.201C315.088 413.182 319.597 415.233 324.484 414.993C325.242 414.923 326.005 415.034 326.712 415.315C327.419 415.597 328.049 416.043 328.55 416.615C329.277 417.437 329.663 418.36 328.921 419.4C328.179 420.44 327.466 421.146 326.012 420.528C322.826 419.168 319.081 419.429 316.114 417.306C315.248 416.688 313.983 416.251 312.943 417.437C312.765 417.638 312.546 417.799 312.301 417.91C312.056 418.02 311.79 418.077 311.521 418.077C311.253 418.077 310.987 418.02 310.742 417.91C310.497 417.799 310.278 417.638 310.1 417.437C305.736 413.393 299.809 413.43 294.464 412.07C283.701 409.321 272.741 407.146 263.418 400.71C262.007 399.736 260.872 398.528 258.821 396.994C260.16 400.194 262.458 401.583 264.356 403.263C265.57 404.339 267.49 405.481 265.81 407.023C264.13 408.564 261.934 407.794 260.552 406.215C255.571 400.536 250.407 394.936 248.756 387.343C244.662 388.602 244.698 388.594 245.164 392.005C245.317 393.103 245.527 394.369 244.095 394.914C242.662 395.459 241.077 395.445 240.415 393.99C239.324 391.583 237.884 392.289 236.248 393.161C229.637 396.718 222.154 398.012 215.158 400.667C213.601 401.256 213.354 401.968 213.398 403.379C213.594 409.473 213.674 415.575 213.783 421.677C213.861 422.795 214.166 423.886 214.678 424.884C215.405 426.564 215.325 428.353 213.034 428.891C211.1 429.342 209.994 428.367 209.594 426.455C208.452 420.986 208.532 415.451 208.554 409.917C208.554 407.772 208.605 405.619 208.554 403.474C208.365 398.383 207.703 397.539 202.467 397.27C191.697 396.725 182.104 393.823 174.621 384.536C175.028 387.962 174.323 390.354 173.821 392.732C173.45 394.514 172.716 395.561 170.839 395.14C168.963 394.718 168.73 393.307 169.014 391.685C169.538 388.703 170.468 385.758 170.076 382.689C169.966 381.801 169.806 380.919 169.596 380.049C169.443 379.358 169.021 378.653 168.301 378.595C167.319 378.529 167.501 379.518 167.29 380.093C165.799 384.277 163.992 388.341 161.887 392.252C159.017 397.401 156.331 402.625 153.829 407.924C152.825 410.048 151.56 412.332 152.469 414.957C152.949 416.339 151.742 416.935 150.665 416.79C148.927 416.542 147.087 416.004 147.349 413.699C147.858 409.284 149.844 405.306 151.713 400.921C148.913 401.074 147.684 402.994 146.229 404.426C142.102 408.515 137.271 411.826 131.968 414.201C130.717 414.761 129.139 415.815 127.975 414.928C124.121 412.019 121.198 414.819 118.325 416.339C115.663 417.75 112.783 418.142 110.042 419.073C109.363 419.291 108.638 419.315 107.946 419.143C107.255 418.971 106.626 418.609 106.129 418.099C105.525 417.531 104.914 416.899 105.205 416.041C105.351 415.718 105.592 415.447 105.897 415.266C106.201 415.086 106.554 415.003 106.907 415.03C115.205 414.935 121.365 410.295 127.881 406.237C130.834 404.397 134.135 402.223 137.931 404.935C138.804 405.561 139.451 404.848 140.113 404.368C146.346 399.721 151.749 394.187 157.451 388.994C160.992 385.802 161.814 380.42 163.567 375.904C164.047 374.646 163 372.813 165.13 372.151C167.261 371.489 167.763 373.504 169.421 374.82C168.767 369.162 168.396 364.072 167.087 359.097C166.454 356.697 164.905 355.563 162.185 354.996C153.953 353.279 153.792 353.666 146.461 349.295C143.727 347.777 141.074 346.116 138.512 344.321C137.256 343.441 136.203 342.302 135.423 340.981C134.642 339.66 134.154 338.188 133.989 336.663C133.836 335.354 129.956 319.063 128.014 318.722C120.487 317.267 134.324 303.361 129.277 298.329C126.856 295.914 124.579 293.354 122.361 290.772C121.561 289.834 121.307 290.271 120.492 290.772C118.172 292.176 115.729 290.903 115.678 288.293C115.605 284.584 116.012 280.816 112.965 277.827C112.822 277.725 112.706 277.587 112.63 277.428C112.554 277.268 112.519 277.092 112.529 276.916C112.54 276.739 112.594 276.569 112.688 276.419C112.782 276.269 112.913 276.146 113.067 276.06C116.369 274.279 116.121 271.61 115.3 268.701C115.185 267.95 115.163 267.188 115.234 266.432ZM136.201 153.476C137.008 153.745 137.51 153.17 138.084 152.829C140.491 151.425 142.644 149.025 145.851 151.534C146.578 152.138 147.662 151.338 148.316 150.69C149.444 149.578 150.498 148.37 152.018 146.676C145.895 148.24 140.186 148.945 136.266 153.548C132.157 154.719 128.157 156.028 125.445 159.926C130.317 159.003 133.059 157.323 136.201 153.476ZM184.831 281.006C182.206 282.307 180.104 283.711 177.697 284.642C169.523 287.747 161.051 287.805 152.665 286.387C141.633 284.518 132.084 280.009 126.841 269.661C124.521 265.101 123.045 260.206 121.627 255.37C120.325 250.868 118.492 249.516 113.627 249.618C111.409 249.661 109.467 250.41 110.274 253.087C111.583 257.45 111.881 261.981 112.783 266.41C114.049 272.671 138.332 256.686 139.968 262.846C143.022 274.089 128.269 306.86 130.981 318.206C132.167 323.122 137.24 330.169 138.2 335.201C138.927 338.903 141.501 341.688 144.745 344.052C151.952 349.266 152.149 349.323 160.6 351.25C162.141 351.607 163.16 352.014 164.44 350.327C165.938 348.363 168.301 349.018 168.65 351.432C168.919 353.286 170.163 353.25 171.305 353.519C179.129 355.423 186.686 358.296 193.798 362.072C196.976 363.715 200.627 365.075 204.307 364.362C213.819 362.523 222.721 359.272 230.735 353.716C237.091 349.352 242.793 344.08 249.891 340.625C253.178 339.025 256.654 337.287 258.167 333.6C259.55 330.373 260.764 327.077 261.803 323.724C265.444 311.479 267.579 298.836 268.159 286.074C268.377 280.984 269.047 275.929 268.399 270.126C261.301 278.177 252.124 280.7 242.575 281.689C237.708 282.266 232.775 281.875 228.059 280.538C223.344 279.201 218.94 276.946 215.099 273.9C217.128 281.275 219.15 287.827 220.67 294.496C220.927 295.836 221.469 297.105 222.259 298.217C223.05 299.328 224.07 300.257 225.252 300.939C228.124 302.685 229.724 304.99 228.684 308.299C227.957 310.524 223.768 312.139 220.554 311.819C219.005 311.659 217.565 311.404 217.645 309.637C217.725 307.695 219.463 308.277 220.641 308.292C222.496 308.328 224.11 307.928 224.015 305.863C223.935 303.943 222.561 303.143 220.547 303.528C217.434 304.132 216.394 301.703 216.845 299.972C217.718 296.62 216.292 293.82 215.732 290.802C213.434 278.395 208.838 266.533 206.278 254.185C205.885 252.287 203.936 252.578 202.642 252.047C201.973 251.77 200.904 251.828 200.729 252.941C200.416 254.941 199.493 257.108 200.002 258.919C202.438 267.842 201.769 276.78 200.831 285.769C200.613 287.863 200.147 289.987 200.831 292.162C201.318 293.681 201.471 295.434 199.093 295.798C196.409 296.183 196.656 294.111 196.671 292.692C196.715 289.311 196.991 285.929 197.26 282.555C197.66 277.58 197.871 272.613 196.824 267.559C194.642 271.922 190.693 275.246 189.624 280.206C188.49 285.514 187.733 290.867 186.831 296.205C186.504 298.125 186.831 299.114 189.013 299.492C190.584 299.754 192.191 300.888 191.573 302.488C190.955 304.088 189.202 305.936 187.21 304.859C183.573 302.91 182.722 305.906 180.664 307.463C183.37 308.372 184.759 306.008 186.86 305.885C189.58 305.688 192.009 306.241 193.9 308.125C194.78 308.997 195.486 310.306 194.627 311.535C193.937 312.497 192.981 313.236 191.876 313.662C190.772 314.088 189.567 314.183 188.41 313.935C185.668 313.433 183.428 314.357 180.984 314.917C177.748 315.644 176.032 314.553 175.334 311.514C174.512 307.921 175.894 305.106 178.679 302.787C180.184 301.536 181.886 300.423 182.206 298.329C183.086 292.671 183.922 287.013 184.824 281.006H184.831ZM244.08 207.983C242.771 213.226 243.135 213.67 247.455 213.234C248.017 213.15 248.591 213.274 249.069 213.583C249.636 214.092 249.36 214.819 248.989 215.43C248.218 216.702 246.706 217.975 245.607 217.233C242.218 214.943 238.909 214.404 235.201 216.193C235.087 216.227 234.967 216.237 234.849 216.222C234.732 216.207 234.618 216.168 234.517 216.106C232.633 214.943 232.255 216.106 231.746 217.561C230.612 220.833 228.415 221.197 225.201 219.742C221.703 218.142 220.707 215.03 219.019 211.815C218.619 213.532 219.405 215.393 217.681 215.837C215.958 216.281 214.59 215.008 213.58 213.728C212.703 212.683 212.027 211.485 211.587 210.194C211.267 209.183 211.267 207.816 209.587 206.914C210.467 209.568 209.863 212.441 210.78 214.092C211.696 215.743 212.03 216.833 210.78 217.575C209.194 218.535 208.023 217.059 207.143 215.83C206.263 214.601 206.125 212.608 204.169 213.03C202.213 213.452 203.936 215.684 202.838 216.746C202.777 216.838 202.737 216.942 202.719 217.052C202.701 217.161 202.707 217.272 202.736 217.379C203.224 219.735 202.329 220.084 200.395 218.833C198.46 217.582 196.213 217.575 194.853 219.044C192.155 221.953 190.599 219.851 188.89 218.244C187.893 217.313 187.275 216.157 185.602 215.968C184.035 215.82 182.529 215.287 181.216 214.419C179.903 213.55 178.824 212.371 178.075 210.986C176.512 208.252 174.839 208.186 172.861 210.528C172.345 211.139 171.828 211.75 171.29 212.346C169.428 214.368 167.596 216.419 165.69 218.397C165.484 218.651 165.228 218.861 164.939 219.015C164.65 219.168 164.333 219.262 164.007 219.292C163.681 219.321 163.353 219.284 163.041 219.184C162.729 219.084 162.441 218.923 162.192 218.71C160.854 217.59 162.127 216.746 162.869 215.924L166.672 211.757C163.96 213.372 161.509 215.204 159.043 217.022C157.589 218.106 156.025 218.273 155.407 216.39C154.825 214.695 154.244 215.881 153.814 216.201C149.691 219.299 146.302 223.095 141.626 225.771C137.939 227.88 133.343 228.28 130.332 231.48C130.23 231.54 130.116 231.578 129.998 231.591C129.88 231.603 129.761 231.59 129.648 231.553C126.95 230.702 125.968 232.586 124.652 234.222C122.565 236.811 120.543 239.56 117.954 241.603C116.194 242.985 113.423 243.182 113.06 246.047C113.751 246.84 114.805 246.432 115.656 246.73C118.667 247.778 120.71 247.458 122.201 244.054C123.779 240.418 126.848 237.633 130.652 235.749C140.106 231.066 150.658 230.295 160.854 228.302C161.673 228.208 162.503 228.285 163.29 228.528C167.385 229.517 171.45 230.622 175.552 231.567C185.231 233.793 193.689 237.647 198.882 246.44C200.336 248.927 203.485 248.621 205.936 248.774C207.754 248.905 207.442 246.549 208.227 245.385C209.303 243.778 210.103 241.967 211.318 240.469C216.474 234.142 222.226 228.615 231.106 227.415C233.649 226.975 236.266 227.368 238.568 228.535C238.811 228.633 239.029 228.785 239.206 228.978C239.384 229.171 239.516 229.401 239.593 229.652C239.67 229.903 239.691 230.167 239.653 230.427C239.615 230.687 239.52 230.935 239.375 231.153C238.786 232.113 237.92 232.055 237.062 231.226C235.608 229.873 233.87 230.135 232.073 230.375C227.928 230.949 224.583 233.036 221.55 235.567C216.067 240.149 211.507 245.174 210.787 252.708C210.452 256.228 212.06 258.926 212.881 262.003C214.823 269.275 219.427 274.366 226.59 276.598C241.193 281.195 256.342 277.398 266.421 266.366C269.461 263.035 270.588 259.392 269.57 255.101C268.712 251.465 267.832 247.829 267.047 244.192C265.207 235.633 260.741 231.291 251.884 229.604C248.975 229.058 246.116 228.629 243.229 228.149C241.775 227.917 239.688 228.229 240.095 225.968C240.502 223.706 242.48 224.273 244.109 224.6C247.207 225.211 250.291 225.946 253.411 226.462C257.691 227.149 261.647 229.164 264.719 232.222C266.501 233.967 268.312 235.676 270.116 237.4C268.906 234.615 268.461 231.557 268.828 228.542C268.981 226.848 268.247 224.026 266.77 224.077C263.934 224.186 263.098 222.419 261.832 220.964C259.891 218.717 258.276 216.252 254.734 216.055C253.418 215.983 252.553 214.797 251.825 213.764C251.345 213.103 250.887 212.31 249.985 212.31C247.149 212.397 245.513 210.797 244.073 207.983H244.08ZM160.563 283.973C170.374 284.511 178.708 281.5 185.515 274.824C187.733 272.642 188.78 269.901 187.77 266.824C186.759 263.748 188.148 262.199 191.573 262.803C192.213 262.919 192.977 264.061 193.537 262.657C194.668 259.59 195.513 256.425 196.06 253.203C196.402 251.487 194.853 250.927 194.017 249.916C193.748 249.596 193.449 248.97 193.595 248.709C195.217 245.8 192.635 244.432 191.253 242.716C187.617 238.134 182.192 236.105 176.657 235.298C171.567 234.571 166.869 229.422 160.949 234.113C159.902 234.942 155.785 234.716 153.589 234.404C147.444 233.546 141.953 234.964 136.484 236.869C127.03 240.163 123.394 246.323 125.903 255.574C128.812 266.293 132.448 276.664 144.811 281.166C149.862 282.999 155.19 283.948 160.563 283.973ZM225.215 369.162C222.372 369.053 222.139 371.097 221.477 372.798C220.976 374.108 220.292 375.46 218.43 374.602C216.794 373.875 216.249 372.58 217.201 370.966C217.654 370.172 218.152 369.405 218.692 368.668C220.147 366.726 221.601 364.813 223.099 362.893C218.408 364.828 213.449 365.344 208.889 366.959C202.482 369.235 196.918 367.33 191.311 364.777C187.602 363.09 183.988 361.177 180.184 359.686C177.275 358.559 174.257 357.359 170.447 357.046C171.602 359.118 172.283 361.421 172.439 363.788C173.043 368.697 172.701 374.151 175.145 378.333C179.748 386.18 186.381 392.303 196.562 393.11C201.128 393.429 205.649 394.218 210.052 395.467C213.529 396.499 217.005 396.049 220.467 395.081C226.03 393.525 231.077 390.9 236.233 388.456C238.589 387.336 238.786 386.085 238.059 383.933C236.17 378.378 235.274 372.533 235.411 366.668C235.506 362.595 236.284 358.595 236.924 353.766C233.506 356.857 228.924 357.672 228.866 362.493C228.866 364.224 226.874 366.217 229.906 367.526C230.917 367.962 230.633 369.446 230.066 370.297C228.804 372.201 227.409 374.014 225.892 375.722C225.436 376.196 224.813 376.474 224.156 376.496C223.498 376.517 222.858 376.282 222.372 375.838C221.274 374.937 221.877 373.846 222.576 372.828C223.376 371.649 224.925 370.966 225.215 369.162ZM133.132 252.061C133.961 251.152 109.874 272.766 109.823 272.031C109.452 266.322 106.645 261.079 106.384 255.356C106.289 253.305 106.056 251.45 104.035 250.047C102.915 249.269 102.376 247.21 103.453 246.41C106.224 244.331 106.158 242.36 104.311 239.865C103.707 239.058 104.187 237.604 102.362 237.574C100.536 237.545 99.9256 238.382 99.4529 239.843C96.7291 247.607 97.091 256.12 100.464 263.624C102.46 267.989 129.163 249.362 133.132 252.061ZM282.53 250.73C280.966 252.127 279.432 253.239 277.439 252.374C274.69 251.167 274.617 252.745 274.995 254.556C275.723 257.952 275.265 261.304 274.479 264.563C273.752 267.53 274.035 270.38 274.028 273.929C277.912 270.155 280.573 266.512 282.173 262.214C282.573 261.137 283.679 259.537 280.952 259.428C279.439 259.363 278.268 258.505 278.544 256.759C278.784 255.232 278.828 253.479 281.192 253.516C283.322 253.545 283.104 252.418 282.53 250.73ZM151.938 195.925C155.996 191.794 165.239 176.544 166.665 171.999C158.018 177.977 155.545 187.235 151.938 195.925ZM127.095 178.406C129.881 178.588 130.004 178.682 130.848 177.788C136.23 172.21 139.24 165.279 142.862 158.683C136.244 164.246 132.077 171.533 127.095 178.406ZM227.586 201.118C226.788 195.811 224.078 190.979 219.965 187.533C219.128 191.853 221.194 195.278 222.052 198.87C222.605 201.183 224.786 198.485 225.877 199.714C226.416 200.219 226.987 200.688 227.586 201.118ZM135.837 211.357C142.382 208.448 147.015 204.085 147.742 196.812C143.34 201.289 139.355 206.157 135.837 211.357ZM178.112 184.602C182.475 184.602 182.752 184.653 183.508 182.464C184.817 178.66 185.842 174.77 186.991 170.915C183.072 174.973 180.461 179.657 178.112 184.602ZM175.239 153.33C169.792 156.894 168.148 162.057 165.276 166.988C171.261 163.948 172.912 158.821 175.239 153.301V153.33ZM120.579 199.198C126.681 194.034 129.001 190.376 128.528 186.289C124.812 190.143 121.961 194.027 120.579 199.198ZM123.154 275.617C123.452 282.111 126.616 288.314 130.637 290.714C127.961 285.318 125.568 280.467 123.154 275.617ZM212.329 162.712C213.056 167.272 211.863 172.224 215.034 176.733C217.361 171.199 213.143 167.279 212.336 162.719L212.329 162.712ZM128.645 255.072C128.456 260.068 130.565 264.206 132.674 269.071C133.052 263.537 132.114 259.072 128.645 255.072ZM253.047 190.754C253.164 195.3 255.418 199.307 256.516 203.605C256.855 201.339 256.722 199.028 256.125 196.817C255.528 194.605 254.48 192.541 253.047 190.754ZM164.6 201.939L164.032 201.212L153.574 209.546C158.498 208.514 161.741 205.481 164.6 201.939ZM196.162 163.897C197.616 161.577 199.391 159.454 200.009 156.763C200.133 156.217 200.416 155.556 199.835 155.207C199.042 154.727 198.606 155.454 198.111 155.934C195.726 158.137 196.409 161.119 196.162 163.897ZM127.954 222.68C121.932 223 123.532 228.091 121.648 230.898C123.874 228.375 126.346 226.04 127.954 222.68ZM269.788 196.027C268.683 192.776 269.868 188.754 266.341 186.195C267.301 189.518 266.443 193.372 269.788 196.027ZM90.4859 256.65C88.9369 260.519 89.846 263.457 90.2459 266.395C90.3187 266.948 90.4277 267.639 91.1986 267.522C91.9695 267.406 92.2459 266.875 92.0859 266.032C91.5477 263.21 91.1114 260.374 90.4859 256.65ZM105.031 222.92C102.595 224.826 102.478 227.575 101.584 230.018C101.344 230.68 101.984 230.986 102.558 231.189C103.605 231.56 103.736 230.811 103.853 230.149C104.289 227.742 104.66 225.328 105.053 222.935L105.031 222.92ZM147.531 214.921C143.561 216.719 140.268 219.735 138.128 223.531L147.531 214.921ZM228.67 152.392C227.943 154.887 228.67 156.865 228.983 158.836C229.012 158.979 229.071 159.115 229.155 159.235C229.239 159.355 229.346 159.457 229.471 159.535C229.595 159.612 229.734 159.664 229.879 159.686C230.024 159.708 230.171 159.701 230.313 159.665C231.135 159.541 230.953 158.857 230.852 158.348C230.503 156.523 230.743 154.574 228.67 152.392ZM204.562 180.173V170.471C202.62 173.751 203.834 176.959 204.562 180.173ZM104.464 205.939L100.733 213.481C101.994 212.694 103.011 211.572 103.67 210.24C104.329 208.908 104.604 207.419 104.464 205.939ZM262.276 212.935C261.65 215.357 263.541 216.688 264.458 218.419C264.734 218.957 265.294 219.699 266.05 219.022C266.186 218.916 266.294 218.778 266.365 218.621C266.436 218.464 266.467 218.292 266.457 218.119C266.447 217.947 266.396 217.78 266.307 217.632C266.219 217.484 266.096 217.36 265.948 217.27C264.378 216.154 263.11 214.665 262.261 212.935H262.276ZM223.536 186.347C222.859 184.42 223.405 182.195 222.692 179.489C220.03 182.551 222.292 184.391 223.536 186.347ZM93.2931 241.014C95.7294 236.614 95.7294 236.614 93.2931 234.993V241.014ZM128.114 253.77L99.9256 271.282C99.8383 274.686 124.739 253.661 128.114 253.77ZM115.903 172.915C119.067 171.773 120.376 169.162 121.59 166.472L115.903 172.915ZM234.597 191.14C234.553 193.86 235.324 196.5 238.073 198.252C236.91 195.881 235.751 193.511 234.597 191.14Z" fill="#FF6F61"/>
<path d="M232.539 412.252C232.481 414.248 231.762 416.17 230.495 417.714C229.227 419.258 227.483 420.337 225.535 420.782C224.388 421.058 223.183 420.979 222.081 420.554C220.98 420.129 220.034 419.379 219.368 418.404C217.383 415.59 217.529 412.332 219.005 409.365C220.481 406.397 223.426 404.957 226.51 404.492C230.103 403.947 232.626 407.488 232.539 412.252Z" fill="#FF6F61"/>
<path d="M199.129 411.328C199.464 414.171 199.275 416.084 197.275 416.92C194.533 418.069 192.097 420.753 188.584 418.949C187.748 418.52 184.025 411.452 184.221 410.608C184.912 407.343 188.628 403.67 191.588 403.335C194.926 402.972 198.446 405.903 199.042 409.597C199.123 410.17 199.153 410.749 199.129 411.328ZM194.904 411.473C194.959 410.564 194.795 409.654 194.427 408.82C194.059 407.987 193.497 407.253 192.788 406.681C192.694 406.611 192.587 406.561 192.472 406.535C192.358 406.51 192.24 406.508 192.125 406.532C192.01 406.555 191.902 406.602 191.807 406.671C191.712 406.739 191.632 406.827 191.573 406.928C190.293 408.71 190.584 410.448 191.741 412.186C192.271 412.986 192.228 414.513 193.61 414.237C194.991 413.961 194.904 412.593 194.904 411.473Z" fill="#FF6F61"/>
<path d="M198.293 349.15C201.648 348.928 205.003 349.15 208.356 349.166C209.401 349.188 210.442 349.296 211.469 349.488C212.06 349.594 212.604 349.918 212.674 350.619C212.745 351.32 212.301 351.661 211.74 351.965C210.375 352.694 209.022 353.433 207.592 354.045C207.038 354.278 206.438 354.381 205.837 354.346C204.085 354.285 202.384 354.676 200.664 354.891C200.032 354.988 199.387 354.942 198.774 354.757C198.162 354.573 197.599 354.253 197.127 353.823C196.405 353.187 195.69 352.545 194.958 351.923C194.528 351.556 194.066 351.253 193.43 351.43C193.228 351.479 193.017 351.473 192.818 351.411C192.62 351.349 192.442 351.235 192.304 351.08C192.049 350.846 191.645 350.638 191.757 350.194C191.881 349.71 192.344 349.776 192.692 349.769C194.584 349.713 196.395 349.086 198.293 349.15ZM201.33 353.211L197.933 352.806C199.122 354.033 200.239 353.54 201.335 353.218L201.33 353.211Z" fill="#FF6F61"/>
<path d="M207.231 312.954C204.089 313.012 203.02 311.426 204.249 309.012C204.73 308.047 205.444 307.217 206.326 306.598C207.209 305.978 208.232 305.589 209.303 305.464C210.374 305.34 211.459 305.485 212.46 305.886C213.461 306.287 214.346 306.932 215.034 307.761C216.816 309.885 216.3 311.666 213.485 312.125C211.318 312.525 209.056 312.386 207.231 312.954Z" fill="#FF6F61"/>
<path d="M241.746 325.978C241.201 327.186 240.452 329.069 239.506 330.851C239.397 331.094 239.238 331.312 239.04 331.49C238.842 331.668 238.609 331.803 238.356 331.886C238.102 331.969 237.834 331.998 237.569 331.971C237.304 331.944 237.047 331.863 236.815 331.731C235.637 331.142 235.557 330.138 236.088 329.12C237.063 327.244 237.863 325.484 235.201 324.189C235.04 324.114 234.905 323.995 234.809 323.846C234.714 323.696 234.664 323.523 234.664 323.346C234.664 323.168 234.714 322.995 234.809 322.846C234.905 322.696 235.04 322.577 235.201 322.502C236.474 321.578 237.863 320.946 239.441 321.637C241.019 322.328 242.233 323.295 241.746 325.978Z" fill="#FF6F61"/>
<path d="M156.788 327.324C156.897 322.851 158.752 320.778 161.326 321.782C163.115 322.458 163.952 323.571 162.257 324.982C161.733 325.403 161.334 325.96 161.104 326.592C160.875 327.225 160.823 327.908 160.956 328.567C161.079 329.818 161.181 331.389 159.661 331.68C157.894 332.029 157.574 330.225 157.036 329.076C156.838 328.514 156.754 327.918 156.788 327.324Z" fill="#FF6F61"/>
<path d="M245.084 249.283C251.629 249.058 257.163 251.465 262.537 254.374C264.719 255.545 264.719 257.356 262.596 258.505C257.569 261.271 252.077 263.09 246.393 263.872C242.305 264.417 237.811 263.195 233.724 261.617C230.72 260.461 227.833 258.992 224.386 259.079C223.622 259.143 222.861 258.914 222.259 258.439C221.657 257.964 221.258 257.278 221.143 256.519C220.779 254.338 222.706 254.483 223.826 254.127C230.793 251.865 237.651 249.021 245.084 249.283ZM246.494 252.919C247.665 254.323 248.473 255.283 249.265 256.25C250.902 258.25 254.821 258.308 256.538 256.417C257.33 255.53 256.639 255.21 256.021 254.963C253.098 253.879 250.218 252.599 246.494 252.927V252.919ZM230.437 256.388C231.891 257.632 233.775 258.032 235.528 258.65C239.127 259.93 239.244 259.785 239.062 256.199C238.975 254.41 238.335 253.69 236.458 254.316C234.582 254.941 232.299 255.138 230.437 256.388Z" fill="#FF6F61"/>
<path d="M261.083 245.174C260.531 246.52 259.505 246.898 258.043 246.367C256.002 245.534 253.919 244.806 251.804 244.185C245.987 242.607 239.791 243.25 234.423 245.989C233.405 246.571 232.22 246.789 231.063 246.607C229.732 246.367 229.194 245.211 228.881 244.193C228.605 243.313 229.608 242.905 230.335 242.556C239.673 238.113 249.018 238.076 258.363 242.556C259.491 243.073 261.062 244.636 261.083 245.174Z" fill="#FF6F61"/>
<path d="M159.276 252.643C166.817 252.643 173.821 254.461 180.744 256.73C182.199 257.21 183.486 257.945 183.362 259.472C183.246 260.81 181.908 261.392 180.599 261.734C179.944 261.908 179.035 262.003 178.715 262.461C175.617 266.824 170.832 266.519 166.352 266.388C161.632 266.243 157.13 264.73 152.861 262.752C150.854 261.821 148.876 260.897 146.549 260.788C144.731 260.701 142.949 259.974 142.295 258.236C141.742 256.781 140.84 254.599 143.676 254.323C148.942 253.821 154.069 252.149 159.276 252.643ZM167.566 257.239C169.603 258.854 167.508 262.33 171.363 262.228C173.712 262.177 174.272 259.057 176.948 259.319C174.061 258.33 171.355 257.116 167.566 257.239ZM157.814 260.279C157.087 259.036 158.134 257.138 156.723 256.767C155.8 256.494 154.826 256.442 153.879 256.616C152.933 256.791 152.041 257.186 151.276 257.77C153.741 258.308 155.007 260.265 157.814 260.279Z" fill="#FF6F61"/>
<path d="M182.978 248.679C183.072 249.283 183.021 249.726 182.541 249.974C182.127 250.22 181.65 250.339 181.169 250.316C180.688 250.293 180.224 250.128 179.836 249.843C174.447 245.145 167.473 245.021 160.971 244.381C156.339 243.93 151.212 244.287 148.194 248.948C147.321 250.301 146.165 250.039 145.234 249.239C144.041 248.228 142.659 247.152 143.968 245.276C146.019 242.367 149.401 241.683 152.521 241.087C161.568 239.37 170.28 241.007 178.629 244.541C180.53 245.351 182.075 246.82 182.978 248.679Z" fill="#FF6F61"/>
<path d="M193.331 314.893C184.239 313.757 175.256 312.563 167.096 307.921C162.516 305.313 159.215 301.636 155.942 297.846C153.538 295.062 152.868 291.494 151.919 288.107C151.224 285.615 150.843 283.046 150.782 280.459C150.703 277.362 152.43 275.913 155.538 276.726C156.164 276.864 156.769 277.082 157.34 277.373C165.34 281.959 174.358 281.641 183.052 281.527C190.893 281.425 198.871 281.237 206.616 279.669C214.151 278.14 221.606 276.26 229.174 274.845C230.22 274.652 231.158 273.975 232.18 273.623C233.317 273.231 234.328 272.231 235.703 273.299C237.078 274.367 238.419 275.544 238.039 277.453C236.573 284.783 235.698 292.255 230.243 298.312C225.765 303.279 220.407 306.728 214.185 309.387C208.903 311.638 203.391 313.304 197.746 314.353C196.269 314.654 194.825 314.654 193.331 314.893ZM190.564 297.608C187.507 297.312 184.541 298.142 181.529 298.341C176.415 298.682 171.471 300.085 166.534 301.409C164.261 302.012 164.96 302.904 166.227 303.733C168.642 305.324 171.079 306.961 173.847 307.904C183.967 311.347 194.183 313.206 204.735 309.455C209.883 307.62 215.173 306.108 219.594 302.796C220.134 302.398 221.128 302.142 220.731 301.256C220.447 300.597 219.623 300.415 218.873 300.341C217.6 300.222 216.31 300.182 215.054 299.972C206.957 298.585 198.718 298.506 190.564 297.608ZM160.908 288.363C161.715 288.363 162.175 288.363 162.613 288.363C165.647 288.471 166.448 287.226 165.408 284.431C164.715 282.584 162.959 282.862 161.653 282.26C160.022 281.521 157.533 279.919 156.834 280.442C155.3 281.578 157.362 283.493 157.334 285.186C157.306 287.698 158.107 289.38 160.908 288.334V288.363ZM173.659 283.817V283.874C173.126 283.755 172.579 283.713 172.034 283.749C171.21 283.931 170.028 283.34 169.625 284.425C169.221 285.51 170.022 286.238 170.761 286.925C172.67 288.704 174.994 288.164 177.239 287.954C178.262 287.857 178.898 287.385 178.779 286.215C178.676 285.186 178.523 284.272 177.199 284.147L173.659 283.817ZM211.082 286.419C215.463 286.118 216.105 285.55 215.77 282.362C215.673 281.459 215.594 280.658 214.202 280.766C210.304 281.09 208.73 282.05 208.912 284.238C209.025 285.533 208.798 287.26 211.082 286.385V286.419ZM200.025 287.147C200.956 287.039 202.212 286.834 203.479 286.766C204.911 286.687 205.411 285.988 205.247 284.709C205.082 283.431 204.44 282.8 203.07 282.902C201.366 283.033 199.627 283.164 197.899 283.272C197.053 283.328 196.081 283.362 196.127 284.408C196.172 285.454 196.325 286.772 197.774 287.107C198.522 287.183 199.276 287.185 200.025 287.113V287.147ZM188.137 284.13C186.279 284.13 185.183 284.067 184.097 284.13C183.37 284.192 182.279 283.993 182.478 285.311C182.631 286.317 182.404 287.641 184.04 287.635C186.234 287.635 188.439 287.522 190.626 287.334C191.592 287.249 192.433 286.766 192.149 285.579C191.91 284.578 191.461 283.755 190.115 283.936C189.211 284.05 188.291 284.084 188.137 284.095V284.13ZM222.299 284.402C222.896 284.215 225.06 285.147 224.532 282.868C224.242 281.612 225.555 279.237 222.93 279.197C221.572 279.197 219.009 278.629 219.35 281.47C219.52 282.834 219.032 284.902 222.299 284.368V284.402ZM231.158 277.527C230.407 278.334 227.652 276.879 228.169 279.766C228.362 280.817 227.208 282.72 229.709 282.607C231.703 282.499 233.499 282.141 233.584 279.567C233.641 277.925 232.874 277.521 231.158 277.493V277.527Z" fill="#FF6F61"/>
<path d="M162.516 243.553C156.675 242.769 151.192 242.945 146.038 241.178C145.18 240.882 144.185 240.609 143.589 240.041C142.731 239.2 141.918 238.53 143.981 237.41C148.618 234.887 153.737 233.518 158.419 231.16C159.174 230.812 160.022 230.718 160.834 230.893C167.32 231.961 173.799 233.042 180.273 234.137C181.37 234.325 182.546 234.705 182.813 235.887C183.126 237.166 182.08 237.592 181.109 238.223C176.83 240.95 172.017 241.973 167.062 242.365C165.25 242.519 163.727 243.388 162.516 243.553ZM176.881 236.734C174.358 235.984 172.199 235.319 170.028 234.711C169.415 234.535 168.619 234.421 168.437 235.234C168.11 236.408 167.963 237.624 168 238.842C168.062 239.621 169.102 239.308 169.636 239.189C172.006 238.672 174.574 238.683 176.881 236.74V236.734ZM148.646 238.916C151.112 239.57 153.647 239.927 156.198 239.979C158.391 239.979 156.953 238.41 157.044 237.655C157.135 236.899 157.493 235.262 155.811 235.711C153.413 236.348 150.919 236.922 148.646 238.916Z" fill="#FF6F61"/>
<path d="M209.645 229.898C214.48 229.523 219.305 229.143 224.146 228.762C225.61 228.652 227.072 229.002 228.328 229.762C231.094 231.32 234.099 232.409 237.221 232.984C237.758 233.074 238.269 233.278 238.721 233.582C239.172 233.885 239.554 234.282 239.84 234.745C240.283 235.456 240.443 236.217 239.511 236.45C234.726 237.768 230.521 240.814 225.197 240.604C222.356 240.496 219.861 239.467 217.208 238.848C212.662 237.814 208.514 235.774 204.531 233.444C203.86 233.052 203.093 232.597 203.428 231.569C203.562 231.043 203.87 230.579 204.303 230.252C204.736 229.926 205.267 229.757 205.809 229.773C207.088 229.745 208.366 229.773 209.639 229.773L209.645 229.898ZM210.406 233.757L218.645 236.24C217.458 231.887 217.049 231.756 210.406 233.757ZM232.624 235.461C228.294 232.154 227.51 232.416 226.129 237.592C228.393 237.219 230.585 236.493 232.624 235.439V235.461Z" fill="#FF6F61"/>
<path d="M170.318 226.608C167.698 226.404 165.323 226.188 162.931 226.04C158.232 225.75 153.839 226.904 149.623 228.779C148.14 229.432 146.532 229.824 145.009 230.415C144.553 230.635 144.033 230.682 143.545 230.547C143.057 230.412 142.634 230.105 142.356 229.682C141.657 228.745 142.02 227.847 142.753 227.04C145.877 223.448 150.052 220.929 154.686 219.841C160.016 218.648 165.391 218.363 170.596 220.614C170.926 220.756 171.449 221.006 171.63 220.875C174.994 218.511 175.841 222.369 177.796 223.301C178.932 223.824 177.824 225.711 176.091 225.978C174.096 226.284 172.079 226.421 170.318 226.608Z" fill="#FF6F61"/>
<path d="M180.682 261.656C181.932 261.531 182.796 261.815 183.131 262.793C183.558 264.037 182.308 263.969 181.665 264.213C178.875 265.293 179.131 267.833 178.552 269.981C178.525 270.066 178.518 270.156 178.53 270.244C178.542 270.332 178.574 270.416 178.623 270.491C178.672 270.565 178.737 270.628 178.813 270.674C178.889 270.721 178.974 270.75 179.063 270.759C179.238 270.81 179.425 270.799 179.593 270.727C179.761 270.656 179.899 270.529 179.983 270.367C180.677 269.202 181.995 268.895 183.063 268.242C184.399 267.429 185.779 267.037 187.183 267.924C187.951 268.386 188.596 269.027 189.062 269.793C189.528 270.559 189.802 271.427 189.859 272.322C189.902 272.575 189.873 272.835 189.774 273.072C189.676 273.31 189.512 273.514 189.303 273.663C189.093 273.811 188.846 273.897 188.59 273.911C188.333 273.925 188.078 273.867 187.853 273.742C186.456 273.06 185.359 273.612 184.177 273.998C182.876 274.419 181.62 274.947 180.376 273.822C180.214 273.652 179.995 273.548 179.761 273.529C179.528 273.51 179.295 273.578 179.108 273.72C176.472 276.248 174.915 273.549 173.392 272.384C171.585 271.015 173.085 269.378 173.847 267.907C174.983 265.708 175.938 263.395 178.563 262.327C179.33 262.003 180.052 261.594 180.682 261.656Z" fill="#FF6F61"/>
<path d="M215.656 268.02C215.46 269.218 214.816 270.297 213.855 271.038C213.415 271.378 212.865 271.545 212.31 271.508C211.755 271.47 211.233 271.23 210.843 270.833C210.008 270.066 210.701 269.572 211.235 268.878C212.559 267.174 211.701 265.85 210.099 264.844C209.008 264.162 207.002 263.708 207.798 262.196C208.593 260.685 210.196 261.929 211.457 262.281C214.395 263.105 215.202 265.367 215.656 268.02Z" fill="#FF6F61"/>
<path d="M203.644 273.333C202.656 273.168 201.854 273.021 201.042 272.896C200.099 272.748 198.922 272.992 198.769 271.566C198.638 270.316 199.371 269.56 200.423 269.117C202.127 268.401 203.889 267.981 205.724 268.549C206.332 268.704 206.877 269.043 207.284 269.52C207.691 269.997 207.94 270.589 207.997 271.214C208.071 272.413 206.718 272.566 205.877 272.918C205.154 273.152 204.403 273.292 203.644 273.333Z" fill="#FF6F61"/>
<path d="M259.069 249.877C259.25 251.582 258.603 252.849 256.955 253.531C255.881 253.974 254.619 254.667 253.688 253.531C252.756 252.394 254.08 251.826 254.665 251.15C256.006 249.536 255.034 248.195 254.176 246.82C253.835 246.252 252.989 245.826 253.801 245.03C254.074 244.782 254.411 244.616 254.773 244.549C255.136 244.483 255.51 244.52 255.852 244.655C258.659 245.405 258.881 247.604 259.069 249.877Z" fill="#FF6F61"/>
<path d="M266.177 72.8019C251.74 80.1363 240.081 91.7195 229.596 104.254C222.167 83.6833 210.604 66.0801 188.643 54.6353C162.664 41.057 124.842 35.9114 97.921 49.7415C75.4143 61.2803 62.7882 85.5534 63.7786 110.521C64.2603 123.597 67.9105 136.361 74.4154 147.714C78.1931 154.059 82.7317 159.918 87.9303 165.162C74.9609 167.368 62.2098 170.508 52.3308 179.878C45.0591 187.196 39.6454 196.149 36.5422 205.988C33.4391 215.827 32.7369 226.266 34.4942 236.432C41.8225 273.072 73.8847 281.349 105.572 279.347C102.579 287.749 103.016 296.992 106.789 305.074C114.143 320.885 132.276 333.021 149.535 334.254C166.794 335.488 183.071 326.669 194.946 313.69C198.333 319.562 202.676 324.827 207.797 329.269C223.672 342.926 247.183 345.599 266.449 337.91C290.211 328.438 296.859 306.438 292.209 285.433C292.999 285.495 293.773 285.603 294.676 285.627C302.707 285.718 310.695 284.442 318.298 281.856C333.209 276.883 350.045 265.417 355.572 249.927C361.457 233.368 351.817 217.652 340.857 205.796C334.304 198.915 326.641 193.185 318.187 188.846C321.41 186.021 324.418 182.96 327.185 179.687C336.612 168.494 345.078 156.092 348.203 141.57C352.937 119.915 345.957 95.444 327.993 81.9727C310.841 69.1786 285.926 62.7682 266.177 72.8019Z" fill="#F5F0E9"/>
</svg>
