<svg width="15" height="15" viewBox="0 0 15 15" fill="none" xmlns="http://www.w3.org/2000/svg">
<path fill-rule="evenodd" clip-rule="evenodd" d="M0 1.13806C0 0.509529 0.509529 0 1.13806 0H9.39957C10.0281 0 10.5376 0.509549 10.5376 1.13806V4.84731C10.5376 5.1965 10.2546 5.47957 9.90537 5.47957C9.55619 5.47957 9.27311 5.1965 9.27311 4.84731V1.26452H1.26452V9.27311H4.84731C5.1965 9.27311 5.47957 9.55619 5.47957 9.90537C5.47957 10.2546 5.1965 10.5376 4.84731 10.5376H1.13806C0.509549 10.5376 0 10.0281 0 9.39957V1.13806Z" fill="#22333B"/>
<path fill-rule="evenodd" clip-rule="evenodd" d="M5.47973 5.47954V13.4881H13.4883V5.47954H5.47973ZM4.21521 5.35309C4.21521 4.72456 4.72474 4.21503 5.35327 4.21503H13.6148C14.2434 4.21503 14.7528 4.72458 14.7528 5.35309V13.6146C14.7528 14.2432 14.2433 14.7527 13.6148 14.7527H5.35327C4.72476 14.7527 4.21521 14.2432 4.21521 13.6146V5.35309Z" fill="#22333B"/>
</svg>
