<svg width="156" height="64" viewBox="0 0 156 64" fill="none" xmlns="http://www.w3.org/2000/svg">
<path d="M28.8702 59.793C27.9172 59.7857 26.9754 59.5872 26.1006 59.2092C24.1518 58.3643 22.9536 56.6065 23.0479 54.7323C23.0686 54.1046 23.2125 53.4872 23.4715 52.9151C22.7539 51.5479 22.7188 49.7615 23.3947 48.1946C24.1343 46.4762 25.7583 45.2648 27.4327 45.1814C28.6025 45.1221 29.6668 45.6028 30.6039 46.6101C31.1059 46.3963 31.6384 46.263 32.1818 46.215C33.6522 46.0921 35.0502 46.553 35.9631 46.9634C38.1116 47.9312 40.0034 50.2553 39.0707 53.0644C38.3794 55.1514 35.5593 57.1134 33.0619 57.2956C32.7222 58.0691 32.1479 58.7163 31.4203 59.1456C30.6433 59.5852 29.7628 59.8088 28.8702 59.793ZM27.6149 45.9276H27.4679C26.0918 45.9978 24.7005 47.049 24.0816 48.4865C23.4627 49.9239 23.5198 51.5282 24.2155 52.711L24.323 52.8932L24.2243 53.0797C23.9524 53.6011 23.8023 54.1774 23.7853 54.7652C23.7085 56.3233 24.729 57.7959 26.3859 58.5157C27.6654 59.0688 29.5571 59.3541 31.0253 58.4916C31.6805 58.1048 32.1814 57.503 32.443 56.7886L32.5352 56.5691H32.7832C35.026 56.5099 37.7276 54.6993 38.3443 52.8383C39.1299 50.4682 37.4928 48.4908 35.6405 47.6591C34.8088 47.286 33.5447 46.8603 32.2301 46.9722C31.681 47.0206 31.1455 47.1694 30.65 47.4111L30.3911 47.5318L30.2067 47.3123C29.4364 46.3928 28.563 45.9276 27.6149 45.9276Z" fill="#F5F0E9"/>
<path d="M32.5416 42.9078H32.4691C30.5247 42.8705 28.7252 41.3892 27.7771 40.1317C27.2839 39.4861 26.8924 38.769 26.6161 38.0051C24.7946 38.9224 22.3521 39.0651 20.5042 36.8858C18.9482 35.0512 18.494 32.4967 19.3498 30.4052C19.5741 29.8638 19.8693 29.3546 20.2277 28.8909C18.5181 28.0131 17.3198 26.6261 16.9117 25.0394C16.4223 23.1367 17.0806 20.7929 18.4808 19.4695C19.0916 18.8814 19.879 18.5105 20.7215 18.4139C19.295 14.5449 20.0631 11.6305 22.9578 9.96915C24.878 8.87185 27.5664 8.81918 29.5152 9.85064C30.674 10.4673 31.4091 11.4637 31.9775 12.4425C32.2654 11.9485 32.599 11.4827 32.9739 11.0511C33.9236 9.98763 35.1173 9.17054 36.4523 8.66995C39.1056 7.66044 42.0683 8.23103 44.0017 10.114C46.4772 12.528 47.1115 16.6144 46.6352 19.5859C46.2929 21.7497 45.2702 23.5208 43.4355 25.1162C44.6777 25.6386 46.1239 26.3803 47.3046 27.5303C49.1195 29.3167 49.2358 32.2333 48.5423 34.3335C47.8006 36.583 45.5731 38.2838 42.9988 38.5713C41.2431 38.7644 39.5928 38.2246 38.3441 37.7308C38.0741 37.6232 37.8086 37.5113 37.5496 37.373C37.3806 38.2159 37.0885 39.0293 36.6828 39.7871C35.5525 41.861 34.159 42.9078 32.5416 42.9078ZM27.0858 36.8661L27.2241 37.4257C27.2372 37.4762 27.2482 37.5267 27.2636 37.5749C27.5142 38.3331 27.8903 39.0437 28.3762 39.6774C29.2255 40.801 30.81 42.1243 32.4845 42.1551C33.8188 42.1858 35.0214 41.2641 36.0288 39.4294C36.4723 38.589 36.7691 37.6791 36.9066 36.7388L37.001 36.2055L37.4662 36.4777C37.8365 36.6934 38.2223 36.8812 38.6206 37.0395C39.7881 37.5003 41.3309 38.0051 42.9154 37.8317C45.2022 37.5771 47.1773 36.076 47.8291 34.1009C48.448 32.2245 48.3624 29.6305 46.7757 28.0702C45.7837 27.0936 44.4867 26.3145 42.5752 25.5749L41.9651 25.3379L42.4765 24.9297C44.4933 23.3298 45.5489 21.6378 45.8935 19.4652C46.3192 16.7724 45.742 12.866 43.4794 10.6473C41.7567 8.96403 39.1056 8.45269 36.7244 9.36783C35.5015 9.83051 34.4094 10.5837 33.5423 11.5624C33.0599 12.1247 32.6479 12.7438 32.3155 13.4059L31.9819 14.0248L31.6484 13.3993C31.08 12.3481 30.3733 11.1718 29.1619 10.5134C27.4655 9.61143 25.0141 9.65752 23.333 10.6209C20.6534 12.1681 20.0719 14.8587 21.6081 18.6334L21.8275 19.1491H21.2504C20.834 19.1393 20.4198 19.2117 20.0315 19.3624C19.6432 19.513 19.2885 19.7389 18.9877 20.027C17.7917 21.1572 17.2057 23.2355 17.6249 24.8551C18.009 26.3518 19.2248 27.651 20.9585 28.4169L21.4237 28.6232L21.0902 29.0073C20.6492 29.5077 20.2934 30.0771 20.0368 30.6927C19.2994 32.5098 19.7142 34.8032 21.0704 36.3986C22.5057 38.0907 24.5818 38.3738 26.6403 37.1273L27.0858 36.8661ZM31.7076 26.095C30.8188 26.095 29.8971 25.6386 29.4735 24.8792C29.3182 24.5921 29.2337 24.272 29.2272 23.9456C29.2207 23.6192 29.2924 23.2959 29.4362 23.0028C29.5688 22.7059 29.768 22.4435 30.0185 22.2361C30.2689 22.0287 30.5638 21.8818 30.8802 21.8068C31.2951 21.6372 31.75 21.5907 32.1905 21.6728C32.6311 21.7549 33.0387 21.9622 33.3645 22.2699C33.6036 22.4985 33.7839 22.7815 33.8902 23.0948C33.9964 23.4082 34.0254 23.7425 33.9746 24.0694C33.9271 24.4382 33.7937 24.7908 33.5852 25.0987C33.3767 25.4067 33.0989 25.6615 32.7742 25.8426C32.4447 26.013 32.0785 26.0997 31.7076 26.095ZM31.7515 22.3818C31.5436 22.3812 31.3379 22.4246 31.148 22.5091L31.0668 22.5354C30.8578 22.5825 30.6628 22.6781 30.4977 22.8146C30.3326 22.9511 30.202 23.1246 30.1165 23.3211C30.0248 23.5072 29.9784 23.7124 29.9811 23.9198C29.9838 24.1273 30.0354 24.3312 30.1319 24.5149C30.5313 25.2326 31.6879 25.5683 32.4208 25.1733C32.6406 25.0494 32.8281 24.8756 32.9684 24.666C33.1087 24.4563 33.1978 24.2166 33.2285 23.9663C33.2625 23.758 33.2459 23.5447 33.1802 23.3442C33.1145 23.1437 33.0016 22.9619 32.851 22.8141C32.553 22.5343 32.1603 22.3775 31.7515 22.3752V22.3818Z" fill="#F5F0E9"/>
<path d="M15.4854 27.9846C15.0619 26.1587 14.6712 24.3284 14.1687 22.5201C13.6837 20.749 13.2557 18.9846 13.8088 17.1806C14.7261 14.1894 16.6464 11.7292 16.6135 8.4571C16.5915 5.26397 14.2565 2.92892 11.1862 2.34516C7.98431 1.73506 5.24546 2.87844 3.12109 5.27714C1.9821 6.56317 1.02964 8.04452 0.678509 9.74752C0.32079 11.4878 0.375655 13.2589 0.478801 15.0255C0.756268 19.3346 1.42769 23.6092 2.48466 27.7959C3.58196 32.275 4.24034 36.8442 4.92724 41.4024C4.98959 41.7691 5.1898 42.098 5.48687 42.3219C5.93623 43.2746 6.6344 44.0884 7.50772 44.6775C8.38104 45.2665 9.39714 45.6089 10.4488 45.6686C13.9997 45.9166 15.8058 42.7213 16.3918 39.6664C17.1446 35.7381 16.3742 31.8186 15.4854 27.9846ZM11.375 10.8273C11.0242 11.5854 10.5454 12.2773 9.95945 12.8726C9.38227 13.4959 8.75462 14.1279 7.92067 14.3781C7.50828 14.4948 7.07164 14.495 6.65913 14.3788C6.24661 14.2626 5.8743 14.0345 5.58343 13.7197C4.94919 13.0614 4.83068 12.155 4.72095 11.2903C4.71494 11.2173 4.71494 11.1439 4.72095 11.0709C4.71477 10.5302 4.90151 10.005 5.24765 9.58951C6.22205 8.36493 7.5432 6.86163 9.25059 6.85724C9.69454 6.85517 10.1306 6.97424 10.5119 7.20162C10.8932 7.42901 11.2053 7.7561 11.4145 8.14767C11.8709 8.99258 11.7437 9.98015 11.375 10.8273Z" fill="#F5F0E9"/>
<path d="M46.4311 63.4031C45.3311 63.3667 44.256 63.0656 43.2972 62.5252C42.257 61.9546 41.592 60.9407 41.6052 59.94C41.6161 59.0797 42.1143 58.3533 43.0075 57.8968C43.0466 57.8749 43.0869 57.8551 43.1282 57.8376C43.0756 57.6971 43.0251 57.5567 42.9812 57.414C42.6015 56.1697 42.8824 54.888 43.7186 54.0651C43.9679 53.8176 44.2714 53.6316 44.6051 53.5219C44.9388 53.4122 45.2935 53.3817 45.641 53.433C45.9604 53.4843 46.2631 53.6105 46.5244 53.8012C46.7857 53.9919 46.9981 54.2418 47.1443 54.5303C47.4053 55.1047 47.5429 55.7275 47.5481 56.3584C47.5776 56.3497 47.6077 56.3431 47.6381 56.3387C47.8449 56.2864 48.0601 56.2763 48.2708 56.309C48.4816 56.3417 48.6836 56.4165 48.8649 56.529C49.0461 56.6414 49.2029 56.7892 49.3258 56.9635C49.4487 57.1378 49.5353 57.335 49.5803 57.5435C49.6768 57.9287 49.6447 58.3348 49.489 58.7001C49.3333 59.0654 49.0625 59.3697 48.7179 59.5669C49.3214 60.5523 49.5299 61.7922 48.5094 62.7052C47.9276 63.1884 47.1866 63.4373 46.4311 63.4031ZM45.3053 54.1507C44.9082 54.153 44.5278 54.3105 44.2453 54.5896C43.611 55.2128 43.4025 56.207 43.6988 57.1814C43.7427 57.3196 43.7932 57.4557 43.8437 57.5918C43.8941 57.7278 43.9249 57.8112 43.9622 57.9166L44.0807 58.2721L43.7273 58.3928C43.598 58.4365 43.4718 58.4893 43.3499 58.5508C42.7091 58.8822 42.3645 59.3606 42.3579 59.9356C42.3579 60.651 42.8715 61.4213 43.6571 61.8515C44.9892 62.5801 46.9271 63.0892 48.0068 62.1236C48.99 61.2458 48.1297 59.9707 47.8422 59.5998L47.4911 59.1499L48.0946 58.9941C48.3657 58.923 48.5975 58.7471 48.7391 58.5051C48.8806 58.2632 48.9204 57.9749 48.8495 57.7037C48.826 57.5886 48.7789 57.4795 48.7111 57.3836C48.6433 57.2876 48.5563 57.2067 48.4557 57.1461C48.355 57.0854 48.2428 57.0463 48.1263 57.0312C48.0097 57.0162 47.8913 57.0254 47.7786 57.0585C47.6974 57.0739 47.6162 57.0936 47.5306 57.1156H47.5042C47.4077 57.1331 47.3133 57.1463 47.2189 57.1551L46.8195 57.1902V56.7886C46.8042 56.0863 46.7537 55.3665 46.486 54.8551C46.3943 54.6709 46.2597 54.5114 46.0936 54.3899C45.9275 54.2685 45.7347 54.1887 45.5313 54.1572C45.4562 54.1491 45.3807 54.1469 45.3053 54.1507Z" fill="#F5F0E9"/>
<path d="M74.1756 26.7358C74.0746 22.5837 74.1405 18.4293 73.7959 14.2881C73.6006 11.874 73.3855 9.30197 72.5055 7.01082C72.0534 5.83012 71.395 4.61871 70.0914 4.23685C68.6298 3.8111 67.3109 4.67577 66.624 5.93327C65.6979 7.60994 65.654 9.67944 65.7856 11.5427C65.9349 13.6209 66.1982 15.6948 66.4265 17.7665C66.6745 20.0357 66.9378 22.3027 67.199 24.5698C67.2648 25.1469 67.3394 25.7241 67.4184 26.3035C67.199 25.8646 66.9795 25.4213 66.76 24.9736C65.4433 22.272 64.1134 19.5705 62.6847 16.9216C61.3679 14.4659 60.1104 11.986 58.8134 9.51704C57.8807 7.74381 56.0943 5.14102 53.8492 5.74893C52.5083 5.4768 50.9282 6.22076 50.9326 7.98961C50.948 13.5968 51.4901 19.182 51.8324 24.7673C52.1331 29.6919 51.0314 35.4835 53.5398 39.989C54.4901 41.6964 56.632 42.5874 58.166 40.9809C59.2041 39.8836 59.2874 38.1148 59.4213 36.7103C59.8449 32.2947 60.0599 27.9889 59.0965 23.6195C58.6444 21.5712 58.1324 19.5295 57.5603 17.4944C57.8251 17.9611 58.0848 18.4308 58.3394 18.9033C60.2333 22.3796 61.9385 25.9567 63.6876 29.5098C64.3855 30.9297 64.8683 31.8953 65.3709 33.1835C65.8734 34.4718 66.3606 35.8368 67.1375 36.9934C67.9649 38.2245 69.1741 39.4074 70.763 39.4074C72.3892 39.4206 73.5369 38.1762 73.8727 36.6686C74.5969 33.4666 74.2524 29.9816 74.1756 26.7358Z" fill="#F5F0E9"/>
<path d="M94.2277 14.6832C92.2701 11.5427 89.9131 8.05767 86.7003 6.07376C84.2686 4.57485 80.7639 4.12716 79.1113 6.98671C77.9811 8.9399 78.2335 11.6283 78.2138 13.79C78.1962 15.1945 78.2006 16.599 78.1918 18.0036C78.1721 18.1243 78.1501 18.2428 78.1326 18.3635C77.796 20.7491 77.7452 23.1663 77.9811 25.564C77.8574 28.35 77.9072 31.1411 78.1304 33.921C78.0733 34.3094 78.0316 34.6913 77.9987 35.0578C77.8165 37.1317 78.6571 39.2604 80.5115 40.3577C82.2935 41.4177 84.2972 41.0973 86.2174 40.6957C90.0668 39.8903 93.9402 38.6788 96.9402 36.03C103.511 30.2319 97.8663 20.512 94.2277 14.6832ZM89.5181 19.3533C89.6476 19.4827 89.7837 19.621 89.9175 19.7636C90.1288 20.0955 90.263 20.4704 90.3104 20.8609C90.4333 22.136 89.1889 23.2048 88.175 23.7293C87.655 23.9977 87.092 24.1729 86.5115 24.2472C86.2504 24.2801 85.6468 24.2867 85.6447 24.2845C85.243 23.94 85.2386 22.9677 85.1794 22.4849C85.0719 21.6071 85.0389 20.7293 84.9599 19.8514C84.8612 18.6971 84.9753 17.4154 84.9424 16.3796C85.4515 16.5308 85.9488 16.7193 86.4303 16.9436C87.5658 17.6005 88.6049 18.4115 89.5181 19.3533ZM84.9424 16.2194C85.028 16.1579 84.9424 15.9363 84.9424 16.2194Z" fill="#F5F0E9"/>
<path d="M122.347 30.7629C118.616 26.0642 113.755 30.4205 109.669 27.719C109.604 27.674 109.542 27.6256 109.482 27.5741C109.739 27.4715 110.004 27.3908 110.274 27.3327C112.568 27.1769 114.848 27.2976 116.661 24.6729C117.626 23.2771 117.464 20.8477 116.661 19.4058C115.412 17.1761 113.435 17.0554 111.71 17.3758C110.797 17.547 110.173 17.7336 109.377 17.8609C108.91 17.9516 108.433 17.9811 107.959 17.9486C108.938 17.0949 110.193 16.5529 111.591 16.1557C111.775 16.103 111.96 16.0547 112.146 16.0086C112.418 15.9603 112.688 15.9121 112.963 15.8857C114.108 15.7716 115.254 15.7848 116.399 15.6311C118.851 15.302 121.666 15.6311 122.937 11.4812C123.53 9.52798 123.376 7.12929 122.448 5.50529C121.519 3.88129 120.227 3.41823 118.91 3.24266C116.404 2.91128 113.97 4.22584 111.49 4.4848C108.87 4.75912 105.703 3.04295 103.515 6.20756C101.72 8.80376 102.102 12.6026 102.229 16.0371C102.238 16.273 102.26 16.5082 102.295 16.7416C102.295 17.4285 102.308 18.111 102.343 18.7782C102.633 24.5061 102.297 31.4783 104.788 36.1155C106.789 39.8463 110.193 40.5573 113.075 40.7702C116.636 41.0314 120.446 40.0899 122.716 35.2728C123.262 34.0965 123.08 31.6868 122.347 30.7629Z" fill="#F5F0E9"/>
<path d="M148.906 36.0694C148.076 34.0241 146.409 32.3386 144.932 30.73C143.884 29.6153 142.764 28.5699 141.58 27.6005C140.036 26.2692 138.583 24.8358 137.231 23.3101C136.597 22.6188 135.956 21.9341 135.361 21.2076C135.083 20.8692 134.822 20.5161 134.582 20.1498C134.561 20.119 134.542 20.0868 134.525 20.0533C134.852 19.9743 135.231 19.8909 135.471 19.8338C138.508 19.2303 141.67 18.0079 143.591 15.4446C145.735 12.5917 146.077 7.87109 143.999 4.91059C141.98 2.02689 137.981 0.705743 134.562 0.854975C132.927 0.927397 131.242 1.02835 129.734 1.73281C128.013 2.54701 126.951 4.12931 126.442 5.92888C125.85 8.02033 125.951 10.2237 125.933 12.3722C125.915 14.6568 125.933 16.8755 126.126 19.1557C126.291 21.0738 126.427 22.9948 126.532 24.9187C126.532 25.5639 126.576 26.2047 126.626 26.8434C126.714 28.858 126.762 30.8712 126.769 32.8829C126.769 35.1477 126.782 37.4125 126.94 39.6752C126.954 39.8698 126.988 40.0625 127.041 40.2501C127.23 41.2531 127.7 42.1616 128.659 42.7234C130.487 43.7922 132.389 42.5237 133.381 40.9678C134.391 39.3701 134.49 37.237 134.569 35.4067C134.641 33.7278 134.654 32.0028 134.387 30.3393C134.347 30.087 134.301 29.8346 134.253 29.5822C134.85 30.2933 135.295 31.1184 135.991 31.7571C136.741 32.4396 137.608 32.9465 138.335 33.6598C139.018 34.324 139.67 35.0182 140.292 35.7424C141.324 36.9429 142.109 38.4462 143.308 39.4733C144.587 40.5815 146.365 41.0534 147.881 40.1141C149.338 39.2626 149.49 37.5069 148.906 36.0694ZM131.435 8.44169C131.499 8.35593 131.568 8.27387 131.641 8.19589C131.746 7.96544 131.904 7.76333 132.102 7.60643C132.301 7.44952 132.534 7.34237 132.782 7.29391C134.538 7.0547 136.794 6.71674 138.15 8.152C138.498 8.53283 138.716 9.01395 138.774 9.52644C138.831 10.0389 138.725 10.5565 138.471 11.005C138.063 11.7621 137.272 12.2252 136.496 12.5061C135.705 12.7511 134.881 12.8754 134.053 12.8748C133.302 12.9055 132.466 12.9033 131.801 12.4973C130.243 11.5426 130.482 9.72114 131.435 8.44169Z" fill="#F5F0E9"/>
<path d="M43.9231 51.0146C47.6407 51.0036 51.354 50.7951 55.0694 50.7293C58.6027 50.67 62.0921 50.9158 65.6254 51.0936C69.1587 51.2714 72.7074 51.3548 76.2495 51.3131C79.842 51.2801 83.3819 51.0936 86.9723 51.3306C90.5275 51.5764 93.9818 51.0212 97.5305 51.0234C100.974 51.0234 104.415 51.1507 107.86 51.1441C111.396 51.1441 114.934 51.1331 118.467 51.0058C120.223 50.9422 121.978 50.7359 123.754 50.6349C125.718 50.523 127.653 50.7381 129.613 50.7249C133.564 50.7008 137.562 49.9963 141.477 49.5289C145.566 49.0395 149.663 48.6115 153.784 48.5896C156.199 48.5742 156.21 44.8149 153.784 44.828C146.49 44.8697 139.3 46.2019 132.058 46.8185C130.267 46.9403 128.471 46.9491 126.679 46.8449C124.904 46.8104 123.129 46.8837 121.364 47.0643C117.76 47.3584 114.137 47.3606 110.525 47.3804C106.974 47.4001 103.427 47.3804 99.8787 47.3013C98.2481 47.2618 96.6153 47.2421 94.9847 47.3255C93.1764 47.4177 91.3988 47.7249 89.5838 47.703C87.8479 47.681 86.1208 47.4835 84.387 47.4067C82.6533 47.3299 80.8932 47.455 79.1441 47.5032C75.4441 47.6064 71.7396 47.5757 68.0395 47.4352C64.12 47.2882 60.218 46.9217 56.294 46.9502C52.1726 46.9809 48.0577 47.2377 43.9341 47.2487C41.52 47.2487 41.52 51.0146 43.9341 51.0102L43.9231 51.0146Z" fill="#F5F0E9"/>
<path d="M5.78758 51.9145C7.01655 51.9145 8.217 52.1888 9.43938 52.2041C10.5213 52.2173 11.5835 51.9386 12.6654 51.9101C14.7218 51.8596 16.7913 52.1932 18.7949 51.5633C21.0949 50.8391 20.1117 47.2071 17.7942 47.9357C16.0385 48.4909 14.1336 48.0629 12.3077 48.1551C11.3465 48.2078 10.3984 48.4492 9.43061 48.4382C8.20822 48.4207 7.01655 48.1441 5.7788 48.1463C3.36475 48.1463 3.36475 51.9123 5.7788 51.9079L5.78758 51.9145Z" fill="#F5F0E9"/>
</svg>
