<svg width="325" height="302" viewBox="0 0 325 302" fill="none" xmlns="http://www.w3.org/2000/svg">
<path d="M233.45 31.9238C219.013 39.2582 207.353 50.8413 196.868 63.3757C189.44 42.8051 177.876 25.202 155.916 13.7571C129.937 0.178854 92.1145 -4.96678 65.193 8.86332C42.6863 20.4022 30.0602 44.6752 31.0506 69.6431C31.5323 82.7192 35.1825 95.4827 41.6874 106.836C45.4651 113.181 50.0037 119.04 55.2023 124.284C42.2329 126.49 29.4818 129.63 19.6028 139C12.3312 146.318 6.91738 155.271 3.81426 165.11C0.711149 174.949 0.00890385 185.388 1.76625 195.554C9.09456 232.194 41.1567 240.47 72.8445 238.469C69.8515 246.871 70.2886 256.114 74.0611 264.196C81.4156 280.007 99.5486 292.143 116.808 293.376C134.066 294.61 150.343 285.791 162.218 272.812C165.605 278.684 169.949 283.949 175.069 288.391C190.944 302.048 214.455 304.721 233.721 297.032C257.483 287.56 264.131 265.56 259.482 244.555C260.271 244.617 261.045 244.725 261.948 244.749C269.979 244.84 277.967 243.564 285.571 240.978C300.481 236.005 317.317 224.539 322.844 209.049C328.729 192.49 319.09 176.774 308.129 164.918C301.577 158.036 293.913 152.307 285.459 147.968C288.682 145.143 291.69 142.082 294.457 138.809C303.884 127.616 312.35 115.214 315.476 100.692C320.21 79.0371 313.229 54.5658 295.266 41.0946C278.113 28.3005 253.198 21.89 233.45 31.9238Z" fill="#F5F0E9"/>
</svg>
