<svg width="111" height="111" viewBox="0 0 111 111" fill="none" xmlns="http://www.w3.org/2000/svg">
<path opacity="0.3" d="M110.166 55.448C110.166 85.8237 85.5417 110.448 55.166 110.448C24.7904 110.448 0.166016 85.8237 0.166016 55.448C0.166016 25.0723 24.7904 0.447998 55.166 0.447998C85.5417 0.447998 110.166 25.0723 110.166 55.448ZM17.3159 55.448C17.3159 76.352 34.262 93.2981 55.166 93.2981C76.07 93.2981 93.0161 76.352 93.0161 55.448C93.0161 34.544 76.07 17.5979 55.166 17.5979C34.262 17.5979 17.3159 34.544 17.3159 55.448Z" fill="#FF6F61"/>
<path d="M101.591 55.448C106.327 55.448 110.234 51.586 109.499 46.9077C108.826 42.624 107.646 38.4251 105.979 34.4004C103.215 27.7275 99.1641 21.6643 94.0569 16.5571C88.9497 11.4499 82.8865 7.39863 76.2136 4.63462C72.1889 2.96755 67.99 1.78844 63.7063 1.11511C59.028 0.379732 55.166 4.28714 55.166 9.02296C55.166 13.7588 59.0531 17.5014 63.6679 18.5651C65.7069 19.0351 67.7083 19.6745 69.6506 20.4791C74.2428 22.3812 78.4154 25.1693 81.9301 28.684C85.4448 32.1987 88.2328 36.3712 90.1349 40.9634C90.9395 42.9058 91.5789 44.9071 92.0489 46.9462C93.1126 51.561 96.8552 55.448 101.591 55.448Z" fill="#FF6F61"/>
</svg>
