<svg xmlns="http://www.w3.org/2000/svg" viewBox="0 0 318.06 426.77"><defs><style>.cls-1{fill:#1d1d1b;}</style></defs><title>Asset 2</title><g id="Layer_2" data-name="Layer 2"><g id="Layer_1-2" data-name="Layer 1"><path class="cls-1" d="M148.11,162.44c5.2-2.76,7-10.56,2.54-14.77a9.72,9.72,0,0,0-10.53-1.88c-5.35,1.05-8.68,7.66-5.92,12.6C136.69,162.87,143.54,164.87,148.11,162.44Z"/><path class="cls-1" d="M317.64,351.69c-1-15.64-4-32.11-5.7-46.9-2.95-25.72-2.39-51.91-2.29-77.75.05-13.37,1.36-26.69,1.46-40.06.11-13-2.24-24.83-5.07-37.4-6.12-27.32-4.09-55.64-7.26-83.32-2-17.21-3.92-38.35-18.53-50-7.62-6.06-16.75-8.16-26.19-9.55C240.86,4.8,227.62,3,214.33,1.8A360.1,360.1,0,0,0,173.84.05c-13.54.26-27,1.89-40.5,2.83-13.87,1-27.78,1.87-41.68,2.32C80,5.57,68.54,3.31,57,2.13,46.35,1.05,35.25.79,25,4.47A9.77,9.77,0,0,0,21.36,6.8a32.83,32.83,0,0,0-9.87,5.71C3.33,19.49.27,30.16,0,40.57c-.27,11.06,2.6,21.86,4,32.76C5.56,86,5.59,98.93,6.45,111.63c3.9,57.23,2.69,114.21,2.24,171.51-.26,32.94-2.53,68.67,8.45,100.27,5.08,14.62,13.61,28.73,27.57,36.35a56.8,56.8,0,0,0,23.2,6.4c14.43,1.13,29,.48,43.45-.37,28.3-1.66,56.31-3.32,84.67-3.45,11.85,0,23.68-.69,35.52-.43,10.83.23,21.67.71,32.49.07,17.85-1.06,37.1-5,46.4-21.9C318.38,385.62,318.64,367.73,317.64,351.69ZM89.33,217.9c-7-8.23-9.55-20.26-5.44-30.35a31.61,31.61,0,0,1,5.56-8.91c-8.36-3.7-15.4-10.23-17.66-19s.74-19.69,7.32-25.9a17.62,17.62,0,0,1,12.55-4.86c-6.23-15.28-7.46-32.46,9.39-42.13,8.93-5.13,21.71-5.42,30.83-.56,6.25,3.32,9.91,9.09,13.15,15.11a47.78,47.78,0,0,1,6.35-9.55A42.17,42.17,0,0,1,168,80.38c12.13-4.62,26.19-2.41,35.6,6.78,11.27,11,15,30.48,12.6,45.53-2,12.72-8.79,21.32-17.69,28.39C206.39,164.17,214,168,220,173.91c8.22,8.08,9.18,21.42,5.71,31.94-3.68,11.15-14.59,18.55-26,19.82-7.68.85-15.2-1.26-22.28-4.06a44.66,44.66,0,0,1-6-2.92,44.27,44.27,0,0,1-4.6,14c-4,7.36-10.18,14.72-19.32,14.54-8.56-.16-17-6.56-21.91-13.08a37.43,37.43,0,0,1-5.83-11c-.13-.39-.21-.79-.31-1.19C109.88,227.68,97.94,228,89.33,217.9Zm89.23,81.16c-3.35,10.11-17.53,19.54-29.41,19.84a18.37,18.37,0,0,1-7.85,9.41c-7.44,4.36-17.17,3.52-24.79.22C108.31,325,102,317.33,102.43,308a21.35,21.35,0,0,1,2.36-9.18c-3.76-6.4-4.05-15.13-.78-22.72,3.12-7.24,10.36-13.46,18.48-13.87,6.33-.32,11.36,3,15.2,7.51a24.83,24.83,0,0,1,8.5-2.37c6.09-.51,12.39,1.1,17.9,3.58C175,275.89,182.56,287,178.56,299.06Zm47.51,47.11c-6.35,5.67-17.2,2.5-23.8-1.11-8-4.4-11-14.83-1.48-19.73a14.83,14.83,0,0,1,2.12-.9c-.42-1.25-.94-2.46-1.32-3.72-1.57-5.12-.76-10.89,3.19-14.78,4.17-4.11,11.22-3.69,14.09,1.81,1.54,3,1.79,6.93,1.87,10.45.41,0,.83-.09,1.26-.17s.9-.22,1.34-.31c8.72-1.64,10.69,10.77,2.56,13.25l-.42.1C229,335.52,231,341.77,226.07,346.17Z"/></g></g></svg>