<svg xmlns="http://www.w3.org/2000/svg" viewBox="0 0 405.34 465.07"><title>Asset 45</title><g id="Layer_2" data-name="Layer 2"><g id="Layer_3" data-name="Layer 3"><path d="M95.88,199.87c-3.24,2.14-5.49.6-8-1.42-7.89-6.25-15.24-12.85-20-21.76-4.11-7.68-3.5-12.11,3.12-18.1,1.06-1,2.32-1.68,1.37-3.46-4.51-8.53-4.08-18-4.91-27.1-1-11.38-2.21-22.79-1.83-34.27.07-2.23.59-3.08,2.41-2.72,2.81.56,3.67-.57,4.28-2.93C73.64,82.73,77.2,78,77.46,72.25a11.81,11.81,0,0,1,2.17-5.58C90.47,50.14,103,35.46,121,25.07c8.22-4.76,16.92-7.38,25.6-10.37,5.49-1.89,9.88-5.07,14.66-7.88,2.13-1.25,4-2.19,6.56-.23C170,8.26,176.1,6,177.6,3s3.64-3.71,6.27-2.46c8.35,4,17.54,3.46,26.36,4.9A62.48,62.48,0,0,1,233.37,14c7.76,4.79,15.73,9.39,23.85,13.56,11.52,5.91,19,15.19,25.62,25.33,5,7.76,11.2,14.85,14.91,23.49a126.35,126.35,0,0,1,5.18,14.44c1,3.26,1.14,6.64,4.11,9.08a3.08,3.08,0,0,1,.66,3,11.94,11.94,0,0,0,.44,4.9c3.84,15.95,1.13,31.74-1.14,47.55-.8,5.51-1.53,10.92-1,16.59.63,7-3.28,12.62-8.78,16.71-2.89,2.16-5.31,4.82-8.44,6.71-3.56,2.15-4.81,5.77-5.2,9.55-1.57,15.44-5.95,30.23-11.09,44.84a22.62,22.62,0,0,1-7.89,10.84c-5.71,4.32-11.27,8.84-16.61,13.58-3.7,3.28-3.19,8.26-4.09,12.52-1.75,8.27-1.68,16.54,1.84,24.57,1,2.22,1.52,3.28,3.95,1.31,2.88-2.34,5-.86,5.63,2.07,1.09,5.16,3.67,7.59,9.32,6.13a4.34,4.34,0,0,1,3.6,1.11c15.43,11.21,33.62,16.11,51.93,20.39,12,2.8,23.12,6.75,32.57,14.48,2.66,2.17,6,3,9,4.43,4.5,2.14,7.55,4.33,8.43,9.89,1.45,9.09,5.64,17.59,7.68,26.69,3.89,17.34,8.79,34.48,13.37,51.67.9,3.36-.39,4.71-3.72,4.66-11.31-.17-22.61-.5-33.9-1.32C313.8,449.87,274,447.1,234,449.05c-20.38,1-40.75.65-61.12.33-18.17-.28-36.13,2-54.14,3.61-15.92,1.39-31.8,3.26-47.66,5.18-14.55,1.76-29,0-43.57.06-6.36,0-12.78-1.41-19.15.9-2.94,1.08-7.66-2.43-8.29-5.5-.15-.7-.12-2,.15-2.12,5-1.52,3.76-5.95,4.55-9.25,2.79-11.61,8.77-21.93,14.11-32.48,3.54-7,6.81-14.16,8.22-21.65,2.71-14.29,11-22.47,25.57-25.51,11.22-2.35,20-9.15,29-15.4a48.2,48.2,0,0,1,19.22-8.3c8.67-1.56,15.82-6.4,23.56-10.12,8.49-4.06,15.6-12.12,26.54-10.72,1.59.21,1.83-1,2.17-2a70.35,70.35,0,0,0,2.87-31.7c-.28-2.16-1.46-5-3.19-6.08-8.66-5.52-15.25-13.75-24.35-18.37-12.45-6.33-18.51-16.79-23.24-28.52C101.22,221.29,98.83,210.69,95.88,199.87ZM286,337.68c-.68,1.65,1,3.58-1.22,4.41-1.77.66-3.07-.37-4.35-1.38s-3.12-3.41-4.22-2.67c-3.78,2.51-9.11,1.51-12.16,5.9-4.64,6.69-9.89,13-15.12,19.32a301.58,301.58,0,0,1-22.1,23.44c-.73.72-3.09,1.37-1.54,3.24.87,1.05,3.48,1.64,1.16,3.42a3.82,3.82,0,0,1-4.93-.35c-4.09-3.65-9.57-5.28-13.76-8.6a303.43,303.43,0,0,0-36.68-24.83A95.58,95.58,0,0,1,145.31,338c-2.2-2.63-6.12-3.71-7.08-7.67-.44-1.79-1.86-.67-3,.11a75.13,75.13,0,0,1-29.89,12.61c-6.87,1.18-12.72,4.18-18.49,7.73-6.09,3.74-11.86,7.9-18.12,11.44C61.89,366.11,54.14,367,47.09,370c-4.76,2-8.61,4.93-10.26,9.8a389,389,0,0,1-20.68,49c-2.9,5.84-5.18,12.05-5.17,18.77,0,3.73,1.09,5.67,5.57,5.41,5.13-.3,10.3.21,15.46.28,9.86.15,19.76.8,29.58.22,19.49-1.16,38.68-5.09,58.21-6.37,16.59-1.08,33.1-3.47,49.78-3.13,19.55.41,39.13,1.19,58.63,0,38.7-2.42,77.22.27,115.8,2.34,12,.64,24.05,2.86,36.2.66,3.13-.56,3.46-1.44,3-4.22-3.61-21.1-10.75-41.39-15.48-62.23-1.87-8.23-5.21-15.62-15.06-17.84a7.58,7.58,0,0,1-2.72-1.92,54.06,54.06,0,0,0-24.7-12.2C311.94,345.9,299.09,341.94,286,337.68Zm-60.35-227c-.74,2.89-1.2,5-1.8,7-2.15,7.41-6.92,13.55-11,19.93-2.68,4.15-7-3.25-10.45.36a7.05,7.05,0,0,1-2-1.67c-.77-1.22.34-2.33.62-3.5.32-1.33,1.76-2.44,1.12-3.93-2.11-5-4.3-9.87-6.68-15.3A105.51,105.51,0,0,1,188,127.23c-3.58,5.77-10,9.28-12.81,15.67-.94,2.13-3.41,2.25-4.38-.8-2-6.34-3.42-12.8-9-17.68-2.85-2.47-3.1-6.93-4.89-10.52-.51,7.24-4.53,13.31-6.47,20-.83,2.84-1.86,2.89-3.83,1.66-8.21-5.08-15.43-11.14-20.59-19.26-1-1.51-.18-4.15-3.16-4.71a77.73,77.73,0,0,0,2.37,22.21c.43,1.77,1.48,4,0,5.33-1.91,1.67-4.06-.28-5.7-1.13-8.65-4.48-13.65-12-17.49-20.36-.81-1.78-1.23-3.9-3.18-5.34-.67,9.21-1.32,18,2.13,26.46.63,1.54,1.49,3.4-.73,4.49s-3.49-.55-4.87-1.91c-3.38-3.33-5.08-8-9.72-11,.67,2.32,1.33,4.2,1.75,6.12,4,18.36,7.63,36.78,11.89,55.08,3.52,15.14,7.53,30.2,13.85,44.55,3.22,7.29,7.56,13.93,14.58,18.31,3.59,2.25,7.52,4.2,10.48,7.06,10.29,9.91,22.76,16.65,35.37,23.16,12.31,6.35,25.24,8.9,38.62,3.1,6.9-3,14.23-5,20.7-9.07,6.14-3.81,10.56-9.6,17.22-12.89,3.78-1.88,6.65-5.38,10.11-7.92a19.1,19.1,0,0,0,6.28-8.62c7.79-18.81,11.54-38.54,12.4-58.56.65-15,2.57-29.86,3.73-44.76.71-9.13-1.79-16.12-6.08-23.36-.37-.64-.4-1.64-1.49-1.41-.91.19-1.08,1.06-1.21,1.83-.21,1.32.38,3.31-1.45,3.57-6.15.87-6.73,6.29-9.71,10,1.45.32,2.56.54,3.65.81,2.19.53,5.32,1,4.72,3.6s-3.4,1-5.39.75c-11.16-1.66-22.19-2.31-32.23,4.17-1.34.86-2.78,1-3.84-.44-.89-1.18-.57-2.32.4-3.38a8.83,8.83,0,0,1,4.38-2.78c6.07-1.58,12.06-3.55,18.52-3.14,1.14.07,2.66.51,2.93-1.43,1.07-7.71-.84-15.16-2.1-22.66a2.58,2.58,0,0,0-3-2.38c-1.79.16-3.23,1-3.6,2.65-1.79,7.61-7.22,12.91-12.41,18.35-2,2.11-4.45,1.38-5.47-1.38-.64-1.72-.21-3.41.06-5.06C230,119.53,228.79,115.37,225.67,110.69ZM239.3,280.75c-34.61,16.78-42.71,22-77.35,3.31-1.31,2.49.48,4.8.43,7.23a106.75,106.75,0,0,1-9.33,41.78c-1.49,3.31-1.54,6.12,1.51,9.19a74.34,74.34,0,0,0,16.17,12.42,258.57,258.57,0,0,1,26.54,17c5.73,4.27,11,9.09,17.79,12,3,1.28,5.23,1,7.73-1.47,13.53-13.21,25.53-27.61,37.07-42.42,2.4-3.08,3.47-4.76-.87-6.85a11.18,11.18,0,0,1-4.57-4.67c-1.46-2.72-2.45-5.15-6.51-4.83-2.1.17-2.75-2.35-3.68-3.95C237.26,307.4,235.32,294.72,239.3,280.75ZM92.73,187.63c-.58,4.52-2.23,5-6,2.62-5.7-3.68-7.58-9.42-8.78-15.48-.44-2.22-.53-4.48,2.07-5.6,2.87-1.23,5,.44,6.86,2.17a2.43,2.43,0,0,1,.69,3c-.67,1.25-1.56.46-2.41,0-1.25-.68-2,0-1.82,1.11.76,4,1.57,8,5.33,10.56a3.7,3.7,0,0,0,2.67.58c1.22-.34.71-1.54.55-2.41-1-5.65-1.92-11.32-3.1-16.94-1.11-5.31-9-7.9-13.59-4.58A9.78,9.78,0,0,0,72.58,176a64.21,64.21,0,0,0,14.69,16.53c1.72,1.36,3.94,3.6,5.86,2.15C94.87,193.39,93.37,190.68,92.73,187.63Zm200-3.09c5.16-3.14,7.36-7.35,7.25-12.28-.07-3.09.41-7.41-2.53-9-3.14-1.7-6.17,1.38-8.88,3.27-2.53,1.75-4,3.22.63,4,1.69.29,2.47,1.82,3.27,3.2C294.36,177.06,293.47,180.53,292.7,184.54Zm-69-140.6-1.33.17c.86,5.29.28,11.44,3,15.59a15.22,15.22,0,0,1,2.67,10.07c-.19,4-.33,8-.47,12.06,0,.84-.53,2,1.06,2,1.13,0,2.34-.21,2.45-1.68a13.83,13.83,0,0,0,0-2.32c-.44-5.07-1.27-10.11-1-15.23C230.56,57,227.56,50.32,223.74,43.94ZM173,28c2.92-3.24,1.8-7,2.1-10.48.06-.64-.6-1-1.31-1.07-3.13-.25-7.14-.06-8.55,2-3,4.43-4.39,9.75-5.25,15.08,2.9-3.6,3.51-8.24,6.36-11.81.74-.93,1-2.56,2.67-2.14,1.38.33,2,1.43,2.87,2.62C173.23,24.08,171,26.15,173,28Zm73.55,29.11c-.19-4.73.39-9.47.27-14.21-.08-3.07-.44-6.22-3.11-8.46a2.48,2.48,0,0,0-1.72-.58c-.68.1-.78.74-.65,1.45C242.63,42.59,243,50.1,246.54,57.07ZM140.94,68.91c-2.92,5-3.75,10.61-5.52,16-.34,1-.08,2.54-1.44,2.65-7.51.61-2.75,4.79-3.2,7.52C140.2,88.35,138.94,78.09,140.94,68.91Zm65.88-13c-2.36,6.31-1.81,11.61-1,17,.26,1.7,1,2.58,2.79,2.36s1.42-1.77,1.57-2.92C210.94,66.87,208.64,62,206.82,55.9Zm82,79.75c-.36,7.16-.74,14.32-1.06,21.48,0,.8-.24,2.09,1.3,1.84A1.73,1.73,0,0,0,290.7,157C290.44,149.91,291.66,142.71,288.85,135.65ZM171,77.14a64.57,64.57,0,0,1-2.81,8.21c-1.85,3.76-1.49,5.7,2.72,8.65C171.5,88.26,172.26,82.74,171,77.14Zm-49.26-22c-4.1,5-7.86,8.83-5.38,15C120,66,121.54,61.34,121.75,55.13ZM249.41,79.81c-.53-7.18-4.7-13-7.29-19.45C243.32,67.29,245.22,74,249.41,79.81ZM232.1,18.48c3.11,4.79,6.79,7.55,13.65,7C240.75,22.76,237.31,19.59,232.1,18.48ZM266,85.23c.43-5.78-4-9.74-6.05-14.67C260.24,76.06,263.08,80.61,266,85.23Zm-33.55,27.5c-.29-3-.52-5.24-.74-7.52-.09-.91,0-2.17-1.09-2.28a5.14,5.14,0,0,0-3.05.92,1.67,1.67,0,0,0-.13,2.51C229,108.22,229.53,110.82,232.45,112.73Zm-80.38-9.14c-2.4,4.45-4.89,9-1.82,14.36C152.53,113.2,151.13,108.26,152.07,103.59Zm3.08-82.68c-5.11,2.66-7.81,6.55-11.34,9.53-.53.44-.93,1-.33,1.48a2.24,2.24,0,0,0,1.69.21C147.31,27.8,153.16,26.66,155.15,20.91Zm60.47-6.1c1.57,4.79,5.89,7.26,9.55,10.28C223.64,20.28,219.54,17.62,215.62,14.81Zm-21,41.65V72.21l1.4,0C196.17,66.93,197.34,61.65,194.66,56.46ZM286.1,175.58a50.6,50.6,0,0,0-.89,14.56C285.66,185.6,289.5,181.26,286.1,175.58ZM181.34,27.34c1.4-2.8,7.32-5,1.32-9C180.73,21.25,180.64,24.24,181.34,27.34ZM258,91.85c.39,3.05.74,5.74,1.12,8.64C262.7,97.41,262.7,97.41,258,91.85ZM83.81,144.22l-3.33-14.13C79.74,135.18,81.2,139.82,83.81,144.22ZM209.18,20.37c-.4-3.62-2.56-4.14-4.8-4.24-1.23-.05-1.45,1.21-1.12,2.05C204.34,20.88,206.94,19.48,209.18,20.37ZM236.7,38.59c1.42-2.93-.42-5-.41-7.25a1.52,1.52,0,0,0-2-1.44c-1.17.35-1,1.41-.6,2.28C234.57,34.1,235.49,36,236.7,38.59Zm-9.83,58.19c2.61-2.73,2.64-5.74.87-10.21C227.37,90.88,227.12,93.83,226.87,96.78Z"/><path d="M401.64,465.07c-2.56-.1-4.32-1.25-4.51-3.77-.15-2.11,1.77-2.37,3.3-2.31,2.31.09,4.6.79,4.89,3.43S403.18,464.54,401.64,465.07Z"/><path d="M203.38,259.28c-11.79-1.35-24-.5-34.89-6.56a10,10,0,0,1-4.84-6c-.42-1.26-.78-3.58,2.11-4.35,6.83-1.83,13.54-4.07,20.32-6.07,1.84-.54,4.21-1.52,5.62-.31,3.77,3.23,6.55,1.12,10-.57,6-3,12.12-3.46,17.5,1.44,2.14,1.94,4.63,1.88,7.21,1.79,2.25-.07,4.55-.3,6.44,1.22.7.57,1.9,1.85,1,2.16-4.44,1.63-3.44,7.55-8.73,9-6.25,1.68-12,4.95-18,7.62A8.3,8.3,0,0,1,203.38,259.28ZM219.56,244c-5.72-7.12-12.39-7.92-16.67-3.42-3.5,3.69-6.17,4-10.23.78-1.14-.89-1.88-1.82-3.7-1.45-4.86,1-9.44,2.58-13.6,5.9Zm-8,6.07c-12.94-1.77-25.86,2.05-38.8.48C185.74,253.79,198.68,257.31,211.59,250.06Z"/><path d="M252,153.15c4.18,4.36,2.57,8,1.22,11.41-.91,2.25-3.13,4.49-5.91,4-3.47-.58-5.82-3.12-7-6.34A8.82,8.82,0,0,1,240,159c0-2.78.17-5.32-4-2.84a2.9,2.9,0,0,1-4.4-1.43c-.81-2.23,1.33-2.26,2.69-3,11.88-6.31,23-2.9,34.08,2.22,1.47.67,2.65,1.57,1.94,3.15s-2.44,1.11-3.83.77c-3.74-.92-6.7-3.75-10.67-4.16C255,153.69,254.23,153.53,252,153.15Z"/><path d="M141.74,150.59c5.63,0,8.93,2.51,9.86,6.86.22,1,.49,2.26-.94,2.77a2.16,2.16,0,0,1-2.87-1c-.47-.82-1-1.58-1.47-2.41-1.09-2.14-2.86-.92-4.22-.63-1.58.33-1,1.64-.64,2.67.1.3.28.57.35.87,1,4.5-.48,8.39-3.7,9.49-3,1-7.83-1.31-8.75-5.54-1.07-5-3.68-4.48-7.21-3.33-.76.24-1.56.4-2.34.6-2.26.58-2.75-1.21-3.4-2.52-.83-1.65.09-2.89,1.79-3C126.56,154.76,134.09,150.23,141.74,150.59Z"/><path d="M141.68,139.06A19.83,19.83,0,0,1,155,143.64c1.09.84,2.5,2.05,1.34,3.51-1.31,1.65-2.8.33-3.59-.66-2.27-2.84-4.59-2.2-7.62-1.11-6.23,2.24-13,1.94-19.49,3.13-3.81.7-7.66,1.27-11.14,2.91-2.37,1.12-3.79.32-4.68-1.55-1-2.13.57-3,2.43-3.66C121.84,142.92,131.44,139.8,141.68,139.06Z"/><path d="M175.23,223.31c-2.94-1-7.22-2-11-3.89-2.75-1.39-4.28-4-.53-6.51,2-1.32,3.78-2.86,5.7-4.25,1.67-1.21,3.18-.4,4.25.76s.48,2.59-.76,3.6a8.21,8.21,0,0,0-1.12.88c-1,1.15-4.16,1.73-2.68,3.32a4.32,4.32,0,0,0,6.64-.18,7,7,0,0,1,10.2.21c2.21,2.75,1.29,5.09-2.3,5.55C181.25,223.1,178.83,223.1,175.23,223.31Z"/><path d="M207.63,214.66c3.59-.21,5.44,2.68,8.11,4,1.26.62,2,1.51,3.07,0,.91-1.24,1.53-2.49.08-3.7-1.28-1.08-3.74-2.23-1.61-3.83,2-1.5,4.75-.94,6.16,1.58,1.56,2.78,2.78,5.78.5,8.73-2.15,2.78-4.79,3.24-8.51,2.32s-7.79-.4-10.35-3.88c-.78-1.05-2.52-2-1.61-3.56S206.12,214.78,207.63,214.66Z"/><path d="M275.07,151c-1.59-.53-3.19-1.33-3.63-3.16-.38-1.59.85-1.72,2.11-1.63,1.77.13,3.19.71,3.5,2.58C277.26,150.08,276.68,150.91,275.07,151Z"/><path d="M175.94,330.61c8.65.4,14.08,4.77,18.78,10.34.82,1,1.42,1.81.26,2.74-.95.77-1.74.11-2.48-.56-1.64-1.48-3.3-2.95-5-4.37-2.4-2-4.92-3.49-8.26-1.84a5.09,5.09,0,0,1-2.8.45c-2.56-.36-5.09-1.61-5-4.15C171.46,330.24,174.71,331.18,175.94,330.61Z"/><path d="M221.18,342.5c-2.31.62-2.58-1-3.07-1.95-.8-1.59.78-1.51,1.73-2,3.57-1.73,7.1-3.54,10.62-5.36a12.12,12.12,0,0,1,6.56-1,3,3,0,0,1,2.66,2.35,1.83,1.83,0,0,1-1.37,2.55c-5.66.57-10.6,3-15.68,5.12A5,5,0,0,1,221.18,342.5Z"/></g></g></svg>