<svg xmlns="http://www.w3.org/2000/svg" viewBox="0 0 423.22 487.99"><title>Asset 47</title><g id="Layer_2" data-name="Layer 2"><g id="Layer_3" data-name="Layer 3"><path d="M235.51,12.31A29.84,29.84,0,0,0,226.62,5c-1.35-.73-3.08-2-2.32-3.64.87-1.83,3-1.53,4.7-.81C236.51,3.7,244.79,5.51,250.38,12c2,2.36,4.62,1.93,7.14,1.3,10.71-2.67,20.09,1.34,29.34,5.51,1.61.73,4.67,1.84,3.54,4.74-1.23,3.18-3.87,1.65-6.21,1.43-2.68-.25-5.4-.06-9.2-.06a118.23,118.23,0,0,1,23.16,18.2c5,4.89,10.5,9.36,15.06,14.49,5.3,5.95,8.61,13.38,11.13,21,4.18,12.58,6,25.64,8.52,38.56.35,1.82,1,3.61,1.22,5.44.38,3,1.3,6.54-3.88,6.65a1.62,1.62,0,0,0-1.74,1.35c-.35,6.43-4.07,12.28,1,19.37,6,8.43,7.57,18.85,1.86,28.6-5.49,9.37-13.7,16.37-23.34,21.68-2,1.1-1.71,2.42-1.95,3.74-1.75,9.45-1,19.18-3.24,28.57-3.55,15.09-6.49,30.28-15.52,43.76-6.91,10.3-15.27,18.64-26.34,24.65-5.71,3.1-5.31,9.32-6.28,14.29-1.14,5.9-.35,12.14-.48,18.24,0,1.72.11,2.89,2.31,3.29s3.16,2.42,4,4.31c2.1,4.53,4.13,9.1,6.49,13.51,5.41,10.1,16,13.93,25.49,19.08,1.2.66,1.69.26,2.58-.88,3.28-4.13,6.81-6.47,13.29-5.92,8.24.71,13.32,4.32,17.9,10.15,5.11,6.5,12.18,10.07,20.63,10.84,4.72.43,8.69,1.73,11.66,5.62s7,5.56,12.31,4c3.61-1.05,6.74.82,9.8,2.89,9.52,6.41,13.85,16.22,17.92,25.86,5.14,12.19,9.16,24.82,13.39,37.34.91,2.69,2.22,3.35,4.8,3a5.42,5.42,0,0,1,4.78,1.7c1.26,1.21,2.1,2.45,1.4,4.1a3.3,3.3,0,0,1-3.89,2.13c-4.33-1.24-3.92,1.11-3.25,3.67a41.2,41.2,0,0,0,1.78,5.26c.86,2.09-.47,3.36-1.91,4.22s-3.15.28-4.17-1.22a19.92,19.92,0,0,1-3.4-8.65c-.31-2.51-1.41-3.18-3.71-3-31.83,3-63.6.35-95.37-1.21-12.31-.61-24.55-.37-36.82.2-12.49.57-24.89-1-37.34-1.34-6.28-.15-12.59-.12-18.86.28-17.17,1.12-34.27-.85-51.41-.9a440.66,440.66,0,0,0-56.6,3.18c-26.28,3.32-52.41,8.11-79,8.72-6.73.16-13.5-1.15-20.23-1.92a13.73,13.73,0,0,1-3.55-1.42,2.7,2.7,0,0,1-1.67-3.46c.43-1.7,2-1.41,3.2-1.31,4.82.42,9.62,1.1,14.44,1.49,16.74,1.36,33.1-1.9,49.58-3.81,22.53-2.62,44.87-6.84,67.63-7.64,19.84-.7,39.65,0,59.48.63,9.52.29,19.07-.34,28.6-.66,13.93-.46,27.71,2.57,41.66,1.51,28.16-2.13,56.19,1.07,84.28,2a476.72,476.72,0,0,0,50.43-1c2.74-.2,3.21-.94,2.41-3.46-3-9.42-2.93-9.7-13.06-7.78-6.29,1.19-12.51.07-18.68.46-15.23,1-30.34-.73-45.5-1.11-15.76-.4-31.48-2.36-47.21-3.73s-31.61-.2-47.42.94c-17.56,1.26-35.16,2.34-52.81,1.69-19.91-.73-39.66,1.07-59.33,3.89-13.25,1.9-26.58,2.51-40,2.92-22,.67-44,1.08-65.78,4.14-3.67.52-6.36,2.29-7.44,5.45-1,2.85-3.18,2.94-5.4,2.19-2.5-.85-3.26-2.86-2.23-5.25C2.24,464.24,3.76,459.94,6,456a118.81,118.81,0,0,0,15-43.89,15.53,15.53,0,0,1,8.56-12.25,86.86,86.86,0,0,0,20-14.52c3.79-3.6,8.71-3.8,13.41-4.51,1.79-.27,4.55.18,5,2.07,1.22,4.72,3.33,2.11,5.24.88,11.58-7.47,18.77-18.59,26.33-29.4a44.77,44.77,0,0,1,2.9-3.72c1.31-1.5,3.69-2.18,4.7-.87,3.74,4.85,7.78,1.05,11.65.82,3-.18,5.69-1.18,5.33,3.84-.18,2.62,2.22,5.65,4,8.07,1.29,1.7,3.29-.08,4.82-.58,7.64-2.49,14-7,20-12a83.23,83.23,0,0,1,9.81-7.57c4.75-2.89,6.62-6.91,6.62-12,0-5.28.24-10.55-.35-15.83-.27-2.41,0-4.73-3.32-5.28a1.4,1.4,0,0,1-1.26-1.72c1.6-4.57-2.17-4.65-4.9-5.33-12.26-3.05-23-8.79-30.47-18.61-6.48-8.49-11.1-18.11-14.93-28-4.65-12.05-9.73-23.95-13.43-36.32-.32-1.08-.54-2.58-2.44-2.22-11.55,2.18-18.76-3.53-22.76-12.88-3.82-8.94-7.83-18-8.16-28-.13-4.14.94-7.7,4.11-10.51,2.41-2.13,2.44-5.52.65-6.65-6.11-3.84-4.39-9.68-3.86-14.34,2.48-22,5.66-43.9,15.21-64.39A51.62,51.62,0,0,0,86.82,72c2.26-8.34,9.15-13.29,14.91-19a41.86,41.86,0,0,0,4.66-5.91c7.32-10.5,19.61-14.22,30.09-20.28A122.66,122.66,0,0,1,174,12.53c8.56-1.7,17.29-1.69,25.94-2.45C211.67,9.06,223.09,11.62,235.51,12.31Zm-17.37,76.8c-.54,2.13-.7,3-1,3.85-.91,2.61,1.08,5.73-.28,7.7a12,12,0,0,0-2.21,8.1c.13,2.64-3.16,3.58-5.32,1.6-2-1.83-3-4.29-4.07-6.76-2.15-5.13-2.56-10.64-3.86-16.71-3.43,4.67-6.24,8.76-9.34,12.64-2.13,2.65-5.3,4.64-5.8,8.26-.22,1.62-.81,2.73-2.48,2.93a4,4,0,0,1-3.71-1.82c-1.76-2.3-1.89-4.94-1.42-7.58a2.68,2.68,0,0,0-1.34-3.16c-1.36-.78-2,.45-2.83,1.1-1.6,1.3-3,2.91-4.75,3.95-6,3.55-10.5,9.38-18.13,10.49-5.21.76-7-.74-5.58-5.52,1.14-4,1.45-8,1.55-13.45A155.48,155.48,0,0,1,124,118.12c-1.88,1.47-3.67,3.31-6.3,2.81-2.4-.45-2.68-2.79-3-5.68-5.23,9.29-12.67,15.32-19.56,21.81a10.09,10.09,0,0,0-3.43,9.2c.21,1.69.85,3.63-.95,4.74-2.5,1.55-1.86,3.83-1.67,5.83,1.53,16.14,8.08,31.1,12.12,46.66,1.38,5.28,4.37,10,6.12,15.12,6.64,19.39,13.37,38.73,23.47,56.79a42.11,42.11,0,0,0,23.77,20.05c5.63,1.92,11.33,3.65,17,5.53,12.91,4.32,25.79,8.69,38.7,13a19,19,0,0,0,12.77-.07c14.13-4.94,26.45-13.18,39.43-20.14s20.41-19.35,25.58-32.38c6-15.1,9-30.93,10.4-47.09,2.1-24.74,4.9-49.41,5.48-74.25.15-6.73-.74-12.14-6.52-16.74a52.51,52.51,0,0,1-14.14-17.89c-1,1.26-.38,1.76-.25,2.33.45,2,2.1,4.11,0,6-2.42,2.13-4.62.36-6.54-.91a60.4,60.4,0,0,1-13.73-11.64c-.61-.75-1.55-2.54-2.31-1.61-1.53,1.87-5.89,2.75-3,6.7s3.05,7.3-2.62,9a2.54,2.54,0,0,0-1.84,2.5c0,1.67,1.69,1,2.64,1,6.22.29,11.8,2.9,17.73,4.25,7.73,1.77,15.63,3.15,18.49,11.88.53,1.62,2.65,3.2-.06,4.76-2.32,1.32-3.57-.16-4.78-1.7s-1.81-3.31-4.33-3.1c-5.95.51-12-1.34-17.55-1.1-10.87.47-19.27-7.25-29.85-6.39-1.92.15-2.55-1.68-2.75-3.3-.24-2,1.32-2,2.72-2.5,4.17-1.59,8.69-1.73,13.51-3C236,111.22,226.55,101.5,218.14,89.11ZM174.39,307.74c.58,3.08,1.13,5.32,1.42,7.59.9,7.11.26,14.18-.13,21.31-.46,8.6-4.16,16.07-6.75,23.94-.8,2.45-3.4,2.07-5.4,1.19s-2.84-2.32-1.62-4.5,2.74-4.61,2.81-8c-1.4,1.15-2.32,1.77-3.07,2.54-9.62,9.81-22.34,14.84-35,19-6.27,2.06-3.63,4.44-3,7.33a9.75,9.75,0,0,0,2.16,4.12c11.71,13.43,23.54,26.68,39,36.46,11.1,7,23.09,11.69,36.22,11.6a98.68,98.68,0,0,0,41.73-9.06c10.91-5.13,21.29-11.05,31.59-17.18,8.13-4.85,13.59-11.77,18.58-19.27,1.53-2.31,1.19-3.73-1.28-5.27-3.8-2.36-7.65-4.59-11.63-6.66-7.17-3.75-13.63-8.32-17.93-15.21-2.41-3.87-3.37-8.45-6.52-12.57.87,6.91,2.64,13.05,4.23,19.24.48,1.89.89,4.38-2,4.91-2.36.44-3.54-1.09-4.66-3.15-2.05-3.79-1.08-7.87-2-11.75a125.11,125.11,0,0,1-3-35.53c.24-3.89,1.3-7.74,1.14-12.05-5.44,2.74-10.51,5.09-15.38,7.78-10.19,5.61-20.24,7.34-31.59,2.29C193.68,313,184.16,310.84,174.39,307.74Zm181,91.32a25.2,25.2,0,0,1-.38,3.69c-.9,3.31-.73,5,3.87,4.3s9.66-.48,14.49-.4c2.84.05,5,1.49,4.86,4.48-.16,3.2-2.24,3.79-5.29,3.08-4.78-1.12-9.67-.06-14.52-.22-2-.06-4.68.12-5.41,3-.35,1.39-.93,2.81-2.79,2.72s-3.88-.88-4.26-2.6c-.68-3.13-2.61-2.71-5-2.6-18.56.87-37.13,2.12-55.7,2.19-8,0-12.21,5.12-18.09,8.3a103.34,103.34,0,0,0,17.52.58c9-.57,18-1.64,27.05-2.37,23.09-1.89,46.17-.57,69.25.51,3.36.15,6.2,1.46,5.62,5.39-.25,1.76.46,2.16,1.85,2.56,2.52.71,4.1,2.63,3.31,4.86-.72,2-3,2.81-5.59,2.47-3.19-.42-6.45-.28-9.68-.5-20.07-1.39-40,1.69-60,2.18-12.35.29-24.8.74-37.07,1.88-11.92,1.12-23.81.39-35.68,1.37-7.28.61-14.86-.59-21.95.4s-14.32,2.08-21.54,1.94-14.68.34-21.48-2.7a214.81,214.81,0,0,0-28.24-10.83c1.92,5-.52,5.25-4.69,4.63-2.78-.42-5.78.16-8.63.59-14.84,2.29-29.61,5-44.5,6.94a419,419,0,0,1-63.17,2.76c-11.23-.27-13,1.11-17.17,11.95,1.79-.54,3.17-1.67,5-1.38,8.56,1.36,17.06-.29,25.58-.71,13.19-.65,26.36-1.83,39.55-2,11.1-.16,22.14-.79,33.16-1.8,21.19-1.94,42.32-4.87,63.69-4.08,18.14.67,36.2-.77,54.28-1.64,12.4-.6,24.71-2.35,37.22-1.41,30.14,2.26,60.27,4.67,90.53,4.87,11.46.08,23,.71,34.15-2.71,2-.6,3.55-.59,2.66-3.5a165.12,165.12,0,0,0-12-29.86,27,27,0,0,0-9.71-10.78c-1.08-.66-2.07-1.78-3.47-1.33C366.56,405.33,361.16,402.7,355.41,399.06ZM20.57,441.62c24.58,2.68,108.07-5.44,125.33-12.54-6.25-1.8-10.34-6.73-15.93-6.6-9,.19-18,.49-27,.81a219.83,219.83,0,0,0-31.2,3.78c-14.8,2.69-29.83,3.06-44.76,4.4-2,.17-3.45.69-4.07,2.62C22.14,436.59,21.37,439.09,20.57,441.62ZM32,406.47c-4,5.29-4.58,11.22-6.2,16.78-.68,2.36,1.44,2.15,3.11,2.13,18.47-.2,36.52-3.66,54.68-6.28,7.93-1.15,16-2.51,23.92-2.39a158,158,0,0,0,17.54-1.13c-2.36-2.9-5-5-6.11-7.75-2.53-6.48-7.68-6.7-13.35-6.11-3.21.33-6.38,1-9.55,1.56-13.78,2.58-27.38,6.22-41.66,5.28-5.81-.38-11.73-.39-17.29,1.57C33.29,411.47,32.05,410.26,32,406.47ZM267,417.27c-.88-.21-1.25-.43-1.46-.33a49.45,49.45,0,0,0-4.77,2.24,124,124,0,0,1-52.1,16.08c-18.8,1.57-35.06-4.78-50.18-14.88-12.33-8.24-22.27-18.84-32.42-29.26C119.14,384,115.1,376,116,365.89a30.17,30.17,0,0,1,3.27-10.58c-5,3.45-6.51,6.77-6.18,11.46.46,6.42,4.75,12.26,3.93,18.51-.91,7,4.59,11.3,6,17.38,2,8.69,10.92,14.2,18.31,19,10.22,6.66,22.61,9.61,33.85,14.62a41.76,41.76,0,0,0,18.14,4.09c10.3-.2,20.76,1.22,30.59-3.09a183,183,0,0,1,18.16-6.46C251.17,427.94,258.58,422.19,267,417.27Zm23.23-7.42c2.18.19,2.95.35,3.71.31q24.41-1.28,48.81-2.6c1.8-.1,4.46.56,4-2.46s.91-7.65-3.75-7.9c-6.44-.34-12.64-2.65-19.2-1.74-1.7.23-4.37.59-4.48-2.17-.1-2.41,2.35-2.9,4.15-3.09a85.64,85.64,0,0,1,8.78-.08,7.38,7.38,0,0,0-3.42-3.28c-3.42-1.31-5.42-6.48-8-5.84-2.92.72-4.87,5-7.29,7.65A173.83,173.83,0,0,1,290.18,409.85Zm84.63,21.41c-1.75-1.46-3.89-1.31-5.92-1.38-6.95-.23-13.9-.44-20.86-.56-10.18-.17-20.38-1.17-30.53.05-19.64,2.35-39.26,4-58.95.61a3,3,0,0,0-1.8.5,87.78,87.78,0,0,1-17.59,7.36C284.51,438.17,329.46,432.29,374.81,431.26ZM65.43,402.36c5.44-.6,10.4-1,15.31-2,9.88-1.92,19.46-5.51,29.78-5.05.56,0,1.53-.27,1.65-.63.93-2.61-.75-5-.73-7.67,0-1.85-2.22-1.54-3.54-1.46-7.25.44-14.53.8-21.52,3-1.2.38-3.13,1.16-3.62.69-4-3.84-6.51-.08-9.59,1.38-2.68,1.28-4.91,3.24-8.09,3.86s-2,3.79-2.24,5.87S64.46,402.31,65.43,402.36Zm241.78-208.5c3.1-2.22,5-3.38,6.68-4.82,9.3-8.06,17.08-16.75,13.18-30.19A7.45,7.45,0,0,0,317,154.33c-3.19,1.53-5.5,1.49-6.44-2.83C310.08,165.51,307.71,179,307.21,193.86ZM93.79,199c-3.19-10.61-5-20.62-13.72-27.68-2.45-2-3.9-2-4.91,1a16.56,16.56,0,0,0-.79,4.08c-.64,7.39,3.26,13.75,5.17,20.56C82,205.5,85.6,212.67,97.06,211c-1.17-3.44-.77-8.21-7-8.14-.94,0-2-.94-2.83-1.69a27.93,27.93,0,0,1-7.67-13.11c-.5-1.76-.31-2.93,1.4-3.91,2.08-1.2,3.41-.1,4.55,1.26s1.22,2.77,1.53,4.32C87.71,193.33,89,196.71,93.79,199ZM288.31,402.14c3-.47,4.51-2.77,6.53-4.39,6.22-4.95,11.46-10.83,16.58-16.82,2.54-3-.16-4.92-1.37-7-.85-1.45-2.81-1.55-4.34-.69-2.37,1.34-1.86,3.66-1,5.41,1.4,3,.75,4.71-2.49,5.89-1,.37-1.7,1.76-2.47,2.72C295.82,392.12,293,397.73,288.31,402.14ZM94.58,372.55c3.72,1.39,7-.71,10.27.2s3.93-.34,3.32-3.21c-.78-3.59-1.63-7.23-.11-10.87.37-.9,1.94-1.78.69-2.78s-2.49,0-3.21,1.05C101.86,362.08,98.26,367.28,94.58,372.55ZM37.82,403c4.14,0,7.86-.3,11.51.07,5.08.52,7-1.93,7.33-6.25a45.15,45.15,0,0,0,.15-4.65c0-.88.12-2-1.07-2.34a2.27,2.27,0,0,0-2.47,1.08C49.24,396,43.62,399.36,37.82,403ZM292.52,55.35c2-7.07-1.24-11.42-6.45-14.87-1-.69-2.46-1.69-3.43-.54-1.11,1.32.33,2.13,1.49,2.73a6.05,6.05,0,0,1,3,4.06C288,50,290.17,52.39,292.52,55.35ZM216.77,28.4c1.95-.31,3.38-2.53,4-5.1.32-1.27-.58-3.24-2.27-2.8-2.66.69-6.17,1.16-6.86,4.18C211.32,26.21,212.83,28.49,216.77,28.4ZM112.89,69.8l1.26,1L126.63,52.2l-1.26-.84C119,56,117.32,63.83,112.89,69.8Zm167.52,7c1,7.06.34,13.46,4.4,18.87C284.25,89.55,286.23,82.87,280.41,76.82ZM160.51,60.45c4.16-5,8.35-10.05,10.47-16.29C164.54,47.85,163.17,54.53,160.51,60.45Zm74.93-28.71c.34-1.58-.27-2.4-1.25-2.59A2,2,0,0,0,232,30.59c-.9,2.62-1.64,5.3-2.5,7.94-.4,1.24.33,1.75,1.34,1.92s2.81.6,2.8-.75A15.88,15.88,0,0,1,235.44,31.74ZM84.8,168.31c-.46-3.13-.82-6.12-1.35-9.07a2.53,2.53,0,0,0-3.22-2.08c-1.63.35-.7,1.93-.64,2.74C79.84,163.36,80.93,166.52,84.8,168.31ZM244.11,58.16c-4.27,1.06-4.25,3.79-3,7,.39,1,.95,2.19,2.25,2,1.51-.19,1.23-1.62,1.2-2.6C244.49,62.42,244.26,60.31,244.11,58.16Zm-15.89-9.39-1.63-.12q-.94,10-1.9,20l1.69.14C227.29,62.17,226.5,55.35,228.22,48.77Zm-50.29-15c-6.75.71-10.48,3.12-13.9,9ZM102.37,93.66c3.3-4.41,5-9.45,6.41-14.62C104,82.84,104.16,88.64,102.37,93.66ZM86.83,381.37c5.4-1.65,11.29-.21,16.59-2.42C97.81,379.21,92.14,379.13,86.83,381.37Zm145.47-363a10.47,10.47,0,0,0-7.2-.82C226.87,23.33,226.87,23.33,232.3,18.35ZM180.49,41.69c-4.37,4.39-5.75,8.82-7,13.29C176.29,51.24,179.11,47.49,180.49,41.69Zm118.82,64.39a29.19,29.19,0,0,0-1.24-13.19C297.64,97.32,297.63,101.72,299.31,106.08Z"/><path d="M205.64,288.42c-16-2-31.81-4.1-46.17-12.27-8.06-4.59-13.87-11.06-19.63-17.73-4.23-4.9-5.41-11.18-7.08-17.14a54.91,54.91,0,0,1-2-13.46c-.14-5.45,2.9-8,8.37-6.57a13.31,13.31,0,0,1,3.17,1.14c14.08,8.07,29.95,7.51,45.25,7.31,13.8-.18,27.84-.51,41.47-3.27,13.26-2.69,26.38-6,39.7-8.49,1.84-.34,3.49-1.53,5.29-2.15,2-.69,3.78-2.45,6.2-.57s4.78,3.95,4.11,7.31c-2.58,12.9-4.12,26.05-13.72,36.71-7.88,8.74-17.31,14.81-28.26,19.49a138.25,138.25,0,0,1-28.93,8.74C210.81,288,208.27,288,205.64,288.42ZM200.77,258c-5.38-.52-10.6.94-15.9,1.29-9,.6-17.7,3.07-26.39,5.4-4,1.06-2.77,2.63-.54,4.09,4.25,2.8,8.54,5.68,13.41,7.34,17.81,6.06,35.79,9.33,54.36,2.73,9.06-3.23,18.37-5.89,26.15-11.72.95-.7,2.7-1.15,2-2.71-.5-1.16-1.95-1.48-3.27-1.61-2.24-.21-4.51-.28-6.72-.65C229.62,259.72,215.12,259.58,200.77,258Zm-52.19-16.27c1.42,0,2.23,0,3,0,5.34.19,6.75-2,4.92-6.92-1.22-3.25-4.31-2.76-6.61-3.82-2.87-1.3-7.25-4.12-8.48-3.2-2.7,2,.93,5.37.88,8.35C142.24,240.56,143.65,243.52,148.58,241.68Zm22.44-8v.1a10.06,10.06,0,0,0-2.86-.22c-1.45.32-3.53-.72-4.24,1.19s.7,3.19,2,4.4c3.36,3.13,7.45,2.18,11.4,1.81,1.8-.17,2.92-1,2.71-3.06-.18-1.81-.45-3.42-2.78-3.64Zm65.86,4.58c7.71-.53,8.84-1.53,8.25-7.14-.17-1.59-.31-3-2.76-2.81-6.86.57-9.63,2.26-9.31,6.11C233.26,236.75,232.86,239.79,236.88,238.25Zm-19.46,1.28c1.64-.19,3.85-.55,6.08-.67,2.52-.14,3.4-1.37,3.11-3.62s-1.42-3.36-3.83-3.18c-3,.23-6.06.46-9.1.65-1.49.1-3.2.16-3.12,2s.35,4.16,2.9,4.75A20.09,20.09,0,0,0,217.42,239.53Zm-20.92-5.31c-3.27,0-5.2-.11-7.11,0-1.28.11-3.2-.24-2.85,2.08.27,1.77-.13,4.1,2.75,4.09,3.86,0,7.74-.2,11.59-.53,1.7-.15,3.18-1,2.68-3.09-.42-1.76-1.21-3.21-3.58-2.89C198.39,234.14,196.77,234.2,196.5,234.22Zm60.12.48c1.05-.33,4.86,1.31,3.93-2.7-.51-2.21,1.8-6.39-2.82-6.46-2.39,0-6.9-1-6.3,4C251.73,232,250.87,235.64,256.62,234.7Zm15.59-12.1c-1.32,1.42-6.17-1.14-5.26,3.94.34,1.85-1.69,5.2,2.71,5,3.51-.19,6.67-.82,6.82-5.35C276.58,223.36,275.23,222.65,272.21,222.6Z"/><path d="M151.41,162.87c-10.28-1.38-19.93-1.07-29-4.18-1.51-.52-3.26-1-4.31-2-1.51-1.48-2.94-2.66.69-4.63,8.16-4.44,17.17-6.85,25.41-11a6.77,6.77,0,0,1,4.25-.47q17.12,2.82,34.21,5.71c1.93.33,4,1,4.47,3.08.55,2.25-1.29,3-3,4.11-7.53,4.8-16,6.6-24.72,7.29C156.22,161.05,153.54,162.58,151.41,162.87Zm25.28-12c-4.44-1.32-8.24-2.49-12.06-3.56-1.08-.31-2.48-.51-2.8.92a21.26,21.26,0,0,0-.77,6.35c.11,1.37,1.94.82,2.88.61C168.11,154.28,172.63,154.3,176.69,150.88ZM127,154.71a56.28,56.28,0,0,0,13.29,1.87c3.86,0,1.33-2.76,1.49-4.09s.79-4.21-2.17-3.42C135.39,150.19,131,151.2,127,154.71Z"/><path d="M234.35,138.84c8.51-.66,17-1.33,25.52-2a12.42,12.42,0,0,1,7.36,1.76,50.56,50.56,0,0,0,15.65,5.67,6.73,6.73,0,0,1,4.61,3.1c.78,1.25,1.06,2.59-.58,3-8.42,2.32-15.82,7.68-25.19,7.31-5-.19-9.39-2-14.06-3.09-8-1.82-15.3-5.41-22.31-9.51-1.18-.69-2.53-1.49-1.94-3.3a4.19,4.19,0,0,1,4.19-3.16c2.25-.05,4.5,0,6.74,0Zm1.34,6.79,14.5,4.37C248.1,142.34,247.38,142.11,235.69,145.63Zm39.1,3c-7.62-5.82-9-5.36-11.43,3.75A38.51,38.51,0,0,0,274.79,148.59Z"/><path d="M165.14,133.05c-4.61-.36-8.79-.74-13-1-8.27-.51-16,1.52-23.42,4.82-2.61,1.15-5.44,1.84-8.12,2.88a3.68,3.68,0,0,1-4.67-1.29c-1.23-1.65-.59-3.23.7-4.65a39.93,39.93,0,0,1,21-12.67c9.38-2.1,18.84-2.6,28,1.36.58.25,1.5.69,1.82.46,5.92-4.16,7.41,2.63,10.85,4.27,2,.92.05,4.24-3,4.71C171.79,132.48,168.24,132.72,165.14,133.05Z"/><path d="M183.38,194.73c2.2-.22,3.72.28,4.31,2,.75,2.19-1.45,2.07-2.58,2.5-4.91,1.9-4.46,6.37-5.48,10.15a1.06,1.06,0,0,0,.9,1.37,1.39,1.39,0,0,0,1.62-.69c1.22-2.05,3.54-2.59,5.42-3.74,2.35-1.43,4.78-2.12,7.25-.56a9.76,9.76,0,0,1,4.71,7.74A2.4,2.4,0,0,1,196,216c-2.46-1.2-4.39-.23-6.47.45-2.29.74-4.5,1.67-6.69-.31a1.68,1.68,0,0,0-2.23-.18c-4.64,4.45-7.38-.3-10.06-2.35-3.18-2.41-.54-5.29.8-7.88,2-3.87,3.68-7.94,8.3-9.82C181,195.34,182.27,194.62,183.38,194.73Z"/><path d="M244.93,205.93a8.42,8.42,0,0,1-3.17,5.31,4,4,0,0,1-5.3-.36c-1.47-1.35-.25-2.22.69-3.44,2.33-3,.82-5.33-2-7.1-1.92-1.2-5.45-2-4.05-4.66s4.22-.47,6.44.15C242.71,197.28,244.13,201.26,244.93,205.93Z"/><path d="M223.79,215.28c-1.74-.29-3.15-.55-4.58-.77-1.66-.26-3.73.17-4-2.34-.23-2.2,1.06-3.53,2.91-4.31,3-1.26,6.1-2,9.33-1a5.34,5.34,0,0,1,4,4.69c.13,2.11-2.25,2.38-3.73,3A15.53,15.53,0,0,1,223.79,215.28Z"/><path d="M199.63,383.19c.12,1.29-.25,2-1,2.38-1.5.73-2.87.11-4-.78a15.59,15.59,0,0,0-19.49,0,18.21,18.21,0,0,1-3.15,2.07c-2.7,1.34-5.5,1.7-7-1.4s1.78-3.49,3.5-4.46a31.56,31.56,0,0,1,23.71-3.27A11.78,11.78,0,0,1,199.63,383.19Z"/><path d="M228.21,379.45c5.33.93,9.67,3.79,13.79,7a2,2,0,0,1,.79,2.46,3.49,3.49,0,0,1-2.8,1.57c-2,.21-3.37-1-4.73-2-2.93-2.19-5.53-4.84-9.74-2.06-1.14.76-2.78-.14-3.55-1.59s0-2.39,1-3.2C224.49,380.44,225.91,379.05,228.21,379.45Z"/><path d="M332,399.07a24.68,24.68,0,0,1,10,1.06c.92.27,2.05.4,2,1.55a2.44,2.44,0,0,1-1.79,2c-9,2.93-18.25,2.16-27.45,1.79-1.37-.05-3.26-1.2-3.08-3s1.76-2.31,3.57-2.4C320.67,399.82,326.13,399.44,332,399.07Z"/><path d="M321.33,174c.32,3-.82,5.23-3.72,6.43-1.89.78-4.11,2-5.75,0s.69-3,1.72-4.19c2.36-2.84.65-5.2-.86-7.62-.6-1-2.09-1.75-.66-3.15a3.47,3.47,0,0,1,3.61-.66C320.61,166.13,321,170,321.33,174Z"/></g></g></svg>