<svg width="685" height="607" viewBox="0 0 685 607" fill="none" xmlns="http://www.w3.org/2000/svg">
<g clip-path="url(#clip0_65_27)">
<rect x="30.4722" y="44.334" width="654" height="562" rx="58" fill="#FF6F61"/>
<line y1="-0.5" x2="862.299" y2="-0.5" transform="matrix(0.758437 0.651746 -0.39736 0.917663 30.4722 44.334)" stroke="#FF6F61"/>
<line y1="-0.5" x2="862.299" y2="-0.5" transform="matrix(0.758437 -0.651746 0.39736 0.917663 30.4722 606.334)" stroke="#FF6F61"/>
</g>
<g clip-path="url(#clip1_65_27)">
<rect x="0.22168" y="0.333984" width="654" height="562" rx="58" fill="#22333B"/>
<line y1="-0.5" x2="862.299" y2="-0.5" transform="matrix(0.758437 0.651746 -0.39736 0.917663 0.22168 0.333984)" stroke="#22333B"/>
<line y1="-0.5" x2="862.299" y2="-0.5" transform="matrix(0.758437 -0.651746 0.39736 0.917663 0.22168 562.334)" stroke="#22333B"/>
</g>
<path d="M311.673 288.129C307.151 285.973 302.163 284.978 297.159 285.235C294.762 285.456 292.423 286.107 290.257 287.158C287.139 283.504 283.071 280.802 277.939 281.085C271.351 281.419 265.48 286.459 262.95 292.34C260.298 298.483 260.531 305.568 263.577 310.75C262.392 313.059 261.738 315.605 261.665 318.199C261.29 325.74 266.442 331.934 273.081 334.818C279.265 337.49 287.16 338.178 293.192 334.636C296.121 332.896 298.367 330.207 299.558 327.015C309.193 326.762 320.691 319.12 323.404 310.922C326.652 301.095 320.509 292.107 311.673 288.129Z" fill="#F5F0E9"/>
<path d="M357.036 209.407C352.168 204.62 345.973 201.513 339.557 199.003C346.783 193.274 352.269 186.291 353.898 175.977C355.841 163.771 352.825 147.962 343.686 139.055C336.055 131.606 324.658 129.815 314.81 133.559C309.648 135.506 305.035 138.677 301.37 142.8C299.34 145.161 297.607 147.761 296.208 150.543C293.586 145.654 290.621 140.978 285.55 138.286C281.649 136.361 277.345 135.398 272.995 135.477C268.646 135.556 264.379 136.675 260.551 138.742C246.887 146.585 247.879 160.512 252.93 172.91C249.17 172.841 245.533 174.255 242.809 176.848C237.475 181.908 235.056 190.784 236.878 197.849C238.699 204.913 244.408 210.237 251.189 213.243C249.296 215.385 247.774 217.827 246.685 220.47C243.355 228.648 245.44 238.404 251.098 245.074C258.071 253.303 267.757 253.009 275.53 248.333C275.611 248.657 275.672 248.981 275.783 249.345C276.824 252.568 278.406 255.59 280.459 258.282C284.447 263.576 291.289 268.768 298.222 268.899C305.631 269.031 310.62 263.07 313.889 257.098C315.761 253.556 317.024 249.724 317.624 245.762C319.186 246.672 320.813 247.463 322.492 248.131C328.231 250.398 334.324 252.118 340.548 251.42C349.84 250.408 358.686 244.335 361.661 235.348C364.475 226.775 363.695 215.956 357.036 209.407ZM298.708 200.106C295.003 202.13 289.447 200.45 287.423 196.827C286.937 195.853 286.679 194.783 286.667 193.695C286.655 192.607 286.889 191.531 287.353 190.547C287.817 189.564 288.497 188.698 289.344 188.015C290.19 187.332 291.181 186.85 292.24 186.604C293.66 185.989 295.229 185.805 296.752 186.077C298.275 186.349 299.684 187.064 300.803 188.133C304.416 191.543 302.928 197.869 298.708 200.106Z" fill="#F5F0E9"/>
<path d="M210.916 283.089C210.35 283.089 209.773 283.069 209.186 283.028C204.725 282.777 200.411 281.34 196.691 278.865C192.971 276.39 189.978 272.967 188.022 268.95C186.666 267.826 185.767 266.246 185.492 264.507L185.371 263.677C182.719 245.874 179.986 227.463 175.654 209.721C171.388 192.726 168.677 175.377 167.558 157.891C167.153 150.937 166.89 143.539 168.398 136.191C169.703 129.855 173.043 123.722 178.6 117.437C187.881 106.921 199.591 102.66 212.546 105.119C226.28 107.73 235.602 118.277 235.734 131.272C235.814 140.209 232.414 147.749 229.114 155.037C227.277 158.901 225.681 162.876 224.337 166.939C222.313 173.659 223.78 180.299 225.805 187.657C227.343 193.274 228.649 199.023 229.954 204.64L231.139 209.832C234.691 225.166 237.899 241.491 234.812 257.614C233.598 263.677 228.467 283.089 210.916 283.089ZM205.603 107.477C196.302 107.477 187.84 111.526 180.836 119.451C175.634 125.321 172.527 130.999 171.333 136.829C169.896 143.812 170.159 150.998 170.553 157.749C171.684 175.055 174.394 192.221 178.65 209.033C183.013 226.907 185.735 245.388 188.417 263.262L188.539 264.092C188.738 265.191 189.346 266.174 190.239 266.845L190.512 267.057L190.664 267.381C192.362 270.985 195.001 274.063 198.305 276.29C201.608 278.517 205.451 279.81 209.429 280.033C225.896 281.176 230.683 262.715 231.827 257.027C234.863 241.471 231.827 226.138 228.183 210.47C227.778 208.743 227.38 207.009 226.989 205.268C225.693 199.731 224.398 194.013 222.87 188.446C220.734 180.623 219.145 173.538 221.432 166.048C222.808 161.859 224.451 157.761 226.351 153.782C229.651 146.464 232.778 139.551 232.697 131.292C232.576 119.754 224.256 110.423 211.979 108.095C209.878 107.688 207.743 107.481 205.603 107.477ZM196.555 157.071C195.05 157.056 193.564 156.736 192.186 156.131C190.808 155.526 189.567 154.647 188.539 153.549C185.614 150.512 185.097 146.464 184.652 142.881C184.61 142.545 184.593 142.207 184.602 141.869C184.573 139.339 185.444 136.882 187.061 134.936C191.848 128.924 197.263 123.357 204.409 123.337C206.471 123.325 208.497 123.878 210.267 124.936C212.037 125.994 213.483 127.517 214.449 129.339C216.301 132.74 216.281 137.051 214.388 141.484C212.898 144.701 210.868 147.638 208.386 150.168C205.917 152.85 203.184 155.563 199.48 156.676C198.528 156.944 197.543 157.077 196.555 157.071ZM204.439 126.353C198.569 126.353 193.771 131.414 189.46 136.808C188.289 138.199 187.651 139.96 187.658 141.778V141.889C187.643 142.091 187.643 142.294 187.658 142.496C188.063 145.745 188.488 149.106 190.694 151.444C191.67 152.52 192.926 153.305 194.322 153.709C195.718 154.113 197.199 154.12 198.599 153.731C201.565 152.84 203.862 150.553 206.149 148.083C208.391 145.802 210.229 143.157 211.584 140.26C212.465 138.235 213.609 134.238 211.767 130.766C211.064 129.438 210.014 128.327 208.729 127.549C207.444 126.772 205.971 126.359 204.469 126.353H204.439Z" fill="#F5F0E9"/>
<path d="M361.449 328.169L361.793 328.088C368.392 326.063 366.793 316.003 359.769 317.339C359.414 317.41 359.05 317.501 358.676 317.592C358.301 317.683 357.997 317.703 357.663 317.734C357.603 314.88 357.4 311.661 356.145 309.252C353.817 304.799 348.099 304.455 344.719 307.785C341.51 310.942 340.862 315.618 342.128 319.778C342.441 320.79 342.856 321.802 343.2 322.815C342.611 323.018 342.036 323.262 341.48 323.543C333.737 327.521 336.166 335.982 342.684 339.555C348.038 342.48 356.854 345.051 361.985 340.446C365.922 336.853 364.262 331.782 361.449 328.169Z" fill="#F5F0E9"/>
<path d="M394.484 267.513C393.989 267.512 393.496 267.478 393.006 267.412C388.634 266.855 384.383 263.758 381.873 259.315C374.373 245.843 374.656 229.832 374.919 214.357C375.031 208.365 375.122 202.697 374.788 197.221C374.413 190.997 373.958 184.681 373.523 178.578C372.389 162.476 371.205 145.836 371.154 129.39C371.093 127.82 371.394 126.257 372.035 124.823C372.675 123.389 373.638 122.122 374.849 121.121C376.183 120.074 377.726 119.325 379.374 118.921C381.021 118.518 382.736 118.471 384.403 118.783C391.893 117.012 399.483 122.659 405.87 134.855C407.894 138.681 409.868 142.527 411.851 146.363C414.979 152.435 418.208 158.64 421.497 164.733C426.881 174.712 431.851 184.793 436.679 194.6C435.666 186.21 434.715 177.556 433.774 169.034C433.558 167.091 433.339 165.148 433.116 163.204C432.397 156.869 431.648 150.32 431.193 143.843C430.687 136.829 430.646 127.811 434.756 120.362C437.63 115.139 443.612 110.787 450.504 112.781C456.577 114.562 459.461 120.19 461.263 124.926C464.937 134.481 465.807 145.239 466.576 154.733C467.589 166.737 467.71 178.943 467.862 190.754C467.933 195.45 467.993 200.308 468.105 205.075C468.165 207.646 468.267 210.247 468.378 212.879C468.803 223.739 469.248 234.973 466.88 245.57C465.24 252.908 459.643 257.817 452.943 257.817H452.822C446.992 257.817 441.506 254.153 436.942 247.372C434.047 243.06 432.144 238.131 430.302 233.374L429.655 231.694C427.752 226.806 425.889 223.03 423.319 217.808L422.914 216.978L418.997 209.002C414.25 199.286 409.362 189.287 404.2 179.54C405.212 183.74 406.224 187.971 407.236 192.201C410.961 209.124 410.465 225.763 408.572 245.52L408.451 246.845C407.945 252.361 407.317 259.234 403.087 263.667C402.005 264.878 400.679 265.847 399.196 266.51C397.714 267.173 396.108 267.514 394.484 267.513ZM382.288 121.647C380.307 121.618 378.376 122.265 376.812 123.479C375.96 124.202 375.284 125.111 374.836 126.135C374.389 127.16 374.182 128.273 374.231 129.39C374.231 145.735 375.456 162.324 376.6 178.366C377.035 184.438 377.48 190.815 377.865 197.039C378.209 202.646 378.097 208.628 377.996 214.417C377.733 229.498 377.46 245.094 384.565 257.857C386.589 261.45 389.959 263.93 393.39 264.406C394.768 264.569 396.165 264.394 397.46 263.894C398.755 263.395 399.908 262.587 400.819 261.541C404.321 257.877 404.868 251.855 405.354 246.542L405.475 245.206C407.337 225.723 407.833 209.367 404.2 192.829C402.368 184.519 400.293 176.23 398.046 168.174L394.605 155.867L400.941 167.192C401.953 169.024 402.965 170.866 403.977 172.708C410.232 184.175 416.062 196.088 421.699 207.616C422.995 210.278 424.3 212.929 425.606 215.591L426.011 216.411C428.622 221.705 430.495 225.52 432.458 230.581L433.106 232.271C434.887 236.876 436.729 241.643 439.432 245.661C443.48 251.663 447.974 254.77 452.822 254.77H452.913C458.986 254.77 462.781 249.821 463.884 244.892C466.172 234.68 465.736 223.638 465.311 212.99C465.21 210.338 465.099 207.717 465.038 205.136C464.927 200.349 464.866 195.481 464.795 190.784C464.643 179.024 464.481 166.868 463.52 154.966C462.771 145.675 461.911 135.149 458.399 126.009C456.85 121.961 454.451 117.133 449.624 115.726C443.996 114.076 439.502 117.993 437.387 121.799C433.652 128.56 433.713 136.981 434.189 143.61C434.644 150.017 435.383 156.535 436.102 162.84C436.324 164.79 436.544 166.737 436.76 168.68C437.731 177.452 438.743 186.25 439.796 195.076L439.917 196.139C440.191 198.456 440.494 200.784 440.798 203.122L441.992 212.231L437.944 204.043C437.053 202.248 436.169 200.457 435.292 198.669C430.049 188.011 424.675 177.02 418.825 166.18C415.515 160.107 412.287 153.802 409.159 147.749C407.175 143.924 405.185 140.098 403.188 136.272C399.848 129.926 393.067 119.613 384.889 121.819L384.534 121.91L384.18 121.839C383.558 121.709 382.923 121.645 382.288 121.647Z" fill="#F5F0E9"/>
<path d="M206.311 450.908C202.057 451.008 197.856 449.94 194.166 447.821C186.585 443.327 182.385 434.572 183.265 424.977C183.417 423.317 183.579 421.85 183.782 420.483C182.898 409.285 182.699 398.043 183.185 386.821C182.24 377.046 182.454 367.194 183.822 357.469C183.883 357.064 183.944 356.66 184.014 356.255V356.103C184.014 354.2 184.014 352.287 184.014 350.385C184.014 346.66 184.014 342.925 184.085 339.201C184.085 337.723 184.085 336.164 184.085 334.606C184.014 326.762 183.933 317.865 187.921 310.963C189.091 308.834 190.69 306.971 192.616 305.492C194.543 304.012 196.756 302.949 199.115 302.37C205.542 300.74 213.599 302.37 220.673 306.752C234.043 315.001 243.628 329.272 251.563 341.994C264.295 362.429 290.792 404.948 262.251 430.149C249.093 441.738 231.887 446.485 218.254 449.379C214.336 450.297 210.334 450.809 206.311 450.908ZM204.338 304.839C202.838 304.833 201.343 305.006 199.884 305.356C197.921 305.844 196.08 306.735 194.479 307.972C192.878 309.209 191.551 310.765 190.583 312.542C187 318.726 187.081 327.167 187.152 334.626C187.152 336.225 187.152 337.784 187.152 339.292C187.101 343.006 187.091 346.731 187.081 350.425C187.081 352.378 187.081 354.322 187.081 356.275L187.01 356.801C186.95 357.176 186.879 357.55 186.828 357.925C185.486 367.438 185.282 377.077 186.221 386.638V386.821C185.736 398.01 185.935 409.218 186.818 420.382V420.564V420.747C186.626 422.093 186.454 423.56 186.302 425.23C185.563 433.661 189.166 441.313 195.704 445.199C202.243 449.086 209.874 448.013 217.677 446.383C230.896 443.61 247.676 439.015 260.277 427.892C286.896 404.391 261.289 363.35 249.022 343.624C241.26 331.154 231.918 317.268 219.115 309.364C214.692 306.54 209.583 304.975 204.338 304.839ZM216.685 383.187C215.99 383.258 215.289 383.131 214.661 382.823C212.819 381.244 212.536 378.046 212.333 375.738C212.333 375.313 212.263 374.918 212.222 374.584C211.939 372.317 211.787 370.02 211.635 367.793C211.544 366.487 211.453 365.171 211.341 363.866C211.142 360.945 211.105 358.016 211.23 355.091C211.23 354.028 211.281 353.006 211.291 352.054H211.24V349.342L211.18 347.49L211.605 347.642C211.713 347.484 211.852 347.349 212.014 347.247C212.176 347.144 212.357 347.075 212.546 347.045L213.75 346.792L214.287 347.966C214.38 348.201 214.431 348.451 214.439 348.704L215.167 348.947C216.671 349.39 218.125 349.983 219.509 350.719C224.217 353.438 228.526 356.796 232.312 360.698C232.849 361.224 233.395 361.791 233.952 362.388L234.155 362.651C235.122 364.183 235.734 365.913 235.946 367.712C236.503 373.471 231.432 378.238 226.503 380.788C223.445 382.349 220.068 383.183 216.635 383.228L216.685 383.187ZM214.368 351.812C214.368 352.874 214.368 353.967 214.307 355.111C214.188 357.925 214.222 360.742 214.408 363.552C214.52 364.878 214.611 366.204 214.702 367.53C214.854 369.716 215.005 371.973 215.279 374.159C215.279 374.523 215.36 374.959 215.4 375.424C215.511 376.74 215.714 379.027 216.341 380.08C217.111 380.08 218.366 380.029 218.953 379.958C221.12 379.673 223.223 379.016 225.167 378.015C229.023 375.991 233.385 372.185 232.97 367.894C232.817 366.602 232.378 365.361 231.685 364.261C231.189 363.734 230.673 363.248 230.217 362.753C226.626 359.046 222.539 355.854 218.072 353.269C216.885 352.672 215.645 352.188 214.368 351.822V351.812Z" fill="#F5F0E9"/>
<path d="M337.148 451.991C335.741 451.991 334.293 451.991 332.806 451.889C321.176 451.363 306.754 449.491 298.272 439.663C289.791 429.835 289.092 415.797 288.516 403.46C288.374 400.575 288.252 397.853 288.03 395.201C287.898 393.541 287.837 391.841 287.837 390.14C287.703 389.534 287.615 388.918 287.574 388.298C287.524 387.428 287.463 386.547 287.402 385.657C286.835 377.722 286.198 368.714 293.262 362.378C300.033 356.305 308.687 356.862 317.037 357.419C320.146 357.703 323.27 357.784 326.389 357.662C330.252 357.335 334.096 356.814 337.907 356.103C343.979 355.091 350.204 354.008 356.56 354.534C361.408 354.939 367.541 356.002 371.893 360.728C373.89 362.975 375.168 365.768 375.565 368.748C375.962 371.727 375.459 374.757 374.12 377.448C369.313 387.327 359.272 387.934 350.406 388.47C349.09 388.551 347.775 388.632 346.489 388.734C343.807 388.956 341.095 389.047 338.484 389.128C336.54 389.189 334.536 389.26 332.583 389.381C331.571 389.442 330.508 389.553 329.364 389.685C328.595 389.796 327.887 389.918 327.188 390.039L325.984 390.262C326.389 390.201 326.804 390.161 327.229 390.11C337.137 388.956 344.101 390.788 348.483 395.707C352.147 399.755 352.967 406.921 348.372 411.071C341.874 416.931 333.97 417.66 326.186 417.973C331.247 418.783 336.652 418.49 341.894 418.206C351.955 417.639 362.349 417.073 371.246 424.066C374.798 426.86 375.709 433.894 372.976 437.507C365.628 447.224 353.868 451.991 337.148 451.991ZM309.659 360.081C304.294 360.081 299.355 360.941 295.297 364.595C289.335 369.959 289.892 377.823 290.428 385.424L290.611 388.096C290.639 388.608 290.713 389.116 290.833 389.614V389.786V389.958C290.833 391.648 290.833 393.329 291.015 394.958C291.238 397.66 291.37 400.403 291.501 403.318C292.088 415.737 292.685 428.621 300.529 437.679C308.201 446.576 321.207 448.327 332.917 448.863C350.892 449.683 363.209 445.361 370.557 435.635C372.319 433.307 371.661 428.216 369.363 426.414C361.378 420.129 351.995 420.645 342.036 421.192C334.192 421.627 326.075 422.073 318.525 418.965C318.231 418.844 317.958 418.702 317.675 418.56L314.021 416.637L318.019 415.716C319.156 415.422 320.313 415.206 321.48 415.069L324.01 414.978C332.269 414.684 340.073 414.411 346.277 408.773C349.526 405.838 348.848 400.676 346.166 397.691C342.4 393.501 336.459 392.033 327.482 393.086C325.802 393.278 324.354 393.48 322.978 393.673C321.338 393.905 319.79 394.128 318.039 394.3C316.052 394.544 314.047 394.619 312.047 394.523L306.885 394.148L311.44 391.679C315.154 389.655 319.962 388.177 326.561 387.003C327.31 386.875 328.069 386.753 328.838 386.638H328.98C330.124 386.507 331.196 386.396 332.3 386.325C334.324 386.203 336.348 386.143 338.291 386.072C340.872 385.991 343.534 385.91 346.145 385.687C347.451 385.576 348.787 385.495 350.133 385.414C358.948 384.887 367.268 384.402 371.296 376.102C372.37 373.96 372.78 371.546 372.474 369.17C372.167 366.793 371.158 364.562 369.576 362.763C365.952 358.836 360.791 357.915 356.216 357.54C350.244 357.044 344.182 358.077 338.322 359.079C334.407 359.806 330.458 360.336 326.49 360.668C323.239 360.796 319.984 360.718 316.743 360.435C314.395 360.243 311.986 360.081 309.659 360.081Z" fill="#F5F0E9"/>
<path d="M408.512 452.203C406.228 452.19 403.99 451.561 402.034 450.381C398.188 448.134 395.749 444.45 394.787 439.43C394.557 438.589 394.408 437.729 394.342 436.859C393.684 427.366 393.664 417.791 393.654 409.34C393.654 401.557 393.451 393.602 393.077 385.049C392.844 382.195 392.723 379.614 392.692 377.236C392.277 369.645 391.731 361.831 391.063 354.079C390.304 345.213 390.202 336.66 390.273 326.549C390.273 325.284 390.273 324.029 390.273 322.754C390.273 315.274 390.273 307.572 392.378 300.123C394.059 294.212 397.874 286.308 406.487 282.229C412.56 279.344 419.179 278.838 426.537 278.514C439.796 277.948 457.093 282.968 465.908 295.528C474.339 307.562 473.59 327.45 464.228 339.869C457.427 348.887 446.081 355.05 430.515 358.087C430.049 358.178 429.503 358.299 428.865 358.441C429.523 359.362 430.201 360.253 430.889 361.143C432.964 363.684 435.231 366.143 437.428 368.532L438.389 369.544C443.804 375.659 449.62 381.407 455.797 386.75C460.634 390.696 465.202 394.959 469.471 399.512L471.01 401.172C476.728 407.336 482.639 413.712 485.817 421.536C488.296 427.669 487.841 435.706 481.151 439.825C474.987 443.63 467.224 442.578 460.909 437.092C457.898 434.264 455.234 431.087 452.974 427.629C451.567 425.665 450.119 423.581 448.571 421.819C446.182 419.026 443.51 416.233 440.768 413.51C439.214 412.051 437.564 410.698 435.828 409.462C434.331 408.338 432.792 407.184 431.335 405.869C430.023 404.639 428.837 403.283 427.792 401.82C428.365 407.716 428.48 413.648 428.136 419.562C427.823 426.85 427.428 435.908 423.076 442.75C419.888 447.922 414.422 452.203 408.512 452.203ZM428.653 281.48C427.985 281.48 427.327 281.48 426.679 281.48C419.655 281.794 413.38 282.259 407.803 284.901C400.212 288.494 396.822 295.579 395.314 300.882C393.289 307.896 393.289 315.416 393.289 322.683C393.289 323.958 393.289 325.233 393.289 326.499C393.218 336.529 393.289 345 394.069 353.755C394.737 361.528 395.283 369.372 395.708 377.033C395.708 379.412 395.86 381.922 396.083 384.766C396.457 393.44 396.65 401.436 396.67 409.259C396.67 417.67 396.67 427.194 397.348 436.586C397.402 437.271 397.524 437.949 397.712 438.61V438.752C398.502 442.962 400.404 445.888 403.512 447.709C409.949 451.474 416.851 446.92 420.535 441.09C424.422 434.936 424.796 426.313 425.09 419.39C425.519 412.663 425.282 405.91 424.381 399.229C424.22 398.217 424.027 397.205 423.845 396.193L422.772 390.484L426.497 394.938C427.438 396.061 428.288 397.255 429.108 398.409C430.344 400.274 431.772 402.004 433.369 403.571C434.705 404.786 436.132 405.858 437.63 406.982C439.471 408.299 441.222 409.736 442.873 411.283C445.727 414.077 448.419 416.931 450.868 419.795C452.508 421.698 453.996 423.844 455.433 425.868C457.56 429.12 460.06 432.113 462.882 434.785C467.032 438.378 473.601 440.918 479.562 437.234C484.734 434.036 485.017 427.609 483.013 422.66C480.048 415.352 474.329 409.188 468.793 403.217L467.244 401.557C463.066 397.099 458.596 392.923 453.864 389.057C447.604 383.646 441.707 377.827 436.213 371.639L435.201 370.627C432.984 368.208 430.677 365.708 428.551 363.117C427.395 361.707 426.314 360.238 425.313 358.714C425.211 358.562 425.11 358.39 425.019 358.218L424.078 356.477L425.991 356.012C427.276 355.708 428.845 355.354 429.877 355.152C444.695 352.206 455.423 346.447 461.759 338.047C470.392 326.6 471.111 308.311 463.378 297.279C455.646 286.247 440.768 281.48 428.653 281.48ZM422.499 330.061C419.746 330.206 417.007 329.586 414.584 328.27C413.284 327.518 412.16 326.497 411.287 325.275C410.414 324.053 409.813 322.659 409.524 321.185C408.815 317.521 409.969 313.321 412.681 309.677C412.932 309.325 413.202 308.987 413.491 308.665C414.028 307.557 414.821 306.592 415.805 305.851C416.789 305.11 417.935 304.614 419.149 304.404L419.544 304.343C426.628 303.331 436.213 302.066 442.124 308.331C443.736 310.1 444.752 312.331 445.026 314.709C445.3 317.087 444.82 319.49 443.652 321.58C442.053 324.535 439.098 326.812 434.847 328.341C431.503 329.396 428.019 329.942 424.513 329.96C423.875 330.021 423.197 330.041 422.499 330.041V330.061ZM428.784 306.621C425.831 306.689 422.887 306.953 419.969 307.41L419.574 307.471C418.814 307.637 418.105 307.98 417.503 308.473C416.902 308.965 416.425 309.593 416.112 310.305L416.011 310.497L415.87 310.649C415.609 310.92 415.365 311.207 415.141 311.509C412.965 314.434 411.983 317.845 412.519 320.618C412.728 321.675 413.163 322.674 413.793 323.548C414.424 324.421 415.236 325.148 416.173 325.679C418.491 327.096 421.639 327.106 424.402 326.984C427.6 326.975 430.779 326.491 433.835 325.547C437.357 324.272 439.766 322.511 440.99 320.193C441.858 318.668 442.222 316.908 442.031 315.163C441.841 313.419 441.104 311.779 439.928 310.477C437.094 307.441 433.025 306.6 428.784 306.6V306.621Z" fill="#F5F0E9"/>
<defs>
<clipPath id="clip0_65_27">
<rect x="30.4722" y="44.334" width="654" height="562" rx="58" fill="white"/>
</clipPath>
<clipPath id="clip1_65_27">
<rect x="0.22168" y="0.333984" width="654" height="562" rx="58" fill="white"/>
</clipPath>
</defs>
</svg>
